<svg width="412" height="319" viewBox="0 0 412 319" fill="none" xmlns="http://www.w3.org/2000/svg">
<path fill-rule="evenodd" clip-rule="evenodd" d="M51.6425 0.258137C51.6425 0.400112 51.4699 0.516274 51.2589 0.516274C50.7476 0.516274 50.3333 1.32705 50.3333 2.32778C50.3333 2.9176 50.5848 3.38147 51.2497 4.01808C52.3452 5.06687 52.4804 6.32595 51.6247 7.51066C51.0832 8.26038 51.0832 8.26038 51.6247 9.01011C52.3242 9.97859 52.3137 10.0608 51.3807 10.929C50.4152 11.8274 50.3865 12.5348 51.2783 13.4526C52.0591 14.256 51.9558 14.5778 50.759 15.0708C47.6948 16.333 47.0704 20.1784 49.585 22.3004C50.4564 23.0357 50.5951 23.3 50.5951 24.2251C50.5951 25.0062 50.4885 25.2974 50.2024 25.2974C49.958 25.2974 49.8096 25.5412 49.8096 25.9428C49.8096 26.3443 49.958 26.5881 50.2024 26.5881C50.5079 26.5881 50.5951 26.9323 50.5951 28.1369C50.5951 29.3416 50.5079 29.6857 50.2024 29.6857C49.9842 29.6857 49.8096 29.9152 49.8096 30.202C49.8096 30.4888 49.9842 30.7183 50.2024 30.7183C50.8393 30.7183 50.7362 33.7136 50.0618 34.8042C48.9493 36.6032 47.6336 37.4299 45.8828 37.4299C44.8608 37.4299 44.8608 37.4299 44.7822 38.9141C44.7127 40.229 44.6365 40.4078 44.1146 40.4809C43.3475 40.5883 43.3127 41.6931 44.0576 42.2931C44.3502 42.5288 44.7626 43.3315 44.974 44.0769C45.1854 44.8223 45.5601 46.0419 45.8066 46.7873C46.3705 48.4921 46.636 61.2391 46.1204 61.8517C45.9247 62.0841 45.2744 62.211 44.2789 62.211C42.7399 62.211 42.7399 62.211 42.7399 64.0158C42.7399 65.541 42.6588 65.8705 42.2162 66.143C41.5246 66.5688 41.5523 67.2236 42.2817 67.6954C42.629 67.92 43.0808 68.7005 43.3822 69.5966C43.6635 70.4327 43.9802 71.291 44.086 71.5039C44.1918 71.7169 44.5803 72.7067 44.9493 73.7036C45.6202 75.516 45.6202 75.516 45.6202 93.1193V110.723L42.9363 110.796C40.2524 110.87 40.2524 110.87 40.1755 112.897C40.1087 114.658 40.031 114.943 39.5863 115.057C39.2274 115.15 39.0742 115.412 39.0742 115.934C39.0742 116.555 39.1819 116.678 39.7288 116.678C40.0888 116.678 40.3834 116.796 40.3834 116.94C40.3834 117.084 41.1492 118.78 42.0853 120.708L43.7873 124.214V143.437C43.7873 165.187 44.0855 162.161 41.4004 167.66C40.266 169.983 40.266 169.983 40.174 173.533C40.1021 176.305 40.0041 177.082 39.7266 177.082C39.5312 177.082 39.3033 176.879 39.2202 176.63C39.1371 176.382 38.7037 175.772 38.2571 175.275C37.8105 174.778 37.193 174.08 36.8849 173.724C35.5725 172.208 32.3209 169.822 30.0253 168.692C28.6656 168.022 27.5532 167.383 27.5532 167.272C27.5532 167.161 27.2363 166.992 26.8491 166.896C26.1302 166.718 24.7016 165.837 24.3429 165.349C24.2333 165.2 24.2108 164.663 24.2928 164.155C24.3994 163.495 24.3255 163.136 24.0338 162.897C23.5224 162.479 23.5186 162.179 24.0183 161.686C24.503 161.208 24.5117 160.955 24.0589 160.509C23.643 160.099 23.4938 156.431 23.893 156.431C24.034 156.431 24.1493 156.257 24.1493 156.044C24.1493 155.831 24.0314 155.657 23.8874 155.657C23.4555 155.657 23.5921 154.576 24.0673 154.233C24.4707 153.943 24.4582 153.899 23.9235 153.732C22.5086 153.289 21.4731 155.058 22.5728 156.039C23.0095 156.429 23.0799 156.78 23.0196 158.271C22.9803 159.245 22.806 160.182 22.6322 160.353C22.2491 160.731 22.2186 161.504 22.5782 161.723C22.9236 161.933 22.9151 162.817 22.5666 162.931C22.2446 163.037 22.1698 163.869 22.4285 164.467C22.6844 165.059 21.6253 166.108 20.1352 166.738C19.4627 167.022 18.9125 167.351 18.9125 167.47C18.9125 167.588 18.4706 167.842 17.9305 168.035C15.2049 169.004 11.1011 172.116 8.52435 175.167C7.23502 176.694 4.77307 180.54 4.77307 181.027C4.77307 181.214 4.66281 181.477 4.52803 181.612C4.39326 181.747 4.01336 182.845 3.68382 184.052C2.86922 187.035 2.81645 192.965 3.57724 196.027C4.08337 198.065 4.08336 198.065 3.54316 198.496C3.00296 198.927 3.00297 198.927 3.52809 199.943C3.97402 200.806 4.07299 201.631 4.18429 205.412L4.31536 209.865H-1.1639C-5.07643 209.865 -6.73301 209.777 -6.95737 209.556C-7.17888 209.337 -7.27158 207.851 -7.27158 204.518C-7.27158 201.918 -7.38638 199.589 -7.52668 199.343C-7.66699 199.096 -8.46233 197.501 -9.29411 195.797C-10.8064 192.699 -10.8064 192.699 -10.8064 173.468V154.237L-8.97553 150.439C-7.59866 147.583 -7.01428 146.623 -6.61897 146.567C-5.80649 146.452 -5.73581 145.14 -6.53608 145.028C-7.09702 144.95 -7.15011 144.795 -7.27158 142.879C-7.4025 140.814 -7.4025 140.814 -9.95544 140.74L-12.5084 140.666V122.934C-12.5084 105.202 -12.5084 105.202 -11.8328 103.389C-11.4612 102.392 -11.0484 101.345 -10.9155 101.061C-10.7825 100.777 -10.4573 99.9054 -10.1928 99.1246C-9.83024 98.0544 -9.57261 97.6845 -9.14631 97.6223C-8.31575 97.5012 -8.33595 96.0971 -9.16993 95.9804C-9.71477 95.9041 -9.7648 95.7484 -9.83532 93.9094C-9.91158 91.9208 -9.91157 91.9208 -11.5373 91.8443C-13.163 91.7677 -13.163 91.7677 -13.235 84.927C-13.2766 80.972 -13.2019 77.8686 -13.0579 77.5701C-12.9209 77.2862 -12.4972 76.0332 -12.1162 74.7858C-11.6815 73.3625 -11.2355 72.402 -10.9186 72.2069C-10.1906 71.7587 -10.268 70.7714 -11.0542 70.4767C-11.6057 70.2699 -11.7057 70.0467 -11.7742 68.8697C-11.8533 67.5108 -11.8591 67.5024 -12.7702 67.429C-14.6012 67.2815 -16.0137 66.4305 -16.9766 64.8945C-17.6315 63.8498 -17.7173 60.6622 -17.0906 60.6622C-16.8724 60.6622 -16.6978 60.4327 -16.6978 60.1459C-16.6978 59.8591 -16.8724 59.6296 -17.0906 59.6296C-17.3953 59.6296 -17.4834 59.2885 -17.4834 58.1084C-17.4834 56.9944 -17.3782 56.5475 -17.0906 56.4386C-16.8746 56.3569 -16.6978 56.1085 -16.6978 55.8866C-16.6978 55.6648 -16.8746 55.4164 -17.0906 55.3347C-17.3502 55.2364 -17.4834 54.8318 -17.4834 54.1409C-17.4834 53.269 -17.3161 52.9341 -16.4751 52.1213C-15.1545 50.8451 -14.6452 49.194 -15.1276 47.7528C-15.544 46.5092 -16.7111 45.296 -17.8985 44.8727C-18.9634 44.4931 -19.0137 44.1451 -18.138 43.2135C-17.3091 42.3318 -17.3141 42.264 -18.3115 40.8948C-19.1396 39.758 -19.1396 39.758 -18.6579 38.8764C-18.2058 38.0487 -18.203 37.9546 -18.6123 37.3388C-19.117 36.5795 -18.9555 34.3322 -18.3963 34.3322C-18.2175 34.3322 -17.9357 34.1713 -17.7702 33.9747C-17.53 33.6894 -17.6045 33.5838 -18.1398 33.4513C-19.2189 33.1843 -19.541 32.149 -18.7901 31.3611C-18.4532 31.0075 -17.9919 30.7109 -17.765 30.7018C-17.5381 30.6927 -17.7235 30.5029 -18.177 30.2801C-20.6606 29.0597 -22.6191 32.1515 -20.5002 33.9475C-19.7005 34.6252 -19.5887 34.869 -19.5837 35.9456C-19.5806 36.6199 -19.6676 37.1717 -19.7769 37.1717C-19.8863 37.1717 -20.1263 37.4093 -20.3103 37.6997C-20.5953 38.1497 -20.5659 38.3265 -20.1114 38.8961C-19.54 39.6123 -19.3982 40.5275 -19.8586 40.5275C-20.8997 40.5275 -21.2675 42.6896 -20.3636 43.4961C-19.6331 44.1478 -19.6991 44.3437 -20.8218 44.8555C-21.9395 45.3649 -22.3965 45.7435 -23.0457 46.6974C-23.6622 47.6032 -23.667 50.1045 -23.0541 51.0557C-22.5636 51.8169 -21.3992 52.9172 -21.0837 52.9178C-20.9757 52.9179 -20.8873 53.3786 -20.8873 53.9415C-20.8873 54.7008 -21.0225 55.0363 -21.411 55.2413C-22.0812 55.595 -22.0812 56.1783 -21.411 56.532C-20.582 56.9694 -20.7185 59.6296 -21.5699 59.6296C-22.1185 59.6296 -22.0081 60.3471 -21.411 60.6622C-20.6558 61.0606 -20.7251 62.6793 -21.5729 64.4463C-22.4341 66.2408 -24.0632 67.3737 -25.7826 67.3737C-26.9096 67.3737 -26.9096 67.3737 -26.9096 68.7999C-26.9096 70.0836 -26.975 70.2505 -27.5642 70.4714C-28.4195 70.792 -28.4175 71.6969 -27.5597 72.499C-27.2021 72.8334 -26.9096 73.3619 -26.9096 73.6736C-26.9096 73.9852 -26.8139 74.3505 -26.697 74.4854C-26.58 74.6203 -26.2238 75.5438 -25.9053 76.5376C-25.3602 78.2385 -25.3304 78.7384 -25.3978 85.0561L-25.4695 91.7677L-27.2369 91.844C-29.0043 91.9203 -29.0043 91.9203 -29.0043 93.9736C-29.0043 95.8548 -29.0482 96.0269 -29.528 96.0269C-29.9353 96.0269 -30.0517 96.199 -30.0517 96.8013C-30.0517 97.3891 -29.9322 97.5758 -29.556 97.5758C-29.0218 97.5758 -29.015 97.5881 -28.05 100.286C-27.6946 101.28 -27.3036 102.325 -27.181 102.609C-26.0908 105.136 -26.1241 104.494 -26.1241 123.007V140.685H-28.4592C-31.7146 140.685 -31.6227 140.616 -31.6227 143.035C-31.6227 144.901 -31.667 145.073 -32.1464 145.073C-32.9408 145.073 -32.8619 146.305 -32.048 146.61C-31.6742 146.75 -31.1905 147.34 -30.8363 148.087C-30.512 148.772 -29.7315 150.382 -29.1018 151.665C-27.957 153.998 -27.957 153.998 -27.957 173.301C-27.957 192.604 -27.957 192.604 -28.5347 193.942C-28.8524 194.678 -29.2059 195.319 -29.3202 195.367C-29.4345 195.414 -29.528 195.599 -29.528 195.779C-29.528 195.958 -29.9993 197.056 -30.5754 198.218C-31.6227 200.331 -31.6227 200.331 -31.6227 205.341C-31.6227 208.403 -31.7246 210.413 -31.8846 210.511C-32.0286 210.598 -32.1464 210.562 -32.1464 210.429C-32.1464 209.891 -35.3551 206.983 -37.8085 205.297C-38.8438 204.586 -41.2998 203.412 -41.7526 203.412C-41.9417 203.412 -42.0963 203.289 -42.0963 203.14C-42.0963 202.99 -42.7332 202.59 -43.5116 202.25C-45.2255 201.503 -45.8222 200.764 -45.6103 199.65C-45.5053 199.098 -45.5875 198.716 -45.8714 198.436C-46.3301 197.984 -46.4202 197.475 -46.0416 197.475C-45.5928 197.475 -45.4406 196.42 -45.8248 195.972C-46.3088 195.408 -46.4108 192.044 -45.9535 191.724C-45.699 191.546 -45.7 191.471 -45.9585 191.367C-46.4862 191.156 -46.3729 189.732 -45.8276 189.723C-45.3944 189.715 -45.3947 189.7 -45.8329 189.449C-46.3376 189.159 -47.3495 189.371 -47.6564 189.83C-47.9843 190.321 -47.8779 190.918 -47.3575 191.51C-46.9618 191.96 -46.864 192.45 -46.8862 193.873C-46.9016 194.86 -47.0006 195.668 -47.1061 195.668C-47.4863 195.668 -47.6047 196.655 -47.3028 197.308C-47.0621 197.829 -47.0668 198.062 -47.3243 198.368C-47.5305 198.613 -47.5926 199.084 -47.4899 199.624C-47.2913 200.668 -48.359 201.962 -49.6493 202.242C-50.0837 202.336 -50.5843 202.585 -50.7618 202.796C-51.0444 203.132 -53.0934 204.186 -53.4629 204.186C-54.0747 204.186 -57.5306 206.79 -59.6305 208.834C-62.1994 211.333 -61.9962 210.309 -61.9962 220.765V230H473.991V220.839C473.991 210.373 474.314 211.748 471.101 208.54C469.039 206.482 466.249 204.53 464.28 203.769C463.645 203.523 462.792 203.052 462.384 202.722C461.977 202.391 461.43 202.121 461.168 202.121C460.906 202.121 460.324 201.709 459.876 201.206C459.206 200.453 459.11 200.2 459.337 199.781C459.548 199.393 459.505 199.09 459.154 198.505C458.794 197.905 458.763 197.67 459.011 197.426C459.451 196.992 459.407 196.182 458.914 195.645C458.607 195.31 458.569 195.069 458.765 194.707C458.928 194.407 458.938 194.077 458.79 193.847C458.383 193.213 458.517 192.157 459.066 191.667C459.694 191.107 459.745 190.178 459.178 189.62C458.724 189.172 458.407 189.142 457.626 189.473C457.202 189.652 457.186 189.698 457.543 189.712C458.19 189.739 458.413 190.708 457.9 191.266C457.519 191.681 457.516 191.749 457.877 191.885C458.322 192.053 458.417 193.249 458.033 193.847C457.886 194.076 457.893 194.403 458.05 194.693C458.243 195.048 458.166 195.36 457.742 195.947C457.221 196.668 457.21 196.763 457.598 197.186C458.127 197.762 458.125 197.964 457.584 198.553C457.236 198.933 457.207 199.149 457.44 199.652C457.822 200.48 457.054 201.478 455.541 202.117C454.941 202.371 454.282 202.742 454.075 202.944C453.868 203.145 453.19 203.509 452.568 203.753C450.19 204.685 445.902 207.849 444.323 209.836C443.843 210.44 443.588 210.599 443.499 210.352C443.428 210.155 443.337 207.671 443.297 204.832C443.225 199.669 443.225 199.669 441.833 196.829C441.067 195.268 440.272 193.682 440.065 193.305C439.749 192.727 439.69 189.614 439.69 173.526C439.69 154.433 439.69 154.433 440.536 152.528C441.001 151.48 441.473 150.584 441.583 150.537C441.694 150.49 441.785 150.307 441.785 150.131C441.785 149.282 443.371 146.622 443.877 146.622C444.618 146.622 444.63 145.192 443.891 145.001C443.446 144.886 443.369 144.602 443.302 142.841C443.225 140.814 443.225 140.814 440.541 140.74L437.857 140.667L437.861 123.187C437.865 105.113 437.857 105.262 438.876 102.868C438.997 102.584 439.22 102.061 439.371 101.706C439.522 101.351 439.707 100.828 439.782 100.544C440.183 99.0168 440.735 97.9345 441.229 97.7082C441.973 97.3672 441.995 96.1414 441.261 95.9521C440.796 95.8322 440.737 95.6 440.737 93.8687C440.737 91.9203 440.737 91.9203 438.97 91.844L437.202 91.7677L437.13 85.0561C437.088 81.12 437.163 78.1311 437.311 77.8283C437.449 77.5443 437.821 76.4989 438.136 75.5051C438.954 72.9233 439.251 72.2783 439.618 72.2783C440.017 72.2783 440.367 71.0306 440.05 70.7357C439.924 70.6179 439.585 70.48 439.297 70.4294C438.857 70.3519 438.761 70.1019 438.695 68.8555C438.616 67.3737 438.616 67.3737 437.59 67.3737C434.98 67.3737 432.882 65.0463 432.882 62.1503C432.882 60.9996 432.971 60.6622 433.275 60.6622C433.493 60.6622 433.668 60.4327 433.668 60.1459C433.668 59.8591 433.493 59.6296 433.275 59.6296C432.969 59.6296 432.882 59.2854 432.882 58.0808C432.882 56.8762 432.969 56.532 433.275 56.532C433.787 56.532 433.787 55.5286 433.275 55.3347C433.011 55.235 432.882 54.8267 432.882 54.0953C432.882 53.1351 433.006 52.9062 433.918 52.1838C436.351 50.2563 435.916 46.3841 433.127 45.1415C431.715 44.5122 431.563 44.1496 432.358 43.3075C433.066 42.5591 433.017 41.6701 432.227 40.8912C431.486 40.1599 431.389 39.4508 431.966 38.9787C432.469 38.567 432.469 37.8415 431.966 37.4299C431.548 37.0881 431.388 34.3322 431.785 34.3322C431.902 34.3322 432.256 34.0954 432.571 33.8059C433.258 33.1752 433.346 31.6335 432.744 30.786C432.249 30.0894 430.793 29.7846 429.988 30.2092C429.396 30.5218 429.396 30.5218 430.094 30.9391C430.477 31.1687 430.859 31.5671 430.942 31.8245C431.147 32.4617 430.373 33.5578 429.719 33.5578C429.049 33.5578 429.311 34.0241 430.158 34.3417C430.707 34.5476 430.787 34.7426 430.787 35.8746C430.787 36.588 430.683 37.1717 430.556 37.1717C430.12 37.1717 430.019 38.3205 430.404 38.8993C430.839 39.5548 430.916 40.5275 430.532 40.5275C430.391 40.5275 430.083 40.8171 429.848 41.171C429.341 41.9337 429.516 42.9252 430.271 43.562C431.006 44.1828 430.928 44.3578 429.675 44.8939C426.962 46.0542 426.038 48.8706 427.58 51.2772C427.976 51.8952 428.397 52.4011 428.515 52.4013C429.496 52.4034 429.861 54.7628 428.954 55.2413C428.293 55.5904 428.293 55.9043 428.954 56.4628C429.764 57.1458 429.639 59.6296 428.796 59.6296C428.247 59.6296 428.357 60.3471 428.954 60.6622C429.366 60.8793 429.477 61.1991 429.472 62.1556C429.459 64.9381 427.342 67.2466 424.634 67.4313C423.587 67.5028 423.587 67.5028 423.509 68.9708C423.44 70.2588 423.36 70.4486 422.854 70.5196C422.085 70.6275 421.95 71.5972 422.639 72.0727C422.953 72.29 423.531 73.5053 424.092 75.1308C425.023 77.8283 425.023 77.8283 425.025 84.8625L425.027 91.8968H423.325C421.623 91.8968 421.623 91.8967 421.623 93.9618C421.623 95.8548 421.579 96.0269 421.099 96.0269C420.692 96.0269 420.576 96.199 420.576 96.8013C420.576 97.4037 420.692 97.5758 421.099 97.5758C421.429 97.5758 421.623 97.7478 421.623 98.0404C421.623 98.296 421.716 98.6154 421.831 98.7503C421.945 98.8852 422.265 99.6925 422.541 100.544C422.817 101.396 423.113 102.151 423.199 102.222C423.285 102.293 423.613 103.138 423.929 104.099C424.497 105.827 424.503 106.044 424.499 122.943C424.497 132.346 424.405 140.18 424.294 140.352C424.166 140.55 423.192 140.691 421.614 140.739C419.135 140.814 419.135 140.814 419.058 142.841C418.992 144.602 418.914 144.886 418.469 145.001C417.729 145.192 417.742 146.622 418.484 146.622C418.873 146.622 419.188 147.011 419.686 148.106C420.058 148.922 420.881 150.663 421.516 151.974C422.67 154.358 422.67 154.358 422.67 173.355C422.67 192.352 422.67 192.352 421.791 194.204C421.307 195.222 420.703 196.52 420.447 197.088C420.192 197.655 419.763 198.578 419.494 199.137C419.071 200.014 419.005 200.799 419.005 204.875C419.005 209.558 419 209.599 418.415 209.74C418.091 209.819 415.529 209.85 412.72 209.809L407.614 209.736L407.532 206.51C407.449 203.266 407.737 201.155 408.461 199.714C408.795 199.048 408.779 198.943 408.281 198.518C407.736 198.051 407.736 198.051 408.264 195.817C409.136 192.132 408.879 185.206 407.775 182.632C407.18 181.243 405.279 177.717 405.085 177.641C404.964 177.594 404.865 177.391 404.865 177.189C404.865 176.988 404.773 176.824 404.66 176.824C404.547 176.824 404.253 176.488 404.008 176.079C403.57 175.347 400.359 172.037 399.093 171.011C397.863 170.014 394.737 168.257 391.534 166.762C389.967 166.03 389.345 165.281 389.496 164.306C389.566 163.857 389.437 163.215 389.19 162.783C388.864 162.214 388.84 162.009 389.089 161.923C389.56 161.759 389.492 160.813 388.97 160.244C388.602 159.843 388.58 159.669 388.845 159.25C389.073 158.89 389.089 158.599 388.899 158.249C388.583 157.668 388.541 156.431 388.836 156.431C388.949 156.431 389.25 156.083 389.505 155.658C389.961 154.897 389.958 154.876 389.311 154.239C388.585 153.523 388.42 153.48 387.846 153.858C387.503 154.084 387.511 154.151 387.911 154.383C388.474 154.711 388.499 155.229 387.973 155.659C387.706 155.878 387.66 156.082 387.833 156.287C388.181 156.7 388.132 160.013 387.77 160.585C387.551 160.93 387.563 161.203 387.82 161.675C388.11 162.21 388.097 162.402 387.735 162.947C387.421 163.42 387.372 163.755 387.551 164.219C387.733 164.69 387.682 164.994 387.352 165.427C386.908 166.006 386.342 166.331 381.706 168.658C380.33 169.348 379.205 170.016 379.205 170.142C379.205 170.268 379.086 170.37 378.941 170.37C378.356 170.37 374.009 174.521 372.921 176.118C371.811 177.747 371.659 177.444 371.561 173.403C371.472 169.725 371.472 169.725 369.964 166.627C369.134 164.924 368.341 163.328 368.201 163.082C367.855 162.475 367.854 124.577 368.199 123.967C368.339 123.72 369.16 122.008 370.024 120.163C371.206 117.639 371.727 116.786 372.127 116.724C372.863 116.61 372.879 115.246 372.147 115.057C371.702 114.943 371.624 114.658 371.557 112.897C371.48 110.87 371.48 110.87 368.921 110.796L366.361 110.722L366.433 92.4164C366.489 78.1937 366.579 74.0389 366.833 73.7883C367.013 73.6109 367.16 73.3033 367.16 73.1047C367.16 72.9061 367.349 72.3194 367.58 71.8011C368.274 70.2405 368.419 69.8695 368.744 68.8258C368.929 68.2318 369.255 67.7741 369.548 67.6986C370.147 67.5442 370.222 66.3938 369.648 66.1764C369.348 66.0629 369.255 65.5776 369.255 64.1194C369.255 62.211 369.255 62.211 367.558 62.211C366.003 62.211 365.848 62.161 365.709 61.6145C365.414 60.4557 365.702 47.1402 366.034 46.5937C366.206 46.3098 366.603 45.2207 366.916 44.1735C367.322 42.8185 367.628 42.2331 367.978 42.1429C368.315 42.0558 368.469 41.7829 368.469 41.2718C368.469 40.654 368.36 40.5275 367.828 40.5275C367.23 40.5275 367.181 40.4252 367.108 39.0432C367.029 37.5589 367.029 37.5589 365.705 37.4273C364.405 37.2983 363.168 36.7074 362.507 35.9004C361.105 34.1896 360.588 31.0697 361.661 30.7931C362.34 30.6182 362.34 29.7858 361.661 29.611C360.881 29.4097 360.881 26.7146 361.661 26.5133C361.949 26.4391 362.185 26.1823 362.185 25.9428C362.185 25.7032 361.949 25.4465 361.661 25.3722C361.253 25.2668 361.138 25.0201 361.138 24.2471C361.138 23.4031 361.331 23.0664 362.447 21.9662C363.694 20.7364 363.756 20.6098 363.756 19.2832C363.756 17.1524 362.745 15.5949 361.007 15.0491C360.046 14.7474 359.864 13.963 360.603 13.3043C361.343 12.6433 361.289 11.5926 360.483 10.9959C359.75 10.4535 359.626 9.52184 360.221 9.03479C360.437 8.85805 360.614 8.50956 360.614 8.26038C360.614 8.0112 360.437 7.66271 360.221 7.48597C359.547 6.9343 359.698 4.74297 360.443 4.26159C361.111 3.83027 361.661 2.84078 361.661 2.07281C361.661 1.29233 360.168 0 359.266 0C358.105 0 357.584 0.607836 358.383 1.02969C359.512 1.62518 359.469 3.08147 358.308 3.60306C357.617 3.91327 357.617 3.91327 358.33 4.33966C358.946 4.70797 359.043 4.93369 359.043 5.99694C359.043 6.67393 358.939 7.22783 358.812 7.22783C358.412 7.22783 358.314 8.4973 358.678 8.96996C359.199 9.64581 359.116 10.2208 358.388 10.9952C357.554 11.8833 357.56 12.5981 358.41 13.5023C359.145 14.2835 358.945 14.9719 357.982 14.9719C357.389 14.9719 355.859 16.4134 355.435 17.3719C354.7 19.0318 355.293 21.1836 356.816 22.381C357.606 23.003 357.734 23.2555 357.734 24.2003C357.734 25.0034 357.629 25.2974 357.341 25.2974C357.097 25.2974 356.948 25.5412 356.948 25.9428C356.948 26.3443 357.097 26.5881 357.341 26.5881C357.643 26.5881 357.734 26.9188 357.734 28.016C357.734 29.047 357.625 29.4851 357.341 29.5924C356.818 29.7901 356.839 30.6216 357.371 30.8231C357.715 30.9532 357.775 31.2866 357.69 32.6034C357.514 35.3239 355.793 37.1523 353.152 37.4242C351.842 37.5589 351.842 37.5589 351.764 39.0432C351.697 40.3163 351.613 40.5275 351.175 40.5275C350.782 40.5275 350.664 40.7062 350.664 41.3019C350.664 41.7278 350.785 42.0763 350.932 42.0763C351.079 42.0763 351.329 42.3958 351.488 42.7862C353.24 47.0919 353.283 47.3823 353.283 54.961C353.283 62.8005 353.465 62.211 351.036 62.211C349.617 62.211 349.617 62.211 349.617 64.147C349.617 65.2118 349.507 66.0831 349.373 66.0831C348.736 66.0831 348.793 67.1953 349.458 67.7589C349.833 68.077 350.141 68.4315 350.141 68.5467C350.141 68.7396 351.469 72.5055 351.958 73.6981C352.075 73.982 352.303 74.5393 352.464 74.9364C352.672 75.4463 352.759 80.8108 352.759 93.1996V110.741H350.293C346.891 110.741 346.998 110.664 346.998 113.092C346.998 114.731 346.922 115.129 346.606 115.129C346.344 115.129 346.213 115.387 346.213 115.903C346.213 116.557 346.315 116.678 346.868 116.678C347.256 116.678 347.522 116.826 347.522 117.041C347.522 117.241 347.807 117.967 348.156 118.655C351.161 124.578 350.926 122.472 350.926 143.516C350.926 162.6 350.926 162.6 349.565 165.452C348.816 167.022 348.132 168.305 348.044 168.305C347.957 168.305 347.683 167.854 347.436 167.303C346.784 165.845 345.147 164.141 343.688 163.401C342.988 163.046 342.208 162.532 341.954 162.26C341.544 161.82 341.455 161.808 341.168 162.158C340.991 162.375 340.17 162.925 339.345 163.38C338.52 163.835 337.777 164.316 337.693 164.449C337.207 165.224 337.049 164.329 337.049 160.819C337.049 158.41 337.147 156.947 337.31 156.947C337.454 156.947 337.572 156.431 337.572 155.801C337.572 155.17 337.69 154.583 337.834 154.495C337.978 154.407 338.096 154.138 338.096 153.897C338.096 153.656 338.402 152.892 338.776 152.199C339.456 150.94 339.456 150.94 338.71 150.339C338.3 150.008 337.863 149.734 337.739 149.729C337.47 149.718 337.61 148.931 338.316 146.493C339.832 141.258 339.893 132.925 338.459 127.16C336.949 121.091 332.929 114.452 327.491 109.045C324.723 106.293 320.967 103.255 320.333 103.255C320.166 103.255 320.029 103.151 320.029 103.025C320.029 102.774 314.893 100.157 314.4 100.157C314.234 100.157 313.818 99.8637 313.476 99.5051C312.81 98.806 311.534 98.092 310.95 98.092C310.479 98.092 308.686 96.968 308.002 96.244C307.431 95.6404 307.281 94.6182 307.722 94.3491C308.26 94.0216 308.009 92.5539 307.33 92.0509C306.693 91.5795 306.404 90.3479 306.93 90.3479C307.07 90.3479 307.351 90.0285 307.553 89.638C307.955 88.8623 307.74 88.2094 306.871 87.5622C306.304 87.1397 306.287 86.5101 306.823 85.7562C307.233 85.1782 307.128 84.1526 306.657 84.1526C306.523 84.1526 306.413 83.5777 306.413 82.875C306.413 81.7679 306.526 81.4934 307.26 80.8173C308.342 79.8202 308.42 78.2674 307.429 77.4534C306.679 76.8378 304.974 76.7579 304.412 77.312C304.063 77.6562 304.082 77.6992 304.58 77.6992C306.049 77.6992 306.376 79.48 305.053 80.2733C304.296 80.7275 304.265 80.7925 304.726 80.9649C305.908 81.4066 306.351 83.1446 305.497 83.9867C305.281 84.1997 305.104 84.6643 305.104 85.0192C305.104 85.3742 305.281 85.8388 305.497 86.0518C306.052 86.5991 305.987 86.9713 305.235 87.5545C304.463 88.1529 304.285 89.9942 304.973 90.2546C305.477 90.4454 305.505 91.8968 305.005 91.8968C304.318 91.8968 303.954 93.3188 304.41 94.2196C304.633 94.6603 304.742 95.2182 304.652 95.4594C304.391 96.1585 302.879 97.4624 301.923 97.8132C301.44 97.9902 300.841 98.2416 300.591 98.3717C300.341 98.5018 300 98.6083 299.834 98.6083C299.667 98.6083 299.193 98.9568 298.78 99.3827C298.368 99.8086 297.795 100.157 297.508 100.157C297.222 100.157 296.987 100.273 296.987 100.415C296.987 100.557 296.817 100.673 296.61 100.673C296.402 100.673 295.548 101.035 294.711 101.478C293.875 101.92 292.926 102.413 292.603 102.575C292.28 102.736 292.015 102.955 292.014 103.061C292.013 103.168 291.889 103.255 291.739 103.255C291.477 103.255 289.353 104.743 287.695 106.089C286.118 107.369 282.236 111.432 280.783 113.322C277.078 118.144 274.523 123.312 273.446 128.165C272.13 134.095 272.487 142.654 274.285 148.236C274.676 149.45 274.673 149.469 274.015 149.978C273.65 150.262 273.249 150.494 273.124 150.494C272.727 150.494 272.879 151.249 273.531 152.517C273.879 153.195 274.243 154.167 274.341 154.677C274.517 155.604 274.513 155.608 272.715 156.643C270.831 157.728 268.803 159.648 268.075 161.037C267.84 161.485 267.591 161.852 267.523 161.852C267.455 161.852 266.774 161.242 266.011 160.497C265.247 159.751 263.951 158.808 263.13 158.401C262.31 157.993 261.638 157.494 261.638 157.291C261.638 157.023 261.403 157.095 260.788 157.55C260.319 157.896 259.465 158.414 258.889 158.702C258.313 158.99 257.573 159.476 257.244 159.783C256.645 160.34 256.645 160.34 255.14 158.837C254.288 157.986 252.874 156.943 251.879 156.431C250.733 155.842 250.121 155.37 250.12 155.076C250.118 154.827 250 154.624 249.856 154.624C249.712 154.624 249.594 154.732 249.594 154.864C249.594 155.174 248.843 155.915 248.528 155.915C248.394 155.915 248.285 154.7 248.285 153.204C248.285 150.967 248.353 150.494 248.677 150.494C248.976 150.494 249.07 150.173 249.07 149.157C249.07 147.389 250.618 143.113 251.439 142.613C251.915 142.323 251.682 141.993 250.532 141.329C248.626 140.228 248.616 140.162 249.872 136.942C251.92 131.693 252.173 117.227 250.341 110.095C249.723 107.689 249.523 106.97 249.337 106.481C249.229 106.198 248.873 105.268 248.547 104.416C246.967 100.296 242.854 93.3333 239.854 89.704C233.615 82.1559 226.066 76.2733 218.615 73.1547C217.361 72.6297 216.177 71.9313 215.763 71.4718C215.289 70.9465 214.355 70.4397 212.942 69.9418C209.257 68.6435 206.847 66.1857 208.073 64.977C208.322 64.7316 208.485 64.1245 208.485 63.4417C208.485 62.4898 208.341 62.1746 207.568 61.4366C206.471 60.3879 206.419 59.8476 207.347 59.1281C208.443 58.278 208.389 56.4776 207.239 55.5456C206.248 54.7428 206.147 53.9493 206.914 52.9885C207.202 52.6275 207.438 52.1144 207.438 51.8482C207.438 51.582 207.202 51.1653 206.914 50.9221C206.488 50.5627 206.39 50.1607 206.39 48.7697C206.39 47.0593 206.39 47.0593 207.438 46.5937C208.611 46.0719 208.794 45.6902 207.871 45.6902C206.989 45.6902 206.282 44.8033 206.313 43.7347C206.345 42.6334 206.715 42.1604 207.716 41.9437C208.378 41.8004 208.431 41.7282 208.109 41.4108C207.904 41.209 207.552 41.0438 207.325 41.0438C207.099 41.0438 206.914 40.9276 206.914 40.7856C206.914 40.6437 206.626 40.5275 206.275 40.5275C205.923 40.5275 205.563 40.6437 205.474 40.7856C205.385 40.9276 205.126 41.0438 204.9 41.0438C204.345 41.0438 203.303 42.2758 203.105 43.1648C202.775 44.6448 203.232 45.6611 204.623 46.5385C205.288 46.9585 205.343 47.1209 205.343 48.6886C205.343 49.9935 205.222 50.5356 204.819 51.0407C204.531 51.4017 204.295 51.8399 204.295 52.0146C204.295 52.1893 204.531 52.6275 204.819 52.9885C205.576 53.9367 205.486 54.8132 204.56 55.5349C203.491 56.3668 203.422 58.2042 204.426 59.0651C205.312 59.8246 205.25 60.4129 204.164 61.5479C203.109 62.6515 202.972 63.6947 203.724 64.9148C204.301 65.852 204.051 66.4927 202.541 67.9416C201.599 68.846 198.954 70.2132 198.147 70.2132C197.451 70.2132 196.555 70.7587 196.062 71.4832C195.791 71.8802 195.147 72.3532 194.63 72.5343C191.255 73.7175 183.718 78.0467 182.039 79.7664C181.967 79.8401 181.294 80.3993 180.544 81.0089C178.887 82.3559 175.168 86.0011 173.876 87.5437C173.357 88.1632 172.677 88.9604 172.364 89.3154C171.078 90.7751 170.875 91.0349 170.291 91.9681C169.956 92.5043 169.54 93.0851 169.367 93.2588C168.067 94.5628 164.222 101.776 162.937 105.32C162.757 105.817 162.515 106.456 162.399 106.74C161.789 108.234 161.316 110.657 160.321 117.393C159.963 119.82 159.965 125.951 160.326 128.354C161.118 133.64 161.903 137.449 162.388 138.37C163.045 139.618 162.96 140.295 162.081 140.805C160.211 141.892 160.201 141.928 161.223 143.929C161.726 144.913 162.138 145.915 162.138 146.155C162.139 146.395 162.257 146.663 162.401 146.751C162.545 146.839 162.663 147.717 162.663 148.702C162.663 150.123 162.744 150.494 163.056 150.494C163.38 150.494 163.448 150.967 163.448 153.204C163.448 154.695 163.349 155.915 163.227 155.915C162.896 155.915 162.142 155.023 162.118 154.604C162.107 154.402 161.983 154.546 161.842 154.924C161.702 155.303 161.387 155.686 161.143 155.777C159.885 156.245 157.448 157.939 156.64 158.908C155.478 160.301 155.175 160.421 154.466 159.767C154.15 159.475 153.222 158.883 152.403 158.452C151.585 158.021 150.847 157.492 150.763 157.276C150.637 156.954 150.498 156.995 149.981 157.505C149.635 157.846 148.823 158.386 148.176 158.704C147.53 159.022 146.401 159.881 145.668 160.611C144.935 161.341 144.292 161.89 144.239 161.831C144.186 161.771 143.828 161.225 143.444 160.617C142.404 158.972 140.936 157.636 138.981 156.559C136.964 155.447 136.933 155.25 138.338 152.487C138.756 151.666 139.097 150.95 139.097 150.894C139.097 150.839 138.674 150.536 138.156 150.221C137.116 149.587 137.114 149.563 137.914 146.88C139.213 142.525 139.586 135.106 138.74 130.488C137.946 126.162 137.794 125.587 136.829 123.26C133.773 115.892 127.975 108.682 121.423 104.102C119.005 102.412 114.817 100.157 114.097 100.157C113.928 100.157 113.51 99.8637 113.169 99.5051C112.524 98.8287 111.231 98.092 110.688 98.092C109.065 98.092 106.356 94.9942 107.414 94.3491C107.928 94.0362 107.693 92.6621 107.022 92.0484C106.231 91.3256 106.194 90.7768 106.891 90.0898C107.607 89.3833 107.548 88.4844 106.73 87.6785C106.051 87.0088 105.987 85.7015 106.634 85.7015C107.053 85.7015 106.93 84.2228 106.498 84.0593C106.233 83.9589 106.107 83.5525 106.109 82.8055C106.114 81.5347 106.25 81.2828 107.153 80.8717C107.616 80.6606 107.676 80.5686 107.359 80.5562C106.794 80.5341 105.843 79.5465 105.843 78.9812C105.843 78.4342 106.662 77.6992 107.271 77.6992C107.659 77.6992 107.684 77.6317 107.414 77.312C107.219 77.0802 106.647 76.9248 105.988 76.9248C103.617 76.9248 102.814 79.4232 104.693 80.951C105.543 81.642 105.84 83.345 105.217 83.9589C104.688 84.4808 104.673 85.5373 105.189 85.9596C105.759 86.4263 105.674 86.8869 104.883 87.6095C104.015 88.4033 103.963 89.5268 104.758 90.3108C105.218 90.764 105.277 90.9772 105.055 91.3864C104.902 91.6671 104.678 91.8968 104.557 91.8968C104.071 91.8968 103.664 93.4448 103.974 94.1147C104.638 95.5507 104.07 96.5038 101.916 97.5725C101.268 97.8939 100.533 98.2585 100.283 98.3826C100.033 98.5068 99.6972 98.6083 99.537 98.6083C99.3768 98.6083 98.9155 98.9568 98.5119 99.3827C98.1083 99.8086 97.5309 100.157 97.2286 100.157C96.9263 100.157 96.679 100.273 96.679 100.415C96.679 100.557 96.5194 100.673 96.3242 100.673C96.129 100.673 95.2159 101.085 94.2949 101.588C93.374 102.091 92.4143 102.569 92.1623 102.651C91.9103 102.732 91.7041 102.901 91.7041 103.027C91.7041 103.152 91.5812 103.255 91.431 103.255C90.2386 103.255 82.8768 109.979 80.5759 113.169C80.2878 113.569 79.9343 114.031 79.7903 114.196C79.187 114.888 77.8265 116.97 77.8265 117.202C77.8265 117.34 77.7224 117.452 77.5952 117.452C77.468 117.452 77.2961 117.656 77.2132 117.904C77.1302 118.152 76.7925 118.826 76.4626 119.401C76.1327 119.976 75.59 121.079 75.2566 121.853C74.9232 122.627 74.5417 123.46 74.4089 123.703C74.1427 124.192 73.8711 125.201 73.0692 128.681C72.6221 130.622 72.5309 131.939 72.5153 136.684C72.4963 142.455 72.7177 144.344 73.7948 147.599C74.3345 149.23 74.2605 149.687 73.3769 150.183C72.4158 150.722 72.3984 151.124 73.2696 152.661C73.6965 153.414 74.0024 154.434 74.0915 155.404C74.1696 156.253 74.335 156.947 74.459 156.947C74.583 156.947 74.6844 158.69 74.6844 160.819C74.6844 162.949 74.5849 164.691 74.4632 164.691C74.3415 164.691 74.0287 164.459 73.768 164.175C73.5073 163.891 73.1356 163.659 72.9419 163.659C72.7482 163.659 72.5897 163.554 72.5897 163.426C72.5897 163.298 72.2586 163.079 71.8538 162.94C71.4491 162.801 70.906 162.478 70.6469 162.223C70.2186 161.801 70.1545 161.796 69.9389 162.176C69.8086 162.406 69.1739 162.854 68.5285 163.172C66.7291 164.057 65.2535 165.552 64.4114 167.341C63.8935 168.441 63.5367 168.563 63.2894 167.724C63.1952 167.405 62.5981 166.088 61.9625 164.797C60.8069 162.451 60.8069 162.451 60.8069 143.528C60.8069 124.605 60.8069 124.605 61.683 122.771C62.1648 121.762 63.0142 119.984 63.5705 118.818C64.2975 117.296 64.7323 116.678 65.1165 116.624C65.8849 116.516 66.0423 115.129 65.2862 115.129C64.8024 115.129 64.749 114.941 64.6796 112.999C64.6036 110.87 64.6036 110.87 61.9197 110.796L59.2359 110.723V92.9255C59.2359 74.2803 59.2085 74.8037 60.3067 72.4074C60.4368 72.1235 60.8365 71.078 61.195 70.0842C61.5534 69.0904 62.084 68.0844 62.3742 67.8486C62.9936 67.3453 63.0707 66.3889 62.5089 66.1764C62.2088 66.0629 62.1161 65.5776 62.1161 64.1194C62.1161 62.211 62.1161 62.211 60.5974 62.211C59.7622 62.211 58.9374 62.0716 58.7646 61.9012C58.5363 61.6762 58.4503 59.7557 58.4503 54.8793C58.4503 48.1672 58.4504 48.1672 59.2547 45.8316C60.4578 42.3382 60.5774 42.0763 60.9696 42.0763C61.1961 42.0763 61.3306 41.7879 61.3306 41.3019C61.3306 40.648 61.2288 40.5275 60.676 40.5275C60.0505 40.5275 60.0214 40.4587 60.0214 38.9787C60.0214 37.4299 60.0214 37.4299 58.9911 37.4299C57.6618 37.4299 56.6716 37.0518 55.7364 36.1873C54.1579 34.728 53.3411 31.0977 54.5227 30.7931C54.8108 30.7188 55.0464 30.4529 55.0464 30.202C55.0464 29.9512 54.8108 29.6852 54.5227 29.611C54.0778 29.4962 53.9991 29.2589 53.9991 28.032C53.9991 26.7602 54.0615 26.5881 54.5227 26.5881C54.8797 26.5881 55.0464 26.416 55.0464 26.0477C55.0464 25.7243 54.8361 25.453 54.5227 25.3722C53.7234 25.1661 53.7692 23.1136 54.5828 22.6844C57.6592 21.0612 57.1801 15.9226 53.8685 15.0234C52.9011 14.7607 52.7664 14.229 53.466 13.4338C54.2047 12.5941 54.1532 11.515 53.3445 10.8879C52.6009 10.3113 52.5089 9.69255 53.0826 9.12698C53.2986 8.91402 53.4754 8.52405 53.4754 8.26038C53.4754 7.99671 53.2986 7.60674 53.0826 7.39378C52.8524 7.16687 52.6899 6.53612 52.6899 5.87014C52.6899 4.92213 52.7984 4.67644 53.3445 4.38833C54.0718 4.00457 54.2069 3.61392 53.6123 3.61392C53.3996 3.61392 53.0378 3.3313 52.8082 2.98588C52.3273 2.26233 52.5962 1.4964 53.4983 1.02046C53.9256 0.794991 53.9705 0.664339 53.7221 0.369203C53.3714 -0.0473269 51.6425 -0.139666 51.6425 0.258137Z" fill="#4A148C"/>
<rect x="-21" y="216" width="453" height="147" fill="#4A148C"/>
</svg>
