<svg width="412" height="917" viewBox="0 0 412 917" fill="none" xmlns="http://www.w3.org/2000/svg">
<g clip-path="url(#clip0_278_2631)">
<rect width="412" height="917" rx="30" transform="matrix(1 0 0 -1 0 917)" fill="url(#paint0_linear_278_2631)"/>
<g opacity="0.3">
<path d="M11.05 125.337C11.05 124.233 11.9455 123.337 13.05 123.337C14.1546 123.337 15.05 124.233 15.05 125.337C15.05 126.442 14.1546 127.337 13.05 127.337C11.9455 127.337 11.05 126.442 11.05 125.337Z" fill="white"/>
</g>
<g opacity="0.3">
<path d="M135 32C135 30.8954 135.895 30 137 30C138.105 30 139 30.8954 139 32C139 33.1046 138.105 34 137 34C135.895 34 135 33.1046 135 32Z" fill="white"/>
</g>
<g opacity="0.3">
<path d="M59 161C59 159.895 59.8954 159 61 159C62.1046 159 63 159.895 63 161C63 162.105 62.1046 163 61 163C59.8954 163 59 162.105 59 161Z" fill="white"/>
</g>
<g opacity="0.3">
<path d="M45 97C45 95.8954 45.8954 95 47 95C48.1046 95 49 95.8954 49 97C49 98.1046 48.1046 99 47 99C45.8954 99 45 98.1046 45 97Z" fill="white"/>
</g>
<g opacity="0.3">
<path d="M392 78C392 76.8954 392.895 76 394 76C395.105 76 396 76.8954 396 78C396 79.1046 395.105 80 394 80C392.895 80 392 79.1046 392 78Z" fill="white"/>
</g>
<g opacity="0.3">
<path d="M59 261C59 259.895 59.8954 259 61 259C62.1046 259 63 259.895 63 261C63 262.105 62.1046 263 61 263C59.8954 263 59 262.105 59 261Z" fill="white"/>
</g>
<g opacity="0.3">
<path d="M29 274C29 272.895 29.8954 272 31 272C32.1046 272 33 272.895 33 274C33 275.105 32.1046 276 31 276C29.8954 276 29 275.105 29 274Z" fill="white"/>
</g>
<g opacity="0.3">
<path d="M199 135C199 133.895 199.895 133 201 133C202.105 133 203 133.895 203 135C203 136.105 202.105 137 201 137C199.895 137 199 136.105 199 135Z" fill="white"/>
</g>
<g opacity="0.3">
<path d="M388 308C388 306.895 388.895 306 390 306C391.105 306 392 306.895 392 308C392 309.105 391.105 310 390 310C388.895 310 388 309.105 388 308Z" fill="white"/>
</g>
<g opacity="0.3">
<path d="M113 288C113 286.895 113.895 286 115 286C116.105 286 117 286.895 117 288C117 289.105 116.105 290 115 290C113.895 290 113 289.105 113 288Z" fill="white"/>
</g>
<g opacity="0.3">
<path d="M316 36C316 34.8954 316.895 34 318 34C319.105 34 320 34.8954 320 36C320 37.1046 319.105 38 318 38C316.895 38 316 37.1046 316 36Z" fill="white"/>
</g>
<g opacity="0.3">
<path d="M117.1 135.325C117.1 134.22 117.995 133.325 119.1 133.325C120.205 133.325 121.1 134.22 121.1 135.325C121.1 136.43 120.205 137.325 119.1 137.325C117.995 137.325 117.1 136.43 117.1 135.325Z" fill="white"/>
</g>
<g opacity="0.3">
<path d="M366.45 123.25C366.45 122.145 367.345 121.25 368.45 121.25C369.555 121.25 370.45 122.145 370.45 123.25C370.45 124.355 369.555 125.25 368.45 125.25C367.345 125.25 366.45 124.355 366.45 123.25Z" fill="white"/>
</g>
<g opacity="0.3">
<path d="M361.038 130.775C361.038 129.67 361.933 128.775 363.038 128.775C364.142 128.775 365.038 129.67 365.038 130.775C365.038 131.879 364.142 132.775 363.038 132.775C361.933 132.775 361.038 131.879 361.038 130.775Z" fill="white"/>
</g>
<g opacity="0.3">
<path d="M384.45 131.262C384.45 130.158 385.345 129.262 386.45 129.262C387.555 129.262 388.45 130.158 388.45 131.262C388.45 132.367 387.555 133.262 386.45 133.262C385.345 133.262 384.45 132.367 384.45 131.262Z" fill="white"/>
</g>
<g opacity="0.3">
<path d="M263 89C263 87.8954 263.895 87 265 87C266.105 87 267 87.8954 267 89C267 90.1046 266.105 91 265 91C263.895 91 263 90.1046 263 89Z" fill="white"/>
</g>
<g opacity="0.3">
<path d="M39 208C39 206.895 39.8954 206 41 206C42.1046 206 43 206.895 43 208C43 209.105 42.1046 210 41 210C39.8954 210 39 209.105 39 208Z" fill="white"/>
</g>
<g opacity="0.3">
<path d="M87 108C87 106.895 87.8954 106 89 106C90.1046 106 91 106.895 91 108C91 109.105 90.1046 110 89 110C87.8954 110 87 109.105 87 108Z" fill="white"/>
</g>
<g opacity="0.3">
<path d="M396 272C396 270.895 396.895 270 398 270C399.105 270 400 270.895 400 272C400 273.105 399.105 274 398 274C396.895 274 396 273.105 396 272Z" fill="white"/>
</g>
<g opacity="0.3">
<path d="M67 324C67 322.895 67.8954 322 69 322C70.1046 322 71 322.895 71 324C71 325.105 70.1046 326 69 326C67.8954 326 67 325.105 67 324Z" fill="white"/>
</g>
<g opacity="0.3">
<path d="M36 312C36 310.895 36.8954 310 38 310C39.1046 310 40 310.895 40 312C40 313.105 39.1046 314 38 314C36.8954 314 36 313.105 36 312Z" fill="white"/>
</g>
<g opacity="0.3">
<path d="M81 339C81 337.895 81.8954 337 83 337C84.1046 337 85 337.895 85 339C85 340.105 84.1046 341 83 341C81.8954 341 81 340.105 81 339Z" fill="white"/>
</g>
<g opacity="0.3">
<path d="M111 353C111 351.895 111.895 351 113 351C114.105 351 115 351.895 115 353C115 354.105 114.105 355 113 355C111.895 355 111 354.105 111 353Z" fill="white"/>
</g>
<g opacity="0.3">
<path d="M140 272C140 270.895 140.895 270 142 270C143.105 270 144 270.895 144 272C144 273.105 143.105 274 142 274C140.895 274 140 273.105 140 272Z" fill="white"/>
</g>
<g opacity="0.3">
<path d="M173 255C173 253.895 173.895 253 175 253C176.105 253 177 253.895 177 255C177 256.105 176.105 257 175 257C173.895 257 173 256.105 173 255Z" fill="white"/>
</g>
<g opacity="0.3">
<path d="M77 299C77 297.895 77.8954 297 79 297C80.1046 297 81 297.895 81 299C81 300.105 80.1046 301 79 301C77.8954 301 77 300.105 77 299Z" fill="white"/>
</g>
<g opacity="0.3">
<path d="M65 374C65 372.895 65.8954 372 67 372C68.1046 372 69 372.895 69 374C69 375.105 68.1046 376 67 376C65.8954 376 65 375.105 65 374Z" fill="white"/>
</g>
<g opacity="0.3">
<path d="M110 389C110 387.895 110.895 387 112 387C113.105 387 114 387.895 114 389C114 390.105 113.105 391 112 391C110.895 391 110 390.105 110 389Z" fill="white"/>
</g>
<g opacity="0.3">
<path d="M113 420C113 418.895 113.895 418 115 418C116.105 418 117 418.895 117 420C117 421.105 116.105 422 115 422C113.895 422 113 421.105 113 420Z" fill="white"/>
</g>
<g opacity="0.3">
<path d="M86 399C86 397.895 86.8954 397 88 397C89.1046 397 90 397.895 90 399C90 400.105 89.1046 401 88 401C86.8954 401 86 400.105 86 399Z" fill="white"/>
</g>
<g opacity="0.3">
<path d="M63 450C63 448.895 63.8954 448 65 448C66.1046 448 67 448.895 67 450C67 451.105 66.1046 452 65 452C63.8954 452 63 451.105 63 450Z" fill="white"/>
</g>
<g opacity="0.3">
<path d="M39 403C39 401.895 39.8954 401 41 401C42.1046 401 43 401.895 43 403C43 404.105 42.1046 405 41 405C39.8954 405 39 404.105 39 403Z" fill="white"/>
</g>
<g opacity="0.3">
<path d="M25 356C25 354.895 25.8954 354 27 354C28.1046 354 29 354.895 29 356C29 357.105 28.1046 358 27 358C25.8954 358 25 357.105 25 356Z" fill="white"/>
</g>
<g opacity="0.3">
<path d="M298.05 122.375C298.05 121.27 298.945 120.375 300.05 120.375C301.155 120.375 302.05 121.27 302.05 122.375C302.05 123.48 301.155 124.375 300.05 124.375C298.945 124.375 298.05 123.48 298.05 122.375Z" fill="white"/>
</g>
<g opacity="0.3">
<path d="M136.525 177.188C136.525 176.083 137.42 175.188 138.525 175.188C139.63 175.188 140.525 176.083 140.525 177.188C140.525 178.292 139.63 179.188 138.525 179.188C137.42 179.188 136.525 178.292 136.525 177.188Z" fill="white"/>
</g>
<g opacity="0.3">
<path d="M357 225C357 223.895 357.895 223 359 223C360.105 223 361 223.895 361 225C361 226.105 360.105 227 359 227C357.895 227 357 226.105 357 225Z" fill="white"/>
</g>
<g opacity="0.3">
<path d="M275 181C275 179.895 275.895 179 277 179C278.105 179 279 179.895 279 181C279 182.105 278.105 183 277 183C275.895 183 275 182.105 275 181Z" fill="white"/>
</g>
<g opacity="0.3">
<path d="M187 91C187 89.8954 187.895 89 189 89C190.105 89 191 89.8954 191 91C191 92.1046 190.105 93 189 93C187.895 93 187 92.1046 187 91Z" fill="white"/>
</g>
<g opacity="0.3">
<path d="M149 92C149 90.8954 149.895 90 151 90C152.105 90 153 90.8954 153 92C153 93.1046 152.105 94 151 94C149.895 94 149 93.1046 149 92Z" fill="white"/>
</g>
<g opacity="0.3">
<path d="M158 154C158 152.895 158.895 152 160 152C161.105 152 162 152.895 162 154C162 155.105 161.105 156 160 156C158.895 156 158 155.105 158 154Z" fill="white"/>
</g>
<g opacity="0.3">
<path d="M159 53C159 51.8954 159.895 51 161 51C162.105 51 163 51.8954 163 53C163 54.1046 162.105 55 161 55C159.895 55 159 54.1046 159 53Z" fill="white"/>
</g>
<g opacity="0.3">
<path d="M95 61C95 59.8954 95.8954 59 97 59C98.1046 59 99 59.8954 99 61C99 62.1046 98.1046 63 97 63C95.8954 63 95 62.1046 95 61Z" fill="white"/>
</g>
<g opacity="0.3">
<path d="M37 51C37 49.8954 37.8954 49 39 49C40.1046 49 41 49.8954 41 51C41 52.1046 40.1046 53 39 53C37.8954 53 37 52.1046 37 51Z" fill="white"/>
</g>
<g opacity="0.3">
<path d="M97 196C97 194.895 97.8954 194 99 194C100.105 194 101 194.895 101 196C101 197.105 100.105 198 99 198C97.8954 198 97 197.105 97 196Z" fill="white"/>
</g>
<g opacity="0.3">
<path d="M212 51C212 49.8954 212.895 49 214 49C215.105 49 216 49.8954 216 51C216 52.1046 215.105 53 214 53C212.895 53 212 52.1046 212 51Z" fill="white"/>
</g>
<g opacity="0.3">
<path d="M376 184C376 182.895 376.895 182 378 182C379.105 182 380 182.895 380 184C380 185.105 379.105 186 378 186C376.895 186 376 185.105 376 184Z" fill="white"/>
</g>
<g opacity="0.3">
<path d="M121 328C121 326.895 121.895 326 123 326C124.105 326 125 326.895 125 328C125 329.105 124.105 330 123 330C121.895 330 121 329.105 121 328Z" fill="white"/>
</g>
<g opacity="0.3">
<path d="M363 263C363 261.895 363.895 261 365 261C366.105 261 367 261.895 367 263C367 264.105 366.105 265 365 265C363.895 265 363 264.105 363 263Z" fill="white"/>
</g>
<g opacity="0.3">
<path d="M286 243C286 241.895 286.895 241 288 241C289.105 241 290 241.895 290 243C290 244.105 289.105 245 288 245C286.895 245 286 244.105 286 243Z" fill="white"/>
</g>
<g opacity="0.3">
<path d="M131 236C131 234.895 131.895 234 133 234C134.105 234 135 234.895 135 236C135 237.105 134.105 238 133 238C131.895 238 131 237.105 131 236Z" fill="white"/>
</g>
<g opacity="0.3">
<path d="M151 207C151 205.895 151.895 205 153 205C154.105 205 155 205.895 155 207C155 208.105 154.105 209 153 209C151.895 209 151 208.105 151 207Z" fill="white"/>
</g>
<g opacity="0.3">
<path d="M149 115C149 113.895 149.895 113 151 113C152.105 113 153 113.895 153 115C153 116.105 152.105 117 151 117C149.895 117 149 116.105 149 115Z" fill="white"/>
</g>
<g opacity="0.3">
<path d="M353 339C353 337.895 353.895 337 355 337C356.105 337 357 337.895 357 339C357 340.105 356.105 341 355 341C353.895 341 353 340.105 353 339Z" fill="white"/>
</g>
<g opacity="0.3">
<path d="M368 404C368 402.895 368.895 402 370 402C371.105 402 372 402.895 372 404C372 405.105 371.105 406 370 406C368.895 406 368 405.105 368 404Z" fill="white"/>
</g>
<g opacity="0.3">
<path d="M342 296C342 294.895 342.895 294 344 294C345.105 294 346 294.895 346 296C346 297.105 345.105 298 344 298C342.895 298 342 297.105 342 296Z" fill="white"/>
</g>
<g opacity="0.3">
<path d="M304 281C304 279.895 304.895 279 306 279C307.105 279 308 279.895 308 281C308 282.105 307.105 283 306 283C304.895 283 304 282.105 304 281Z" fill="white"/>
</g>
<g opacity="0.3">
<path d="M342 169C342 167.895 342.895 167 344 167C345.105 167 346 167.895 346 169C346 170.105 345.105 171 344 171C342.895 171 342 170.105 342 169Z" fill="white"/>
</g>
<g opacity="0.3">
<path d="M316 261C316 259.895 316.895 259 318 259C319.105 259 320 259.895 320 261C320 262.105 319.105 263 318 263C316.895 263 316 262.105 316 261Z" fill="white"/>
</g>
<g opacity="0.3">
<path d="M316 216C316 214.895 316.895 214 318 214C319.105 214 320 214.895 320 216C320 217.105 319.105 218 318 218C316.895 218 316 217.105 316 216Z" fill="white"/>
</g>
<g opacity="0.3">
<path d="M250 127C250 125.895 250.895 125 252 125C253.105 125 254 125.895 254 127C254 128.105 253.105 129 252 129C250.895 129 250 128.105 250 127Z" fill="white"/>
</g>
<g opacity="0.3">
<path d="M322 304C322 302.895 322.895 302 324 302C325.105 302 326 302.895 326 304C326 305.105 325.105 306 324 306C322.895 306 322 305.105 322 304Z" fill="white"/>
</g>
<g opacity="0.3">
<path d="M275 55C275 53.8954 275.895 53 277 53C278.105 53 279 53.8954 279 55C279 56.1046 278.105 57 277 57C275.895 57 275 56.1046 275 55Z" fill="white"/>
</g>
<g opacity="0.3">
<path d="M344 74C344 72.8954 344.895 72 346 72C347.105 72 348 72.8954 348 74C348 75.1046 347.105 76 346 76C344.895 76 344 75.1046 344 74Z" fill="white"/>
</g>
<g opacity="0.3">
<path d="M380 47C380 45.8954 380.895 45 382 45C383.105 45 384 45.8954 384 47C384 48.1046 383.105 49 382 49C380.895 49 380 48.1046 380 47Z" fill="white"/>
</g>
<g opacity="0.3">
<path d="M380 47C380 45.8954 380.895 45 382 45C383.105 45 384 45.8954 384 47C384 48.1046 383.105 49 382 49C380.895 49 380 48.1046 380 47Z" fill="white"/>
</g>
<g opacity="0.3">
<path d="M219 74C219 72.8954 219.895 72 221 72C222.105 72 223 72.8954 223 74C223 75.1046 222.105 76 221 76C219.895 76 219 75.1046 219 74Z" fill="white"/>
</g>
<g opacity="0.3">
<path d="M363 322C363 320.895 363.895 320 365 320C366.105 320 367 320.895 367 322C367 323.105 366.105 324 365 324C363.895 324 363 323.105 363 322Z" fill="white"/>
</g>
<g opacity="0.3">
<path d="M318 423C318 421.895 318.895 421 320 421C321.105 421 322 421.895 322 423C322 424.105 321.105 425 320 425C318.895 425 318 424.105 318 423Z" fill="white"/>
</g>
<g opacity="0.3">
<path d="M324 378C324 376.895 324.895 376 326 376C327.105 376 328 376.895 328 378C328 379.105 327.105 380 326 380C324.895 380 324 379.105 324 378Z" fill="white"/>
</g>
<g opacity="0.3">
<path d="M355 433C355 431.895 355.895 431 357 431C358.105 431 359 431.895 359 433C359 434.105 358.105 435 357 435C355.895 435 355 434.105 355 433Z" fill="white"/>
</g>
<g opacity="0.3">
<path d="M343 467C343 465.895 343.895 465 345 465C346.105 465 347 465.895 347 467C347 468.105 346.105 469 345 469C343.895 469 343 468.105 343 467Z" fill="white"/>
</g>
<g opacity="0.3">
<path d="M381 454C381 452.895 381.895 452 383 452C384.105 452 385 452.895 385 454C385 455.105 384.105 456 383 456C381.895 456 381 455.105 381 454Z" fill="white"/>
</g>
<g opacity="0.3">
<path d="M400 467C400 465.895 400.895 465 402 465C403.105 465 404 465.895 404 467C404 468.105 403.105 469 402 469C400.895 469 400 468.105 400 467Z" fill="white"/>
</g>
<g opacity="0.3">
<path d="M395 379C395 377.895 395.895 377 397 377C398.105 377 399 377.895 399 379C399 380.105 398.105 381 397 381C395.895 381 395 380.105 395 379Z" fill="white"/>
</g>
<g opacity="0.3">
<path d="M322 353C322 351.895 322.895 351 324 351C325.105 351 326 351.895 326 353C326 354.105 325.105 355 324 355C322.895 355 322 354.105 322 353Z" fill="white"/>
</g>
<g opacity="0.3">
<path d="M363 378C363 376.895 363.895 376 365 376C366.105 376 367 376.895 367 378C367 379.105 366.105 380 365 380C363.895 380 363 379.105 363 378Z" fill="white"/>
</g>
</g>
<defs>
<linearGradient id="paint0_linear_278_2631" x1="206" y1="0" x2="206" y2="917" gradientUnits="userSpaceOnUse">
<stop stop-color="#4A148C" stop-opacity="0"/>
<stop offset="0.5" stop-color="#7B1FA2"/>
<stop offset="1" stop-color="#6A1B9A"/>
</linearGradient>
<clipPath id="clip0_278_2631">
<rect width="412" height="917" rx="30" transform="matrix(1 0 0 -1 0 917)" fill="white"/>
</clipPath>
</defs>
</svg>
