<svg width="412" height="917" viewBox="0 0 412 917" fill="none" xmlns="http://www.w3.org/2000/svg">
<rect width="412" height="917" fill="url(#paint0_linear_4_24960)"/>
<g opacity="0.4">
<path d="M271.688 47.6625C271.688 46.558 272.583 45.6625 273.688 45.6625C274.792 45.6625 275.688 46.558 275.688 47.6625C275.688 48.7671 274.792 49.6625 273.688 49.6625C272.583 49.6625 271.688 48.7671 271.688 47.6625Z" fill="white"/>
</g>
<g opacity="0.4">
<path d="M288.688 47.6625C288.688 46.558 289.583 45.6625 290.688 45.6625C291.792 45.6625 292.688 46.558 292.688 47.6625C292.688 48.7671 291.792 49.6625 290.688 49.6625C289.583 49.6625 288.688 48.7671 288.688 47.6625Z" fill="white"/>
</g>
<g opacity="0.4">
<path d="M229.688 35.6625C229.688 34.558 230.583 33.6625 231.688 33.6625C232.792 33.6625 233.688 34.558 233.688 35.6625C233.688 36.7671 232.792 37.6625 231.688 37.6625C230.583 37.6625 229.688 36.7671 229.688 35.6625Z" fill="white"/>
</g>
<g opacity="0.4">
<path d="M285.688 91.6625C285.688 90.558 286.583 89.6625 287.688 89.6625C288.792 89.6625 289.688 90.558 289.688 91.6625C289.688 92.7671 288.792 93.6625 287.688 93.6625C286.583 93.6625 285.688 92.7671 285.688 91.6625Z" fill="white"/>
</g>
<g opacity="0.4">
<path d="M262.688 76.6625C262.688 75.558 263.583 74.6625 264.688 74.6625C265.792 74.6625 266.688 75.558 266.688 76.6625C266.688 77.7671 265.792 78.6625 264.688 78.6625C263.583 78.6625 262.688 77.7671 262.688 76.6625Z" fill="white"/>
</g>
<g opacity="0.4">
<path d="M243.688 113.663C243.688 112.558 244.583 111.663 245.688 111.663C246.792 111.663 247.688 112.558 247.688 113.663C247.688 114.767 246.792 115.663 245.688 115.663C244.583 115.663 243.688 114.767 243.688 113.663Z" fill="white"/>
</g>
<g opacity="0.4">
<path d="M1.47498 229.25C1.47498 228.145 2.37041 227.25 3.47498 227.25C4.57955 227.25 5.47498 228.145 5.47498 229.25C5.47498 230.355 4.57955 231.25 3.47498 231.25C2.37041 231.25 1.47498 230.355 1.47498 229.25Z" fill="white"/>
</g>
<g opacity="0.4">
<path d="M77.0375 201.013C77.0375 199.908 77.9329 199.013 79.0375 199.013C80.142 199.013 81.0375 199.908 81.0375 201.013C81.0375 202.117 80.142 203.013 79.0375 203.013C77.9329 203.013 77.0375 202.117 77.0375 201.013Z" fill="white"/>
</g>
<g opacity="0.4">
<path d="M58 187C58 185.895 58.8954 185 60 185C61.1046 185 62 185.895 62 187C62 188.105 61.1046 189 60 189C58.8954 189 58 188.105 58 187Z" fill="white"/>
</g>
<g opacity="0.4">
<path d="M76 169C76 167.895 76.8954 167 78 167C79.1046 167 80 167.895 80 169C80 170.105 79.1046 171 78 171C76.8954 171 76 170.105 76 169Z" fill="white"/>
</g>
<g opacity="0.4">
<path d="M33 168C33 166.895 33.8954 166 35 166C36.1046 166 37 166.895 37 168C37 169.105 36.1046 170 35 170C33.8954 170 33 169.105 33 168Z" fill="white"/>
</g>
<g opacity="0.4">
<path d="M238.012 4.26251C238.012 3.15794 238.908 2.26251 240.012 2.26251C241.117 2.26251 242.012 3.15794 242.012 4.26251C242.012 5.36708 241.117 6.26251 240.012 6.26251C238.908 6.26251 238.012 5.36708 238.012 4.26251Z" fill="white"/>
</g>
<g opacity="0.4">
<path d="M170.6 84C170.6 82.8954 171.495 82 172.6 82C173.705 82 174.6 82.8954 174.6 84C174.6 85.1046 173.705 86 172.6 86C171.495 86 170.6 85.1046 170.6 84Z" fill="white"/>
</g>
<g opacity="0.4">
<path d="M75.3375 105.013C75.3375 103.908 76.233 103.013 77.3375 103.013C78.4421 103.013 79.3375 103.908 79.3375 105.013C79.3375 106.117 78.4421 107.013 77.3375 107.013C76.233 107.013 75.3375 106.117 75.3375 105.013Z" fill="white"/>
</g>
<g opacity="0.4">
<path d="M136.75 225.6C136.75 224.495 137.645 223.6 138.75 223.6C139.855 223.6 140.75 224.495 140.75 225.6C140.75 226.705 139.855 227.6 138.75 227.6C137.645 227.6 136.75 226.705 136.75 225.6Z" fill="white"/>
</g>
<g opacity="0.4">
<path d="M335.838 110.062C335.838 108.958 336.733 108.062 337.838 108.062C338.942 108.062 339.838 108.958 339.838 110.062C339.838 111.167 338.942 112.062 337.838 112.062C336.733 112.062 335.838 111.167 335.838 110.062Z" fill="white"/>
</g>
<g opacity="0.4">
<path d="M300.438 15.9375C300.438 14.8329 301.333 13.9375 302.438 13.9375C303.542 13.9375 304.438 14.8329 304.438 15.9375C304.438 17.0421 303.542 17.9375 302.438 17.9375C301.333 17.9375 300.438 17.0421 300.438 15.9375Z" fill="white"/>
</g>
<g opacity="0.4">
<path d="M237.688 81.175C237.688 80.0705 238.583 79.175 239.688 79.175C240.792 79.175 241.688 80.0705 241.688 81.175C241.688 82.2796 240.792 83.175 239.688 83.175C238.583 83.175 237.688 82.2796 237.688 81.175Z" fill="white"/>
</g>
<g opacity="0.4">
<path d="M341.75 115.9C341.75 114.795 342.645 113.9 343.75 113.9C344.855 113.9 345.75 114.795 345.75 115.9C345.75 117.005 344.855 117.9 343.75 117.9C342.645 117.9 341.75 117.005 341.75 115.9Z" fill="white"/>
</g>
<g opacity="0.4">
<path d="M322.262 216.963C322.262 215.858 323.158 214.963 324.262 214.963C325.367 214.963 326.262 215.858 326.262 216.963C326.262 218.067 325.367 218.963 324.262 218.963C323.158 218.963 322.262 218.067 322.262 216.963Z" fill="white"/>
</g>
<g opacity="0.4">
<path d="M109.5 63.25C109.5 62.1454 110.395 61.25 111.5 61.25C112.605 61.25 113.5 62.1454 113.5 63.25C113.5 64.3546 112.605 65.25 111.5 65.25C110.395 65.25 109.5 64.3546 109.5 63.25Z" fill="white"/>
</g>
<g opacity="0.4">
<path d="M160.5 55.25C160.5 54.1454 161.395 53.25 162.5 53.25C163.605 53.25 164.5 54.1454 164.5 55.25C164.5 56.3546 163.605 57.25 162.5 57.25C161.395 57.25 160.5 56.3546 160.5 55.25Z" fill="white"/>
</g>
<g opacity="0.4">
<path d="M168.5 37.25C168.5 36.1454 169.395 35.25 170.5 35.25C171.605 35.25 172.5 36.1454 172.5 37.25C172.5 38.3546 171.605 39.25 170.5 39.25C169.395 39.25 168.5 38.3546 168.5 37.25Z" fill="white"/>
</g>
<g opacity="0.4">
<path d="M159.5 24.25C159.5 23.1454 160.395 22.25 161.5 22.25C162.605 22.25 163.5 23.1454 163.5 24.25C163.5 25.3546 162.605 26.25 161.5 26.25C160.395 26.25 159.5 25.3546 159.5 24.25Z" fill="white"/>
</g>
<g opacity="0.4">
<path d="M187.5 17.25C187.5 16.1454 188.395 15.25 189.5 15.25C190.605 15.25 191.5 16.1454 191.5 17.25C191.5 18.3546 190.605 19.25 189.5 19.25C188.395 19.25 187.5 18.3546 187.5 17.25Z" fill="white"/>
</g>
<g opacity="0.4">
<path d="M132.5 35.25C132.5 34.1454 133.395 33.25 134.5 33.25C135.605 33.25 136.5 34.1454 136.5 35.25C136.5 36.3546 135.605 37.25 134.5 37.25C133.395 37.25 132.5 36.3546 132.5 35.25Z" fill="white"/>
</g>
<g opacity="0.4">
<path d="M63.5 47.25C63.5 46.1454 64.3954 45.25 65.5 45.25C66.6046 45.25 67.5 46.1454 67.5 47.25C67.5 48.3546 66.6046 49.25 65.5 49.25C64.3954 49.25 63.5 48.3546 63.5 47.25Z" fill="white"/>
</g>
<g opacity="0.4">
<path d="M33.5 56.25C33.5 55.1454 34.3954 54.25 35.5 54.25C36.6046 54.25 37.5 55.1454 37.5 56.25C37.5 57.3546 36.6046 58.25 35.5 58.25C34.3954 58.25 33.5 57.3546 33.5 56.25Z" fill="white"/>
</g>
<g opacity="0.4">
<path d="M63.5 74.25C63.5 73.1454 64.3954 72.25 65.5 72.25C66.6046 72.25 67.5 73.1454 67.5 74.25C67.5 75.3546 66.6046 76.25 65.5 76.25C64.3954 76.25 63.5 75.3546 63.5 74.25Z" fill="white"/>
</g>
<g opacity="0.4">
<path d="M42.5 110.25C42.5 109.145 43.3954 108.25 44.5 108.25C45.6046 108.25 46.5 109.145 46.5 110.25C46.5 111.355 45.6046 112.25 44.5 112.25C43.3954 112.25 42.5 111.355 42.5 110.25Z" fill="white"/>
</g>
<g opacity="0.4">
<path d="M358.012 228.838C358.012 227.733 358.908 226.838 360.012 226.838C361.117 226.838 362.012 227.733 362.012 228.838C362.012 229.942 361.117 230.838 360.012 230.838C358.908 230.838 358.012 229.942 358.012 228.838Z" fill="white"/>
</g>
<g opacity="0.4">
<path d="M127.8 2.65002C127.8 1.54545 128.695 0.650024 129.8 0.650024C130.905 0.650024 131.8 1.54545 131.8 2.65002C131.8 3.75459 130.905 4.65002 129.8 4.65002C128.695 4.65002 127.8 3.75459 127.8 2.65002Z" fill="white"/>
</g>
<g opacity="0.4">
<path d="M21.7125 131.562C21.7125 130.458 22.608 129.562 23.7125 129.562C24.8171 129.562 25.7125 130.458 25.7125 131.562C25.7125 132.667 24.8171 133.562 23.7125 133.562C22.608 133.562 21.7125 132.667 21.7125 131.562Z" fill="white"/>
</g>
<g opacity="0.4">
<path d="M283.525 142.688C283.525 141.583 284.42 140.688 285.525 140.688C286.63 140.688 287.525 141.583 287.525 142.688C287.525 143.792 286.63 144.688 285.525 144.688C284.42 144.688 283.525 143.792 283.525 142.688Z" fill="white"/>
</g>
<g opacity="0.4">
<path d="M252.525 137.688C252.525 136.583 253.42 135.688 254.525 135.688C255.63 135.688 256.525 136.583 256.525 137.688C256.525 138.792 255.63 139.688 254.525 139.688C253.42 139.688 252.525 138.792 252.525 137.688Z" fill="white"/>
</g>
<g opacity="0.4">
<path d="M55.4375 141.138C55.4375 140.033 56.3329 139.138 57.4375 139.138C58.5421 139.138 59.4375 140.033 59.4375 141.138C59.4375 142.242 58.5421 143.138 57.4375 143.138C56.3329 143.138 55.4375 142.242 55.4375 141.138Z" fill="white"/>
</g>
<g opacity="0.4">
<path d="M199.338 44.4125C199.338 43.308 200.233 42.4125 201.338 42.4125C202.442 42.4125 203.338 43.308 203.338 44.4125C203.338 45.5171 202.442 46.4125 201.338 46.4125C200.233 46.4125 199.338 45.5171 199.338 44.4125Z" fill="white"/>
</g>
<g opacity="0.4">
<path d="M290.1 135.175C290.1 134.07 290.995 133.175 292.1 133.175C293.205 133.175 294.1 134.07 294.1 135.175C294.1 136.28 293.205 137.175 292.1 137.175C290.995 137.175 290.1 136.28 290.1 135.175Z" fill="white"/>
</g>
<g opacity="0.4">
<path d="M383.85 137.9C383.85 136.795 384.745 135.9 385.85 135.9C386.955 135.9 387.85 136.795 387.85 137.9C387.85 139.005 386.955 139.9 385.85 139.9C384.745 139.9 383.85 139.005 383.85 137.9Z" fill="white"/>
</g>
<g opacity="0.4">
<path d="M398.85 164.9C398.85 163.795 399.745 162.9 400.85 162.9C401.955 162.9 402.85 163.795 402.85 164.9C402.85 166.005 401.955 166.9 400.85 166.9C399.745 166.9 398.85 166.005 398.85 164.9Z" fill="white"/>
</g>
<g opacity="0.4">
<path d="M386.85 218.9C386.85 217.795 387.745 216.9 388.85 216.9C389.955 216.9 390.85 217.795 390.85 218.9C390.85 220.005 389.955 220.9 388.85 220.9C387.745 220.9 386.85 220.005 386.85 218.9Z" fill="white"/>
</g>
<g opacity="0.4">
<path d="M398.85 247.9C398.85 246.795 399.745 245.9 400.85 245.9C401.955 245.9 402.85 246.795 402.85 247.9C402.85 249.005 401.955 249.9 400.85 249.9C399.745 249.9 398.85 249.005 398.85 247.9Z" fill="white"/>
</g>
<g opacity="0.4">
<path d="M377.85 268.9C377.85 267.795 378.745 266.9 379.85 266.9C380.955 266.9 381.85 267.795 381.85 268.9C381.85 270.005 380.955 270.9 379.85 270.9C378.745 270.9 377.85 270.005 377.85 268.9Z" fill="white"/>
</g>
<g opacity="0.4">
<path d="M390.85 293.9C390.85 292.795 391.745 291.9 392.85 291.9C393.955 291.9 394.85 292.795 394.85 293.9C394.85 295.005 393.955 295.9 392.85 295.9C391.745 295.9 390.85 295.005 390.85 293.9Z" fill="white"/>
</g>
<g opacity="0.4">
<path d="M384.85 197.9C384.85 196.795 385.745 195.9 386.85 195.9C387.955 195.9 388.85 196.795 388.85 197.9C388.85 199.005 387.955 199.9 386.85 199.9C385.745 199.9 384.85 199.005 384.85 197.9Z" fill="white"/>
</g>
<g opacity="0.4">
<path d="M359.85 186.9C359.85 185.795 360.745 184.9 361.85 184.9C362.955 184.9 363.85 185.795 363.85 186.9C363.85 188.005 362.955 188.9 361.85 188.9C360.745 188.9 359.85 188.005 359.85 186.9Z" fill="white"/>
</g>
<g opacity="0.4">
<path d="M341.85 161.9C341.85 160.795 342.745 159.9 343.85 159.9C344.955 159.9 345.85 160.795 345.85 161.9C345.85 163.005 344.955 163.9 343.85 163.9C342.745 163.9 341.85 163.005 341.85 161.9Z" fill="white"/>
</g>
<g opacity="0.4">
<path d="M91.45 76.9375C91.45 75.8329 92.3454 74.9375 93.45 74.9375C94.5545 74.9375 95.45 75.8329 95.45 76.9375C95.45 78.0421 94.5545 78.9375 93.45 78.9375C92.3454 78.9375 91.45 78.0421 91.45 76.9375Z" fill="white"/>
</g>
<g opacity="0.4">
<path d="M270.787 37.2C270.787 36.0954 271.683 35.2 272.787 35.2C273.892 35.2 274.787 36.0954 274.787 37.2C274.787 38.3046 273.892 39.2 272.787 39.2C271.683 39.2 270.787 38.3046 270.787 37.2Z" fill="white"/>
</g>
<g opacity="0.4">
<path d="M214.762 147.175C214.762 146.07 215.658 145.175 216.762 145.175C217.867 145.175 218.762 146.07 218.762 147.175C218.762 148.28 217.867 149.175 216.762 149.175C215.658 149.175 214.762 148.28 214.762 147.175Z" fill="white"/>
</g>
<g opacity="0.4">
<path d="M316.3 65.3625C316.3 64.258 317.195 63.3625 318.3 63.3625C319.405 63.3625 320.3 64.258 320.3 65.3625C320.3 66.4671 319.405 67.3625 318.3 67.3625C317.195 67.3625 316.3 66.4671 316.3 65.3625Z" fill="white"/>
</g>
<g opacity="0.4">
<path d="M372.3 47.3625C372.3 46.258 373.195 45.3625 374.3 45.3625C375.405 45.3625 376.3 46.258 376.3 47.3625C376.3 48.4671 375.405 49.3625 374.3 49.3625C373.195 49.3625 372.3 48.4671 372.3 47.3625Z" fill="white"/>
</g>
<g opacity="0.4">
<path d="M360.3 60.3625C360.3 59.258 361.195 58.3625 362.3 58.3625C363.405 58.3625 364.3 59.258 364.3 60.3625C364.3 61.4671 363.405 62.3625 362.3 62.3625C361.195 62.3625 360.3 61.4671 360.3 60.3625Z" fill="white"/>
</g>
<g opacity="0.4">
<path d="M385.3 61.3625C385.3 60.258 386.195 59.3625 387.3 59.3625C388.405 59.3625 389.3 60.258 389.3 61.3625C389.3 62.4671 388.405 63.3625 387.3 63.3625C386.195 63.3625 385.3 62.4671 385.3 61.3625Z" fill="white"/>
</g>
<g opacity="0.4">
<path d="M336.3 43.3625C336.3 42.258 337.195 41.3625 338.3 41.3625C339.405 41.3625 340.3 42.258 340.3 43.3625C340.3 44.4671 339.405 45.3625 338.3 45.3625C337.195 45.3625 336.3 44.4671 336.3 43.3625Z" fill="white"/>
</g>
<g opacity="0.4">
<path d="M144.375 141.188C144.375 140.083 145.27 139.188 146.375 139.188C147.48 139.188 148.375 140.083 148.375 141.188C148.375 142.292 147.48 143.188 146.375 143.188C145.27 143.188 144.375 142.292 144.375 141.188Z" fill="white"/>
</g>
<g opacity="0.4">
<path d="M160.375 113.188C160.375 112.083 161.27 111.188 162.375 111.188C163.48 111.188 164.375 112.083 164.375 113.188C164.375 114.292 163.48 115.188 162.375 115.188C161.27 115.188 160.375 114.292 160.375 113.188Z" fill="white"/>
</g>
<g opacity="0.4">
<path d="M382.875 95.35C382.875 94.2455 383.77 93.35 384.875 93.35C385.98 93.35 386.875 94.2455 386.875 95.35C386.875 96.4546 385.98 97.35 384.875 97.35C383.77 97.35 382.875 96.4546 382.875 95.35Z" fill="white"/>
</g>
<g opacity="0.4">
<path d="M322.2 116.125C322.2 115.02 323.095 114.125 324.2 114.125C325.305 114.125 326.2 115.02 326.2 116.125C326.2 117.23 325.305 118.125 324.2 118.125C323.095 118.125 322.2 117.23 322.2 116.125Z" fill="white"/>
</g>
<g opacity="0.4">
<path d="M349.2 82.125C349.2 81.0204 350.095 80.125 351.2 80.125C352.305 80.125 353.2 81.0204 353.2 82.125C353.2 83.2296 352.305 84.125 351.2 84.125C350.095 84.125 349.2 83.2296 349.2 82.125Z" fill="white"/>
</g>
<g opacity="0.4">
<path d="M10.775 213.963C10.775 212.858 11.6705 211.963 12.775 211.963C13.8796 211.963 14.775 212.858 14.775 213.963C14.775 215.067 13.8796 215.963 12.775 215.963C11.6705 215.963 10.775 215.067 10.775 213.963Z" fill="white"/>
</g>
<g opacity="0.4">
<path d="M38.775 204.963C38.775 203.858 39.6705 202.963 40.775 202.963C41.8796 202.963 42.775 203.858 42.775 204.963C42.775 206.067 41.8796 206.963 40.775 206.963C39.6705 206.963 38.775 206.067 38.775 204.963Z" fill="white"/>
</g>
<g opacity="0.4">
<path d="M25.775 259.963C25.775 258.858 26.6705 257.963 27.775 257.963C28.8796 257.963 29.775 258.858 29.775 259.963C29.775 261.067 28.8796 261.963 27.775 261.963C26.6705 261.963 25.775 261.067 25.775 259.963Z" fill="white"/>
</g>
<g opacity="0.4">
<path d="M34.775 324.963C34.775 323.858 35.6705 322.963 36.775 322.963C37.8796 322.963 38.775 323.858 38.775 324.963C38.775 326.067 37.8796 326.963 36.775 326.963C35.6705 326.963 34.775 326.067 34.775 324.963Z" fill="white"/>
</g>
<g opacity="0.4">
<path d="M12.775 287.963C12.775 286.858 13.6705 285.963 14.775 285.963C15.8796 285.963 16.775 286.858 16.775 287.963C16.775 289.067 15.8796 289.963 14.775 289.963C13.6705 289.963 12.775 289.067 12.775 287.963Z" fill="white"/>
</g>
<g opacity="0.4">
<path d="M135.4 103.938C135.4 102.833 136.295 101.938 137.4 101.938C138.505 101.938 139.4 102.833 139.4 103.938C139.4 105.042 138.505 105.938 137.4 105.938C136.295 105.938 135.4 105.042 135.4 103.938Z" fill="white"/>
</g>
<g opacity="0.4">
<path d="M108.4 114.938C108.4 113.833 109.295 112.938 110.4 112.938C111.505 112.938 112.4 113.833 112.4 114.938C112.4 116.042 111.505 116.938 110.4 116.938C109.295 116.938 108.4 116.042 108.4 114.938Z" fill="white"/>
</g>
<g opacity="0.4">
<path d="M100.4 138.938C100.4 137.833 101.295 136.938 102.4 136.938C103.505 136.938 104.4 137.833 104.4 138.938C104.4 140.042 103.505 140.938 102.4 140.938C101.295 140.938 100.4 140.042 100.4 138.938Z" fill="white"/>
</g>
<defs>
<linearGradient id="paint0_linear_4_24960" x1="206" y1="0" x2="206" y2="917" gradientUnits="userSpaceOnUse">
<stop stop-color="#4A148C"/>
<stop offset="0.5" stop-color="#6A1B9A"/>
<stop offset="1" stop-opacity="0"/>
</linearGradient>
</defs>
</svg>
