<svg width="222" height="293" viewBox="0 0 222 293" fill="none" xmlns="http://www.w3.org/2000/svg">
<g filter="url(#filter0_d_503_888)">
<path d="M118.967 221.657C122.571 218.33 126.822 216.095 130.782 213.438C137.92 208.648 144.184 203.022 148.305 195.299C155.007 182.74 154.164 170.4 147.237 158.271C143.368 151.497 137.515 146.619 131.306 142.115C125.241 137.717 118.843 133.805 112.761 129.436C106.243 124.755 100.272 119.518 96.2016 112.443C93.8404 108.339 92.7106 103.857 92.3636 99.1898C92.1335 96.096 92.1284 92.9796 92.4963 89.8838C92.5526 89.4099 92.4019 89.0234 92.2256 88.6265C88.0209 79.1631 89.6529 70.3703 95.6112 62.2918C100.538 55.6112 107.238 51.6572 115.558 50.6179C117.782 50.3399 119.967 50.5767 122.153 51.0852C121.638 51.5721 120.999 51.5956 120.403 51.6927C110.221 53.3505 102.262 61.9634 100.835 72.203C99.0161 85.2507 108.623 95.3989 119.754 97.5115C127.688 99.0172 134.473 96.8436 139.972 90.8789C140.692 90.0977 141.268 89.1836 142.057 88.1358C142.199 89.4936 141.79 90.4629 141.411 91.4184C138.605 98.4837 133.203 102.517 125.995 104.204C116.15 106.506 107.495 103.707 99.6906 97.6502C98.3422 96.6037 97.1113 95.4266 95.6976 94.3806C96.3457 95.1883 96.9243 96.0657 97.6534 96.7922C101.854 100.978 105.394 105.725 109.173 110.268C113.707 115.719 118.94 120.428 124.441 124.86C130.682 129.888 137.015 134.809 142.634 140.559C149.679 147.769 154.791 156.08 156.582 166.105C158.445 176.538 156.339 186.367 151.401 195.659C147.941 202.171 142.692 207.002 136.823 211.26C135.876 211.948 134.946 212.66 134.001 213.367C134.262 213.694 134.484 213.544 134.653 213.477C140.695 211.074 146.631 208.474 151.381 203.84C153.609 201.667 155.269 199.115 156.207 196.123C156.298 195.832 156.412 195.546 156.532 195.265C156.561 195.198 156.659 195.16 156.79 195.059C157.479 195.951 157.378 197.028 157.508 198.029C157.83 200.526 157.702 203.016 157.155 205.468C156.079 210.285 152.682 212.895 148.352 214.601C143.902 216.353 139.188 217.26 134.695 218.866C128.691 221.012 122.865 223.506 117.97 227.743C115.015 230.301 112.737 233.377 111.013 236.875C110.865 237.175 110.846 237.571 110.443 237.696C109.618 234.956 114.112 226.468 118.967 221.657Z" fill="url(#paint0_linear_503_888)" stroke="#5B0E9C" stroke-opacity="0.5"/>
<path d="M108.661 199.167C107.204 200.06 105.72 200.744 104.589 201.953C103.361 203.264 102.252 205.893 102.193 206.5C102.1 206.44 101.86 207.5 101.787 208.182C101.714 208.863 101.439 210.058 102.545 210.631C103.291 211.017 103.321 211.615 102.658 212.06C102.022 212.488 102.048 213.051 102.028 213.664C101.972 215.368 102.181 217.079 101.879 218.776C101.805 219.193 101.777 219.655 101.05 219.983C101.05 215.833 101.285 211.818 100.478 207.771C100.173 208.182 100.173 209.167 100.173 210.234C100.191 213.167 100.39 217.166 100.478 219.983C100.481 220.076 100.328 218.738 100.173 218.946C99.6114 218.019 99.7207 217.04 99.627 216.15C98.7219 207.551 95.0517 200.566 87.9286 195.462C83.9469 192.609 79.9047 189.82 76.3739 186.382C70.8256 180.978 67.4035 174.464 66.1934 166.827C64.7033 157.424 67.2171 148.71 70.9707 140.238C72.4101 136.99 74.1499 133.902 76.2021 130.997C76.3699 130.759 76.4554 130.419 76.915 130.39C77.2049 130.843 76.8913 131.288 76.7917 131.699C76.0775 134.644 75.6362 137.635 75.58 140.654C75.398 150.443 78.941 158.761 85.7458 165.729C89.1862 169.252 93.1498 172.153 97.1013 175.055C103.544 179.788 109.739 184.779 114.484 191.318C117.838 195.94 120.5 200.875 121.139 206.674C121.527 210.196 120.845 213.639 120.388 217.108C120.191 218.608 119.302 219.48 118.476 220.5C117.822 220.119 118.011 219.584 118.007 219.136C117.981 216.685 117.527 212.5 117.527 212.167C117.527 211.5 115.447 211.099 116.86 210.167C116.86 210.167 117.486 210.024 117.525 209.5C117.58 208.782 117.566 207.032 117.525 206.697C117.212 204.075 115.818 202.155 113.669 200.73C112.612 200.03 111.494 199.419 110.459 198.69C109.657 198.125 109.28 198.857 108.661 199.167ZM81.8023 173.403C82.4937 173.043 82.3146 172.528 81.9456 172.106C81.3484 171.423 81.2172 170.791 81.7424 169.988C82.1537 169.36 81.9781 168.775 81.1334 168.938C79.9862 169.16 79.419 168.675 79.0435 167.699C78.9377 167.423 78.7592 167.125 78.3864 167.147C78.0219 167.167 77.7844 167.475 77.7874 167.751C77.8035 169.19 76.9362 169.705 75.6979 169.92C75.5229 169.951 75.3826 170.181 75.0014 170.518C76.7493 171.422 77.3506 172.915 77.233 174.852C78.2372 174.364 79.0335 173.943 79.789 174.792C80.3813 174.216 80.4462 173.026 81.8023 173.403ZM95.9456 191.497C96.716 192.067 96.9055 191.397 96.9738 190.916C97.1382 189.758 97.7063 189.125 98.8935 189.05C99.1471 189.034 99.4012 188.902 99.4905 188.551C99.4661 188.471 99.4682 188.302 99.3867 188.236C98.4976 187.517 97.7675 186.835 97.8923 185.448C97.9664 184.626 97.0515 184.478 96.442 185.011C95.7507 185.616 95.1252 185.637 94.2954 185.343C93.3323 185.002 92.7543 185.523 93.0612 186.446C93.3284 187.249 93.2304 187.862 92.7325 188.51C92.2297 189.165 92.3685 189.809 93.2417 189.741C94.5939 189.636 95.2086 190.445 95.9456 191.497ZM100.901 205.008C100.874 205.289 100.669 205.606 101.05 205.809C101.376 205.721 101.392 205.433 101.473 205.196C102.347 202.632 104.023 200.755 106.356 199.416C107.341 198.851 108.316 198.258 109.236 197.596C109.734 197.237 110.047 197.349 110.514 197.627C113.597 199.464 116.826 201.126 118.424 204.671C118.283 202.684 117.196 201.275 115.781 200.075C114.168 198.708 112.226 197.844 110.496 196.656C110.028 196.335 109.677 196.5 109.294 196.719C107.739 197.609 106.112 198.4 104.654 199.429C102.787 200.747 101.463 202.534 100.901 205.008ZM118.86 214.5C118.63 219.136 118.527 219.167 119.193 219.167C119.86 219.167 119.912 208.832 119.527 207.771C119.437 208.482 119.193 207.771 118.86 214.5Z" fill="url(#paint1_linear_503_888)" stroke="#5B0E9C" stroke-opacity="0.5"/>
<path d="M88.1072 114.415C85.2455 127.127 86.3005 139.131 93.693 150.115C96.9285 154.922 101.247 158.724 105.526 162.552C112.308 168.621 118.226 175.35 122.006 183.762C126.035 192.728 126.666 201.882 123.745 211.273C123.668 211.523 123.578 211.772 123.465 212.007C123.415 212.112 123.291 212.183 123.216 212.255C122.939 212.232 122.914 212.041 122.935 211.872C124.515 199.102 119.987 188.537 111.245 179.493C106.926 175.026 101.846 171.503 96.8471 167.876C92.3604 164.621 88.1712 161.037 84.947 156.471C79.0154 148.073 77.4232 138.82 79.6982 128.864C81.4705 121.108 85.0663 114.183 89.5474 107.677C89.6722 107.496 89.7992 107.319 90.2152 107.309C89.4488 109.656 88.6684 111.949 88.1072 114.415Z" fill="url(#paint2_linear_503_888)" stroke="#5B0E9C" stroke-opacity="0.5"/>
<path d="M86.1039 212.945C93.9489 215.949 100.516 220.458 105.188 227.47C107.125 230.377 108.44 233.557 109.516 236.853C109.593 237.087 109.726 237.355 109.427 237.546C109.195 237.596 109.097 237.427 109.023 237.281C105.276 229.841 99.0878 225.107 91.7149 221.702C86.6388 219.357 81.214 218.113 75.8276 216.754C74.1709 216.336 72.5427 215.819 70.9797 215.129C65.5848 212.744 63.3673 208.633 63.7393 202.967C64.0237 198.636 65.5116 194.603 67.5916 190.8C67.8089 190.403 67.9527 189.904 68.6391 189.676C68.5978 190.417 68.5798 191.082 68.5209 191.744C68.0562 196.968 69.9379 201.325 73.3849 205.139C76.1837 208.235 79.6869 210.24 83.4743 211.832C84.3209 212.188 85.1645 212.551 86.1039 212.945Z" fill="url(#paint3_linear_503_888)" stroke="#5B0E9C" stroke-opacity="0.5"/>
<path d="M94.8497 230.993C100.628 233.572 105.88 236.731 109.949 241.767C111.438 240.011 112.942 238.505 114.634 237.182C120.946 232.248 128.202 229.434 135.915 227.644C141.74 226.292 147.651 225.684 153.63 225.821C157.048 225.9 160.451 226.289 163.791 226.964C166.126 227.435 168.111 228.927 170.527 229.573C169.883 230.808 169.078 231.552 168.4 232.389C168.046 232.826 167.593 232.577 167.185 232.451C157.656 229.504 147.953 228.957 138.105 230.306C129.528 231.481 121.468 234.043 114.316 239.067C113.206 239.846 112.094 240.638 111.084 241.538C110.252 242.279 109.643 242.219 108.818 241.526C103.262 236.868 96.9595 233.623 89.9518 231.77C83.3888 230.035 76.7297 229.354 69.9314 229.763C65.2401 230.045 60.6275 230.724 56.0482 231.719C55.7062 231.793 55.366 231.878 55.0284 231.971C52.2217 232.74 51.9173 232.601 50.5266 229.898C50.5912 229.601 50.8293 229.485 51.0762 229.386C54.6438 227.967 58.2025 226.657 62.1053 226.273C73.3938 225.164 84.28 226.558 94.8497 230.993Z" fill="url(#paint4_linear_503_888)" stroke="#5B0E9C" stroke-opacity="0.5"/>
<path d="M125.24 225.807C132.808 221.592 140.943 219.483 149.328 218.151C153.039 217.561 156.731 216.857 160.477 216.497C161.058 216.441 161.633 216.446 162.152 216.674C162.78 216.951 163.144 217.367 162.632 218.109C161.283 220.062 161.316 220.232 163.006 221.912C163.242 222.146 163.598 222.318 163.515 222.867C161.855 223.279 160.189 222.784 158.528 222.683C143.76 221.792 129.894 224.588 117.337 232.718C116.068 233.54 114.963 234.614 113.753 235.596C113.962 233.858 119.444 229.197 125.24 225.807Z" fill="url(#paint5_linear_503_888)" stroke="#5B0E9C" stroke-opacity="0.5"/>
<path d="M99.0956 230.475C91.6566 226.416 83.8024 223.98 75.4805 223.094C70.7161 222.587 65.954 222.905 61.2026 223.403C59.7283 223.558 58.2493 223.7 56.796 223.173C56.8071 222.342 57.5044 222.051 57.9099 221.578C58.5504 220.83 58.7773 220.18 58.1356 219.254C57.2349 217.955 57.7282 217.14 59.3633 217.106C63.4552 217.02 67.4663 217.725 71.4753 218.414C78.9215 219.695 86.1488 221.692 93.0284 224.885C98.174 227.272 102.319 230.931 106.204 234.948C106.293 235.041 106.37 235.153 106.425 235.269C106.456 235.335 106.43 235.429 106.43 235.825C104.113 233.706 101.744 231.973 99.0956 230.475Z" fill="url(#paint6_linear_503_888)" stroke="#5B0E9C" stroke-opacity="0.5"/>
<path d="M115.341 78.8959C113.483 77.68 111.966 76.2477 110.782 74.4731C110.254 73.6811 110.395 71.9711 111.02 71.2951C111.327 70.9623 111.64 70.9978 111.95 71.2202C112.788 71.822 113.749 72.2926 113.837 73.5555C113.89 74.3149 114.614 74.6921 115.156 75.1064C116.477 76.1159 117.881 77.0189 119.176 78.0577C121.745 80.1165 121.899 82.8318 119.399 84.9853C116.84 87.1892 113.888 88.6895 110.39 88.7613C109.3 88.7837 108.43 88.3397 107.845 87.4143C106.727 85.6497 107.438 81.2155 109.139 79.6846C109.205 80.5489 108.857 81.2683 108.7 82.0087C108.552 82.7051 108.466 83.3959 108.566 84.0907C108.784 85.613 109.646 86.3864 111.168 86.2135C113.939 85.8984 116.316 84.5845 118.525 82.9694C119.238 82.4484 118.934 81.7955 118.422 81.2791C117.525 80.3728 116.467 79.6655 115.341 78.8959Z" fill="url(#paint7_linear_503_888)" stroke="#5B0E9C"/>
<path d="M100.299 128.183C100.643 127.797 100.951 127.694 101.255 128.061C101.423 128.264 101.598 128.491 101.673 128.736C102.336 130.919 103.896 131.671 106.065 131.706C107.327 131.726 107.503 132.298 106.73 133.314C106.649 133.42 106.576 133.543 106.471 133.617C104.808 134.784 104.476 136.287 105.242 138.13C105.441 138.607 105.524 139.217 105.028 139.614C104.556 139.991 104.106 139.578 103.656 139.443C103.571 139.418 103.48 139.391 103.41 139.34C101.854 138.198 100.325 138.349 98.7579 139.357C98.309 139.646 97.7434 140.109 97.1782 139.618C96.7255 139.224 96.812 138.599 96.9672 138.108C97.5585 136.236 97.0112 134.846 95.3822 133.78C94.9281 133.483 94.3486 133.062 94.5788 132.385C94.8037 131.724 95.5204 131.668 96.0559 131.725C98.6808 132.008 99.3958 130.072 100.299 128.183Z" fill="url(#paint8_linear_503_888)" stroke="#E5E7EB"/>
<path d="M114.358 141.477C114.665 141.135 114.941 141.043 115.213 141.369C115.363 141.55 115.521 141.751 115.587 141.969C116.181 143.909 117.576 144.578 119.517 144.609C120.646 144.627 120.804 145.136 120.112 146.038C120.04 146.133 119.975 146.242 119.88 146.308C118.392 147.345 118.096 148.681 118.781 150.319C118.958 150.743 119.033 151.286 118.589 151.638C118.167 151.973 117.764 151.607 117.362 151.487C117.286 151.464 117.204 151.44 117.142 151.395C115.749 150.38 114.382 150.514 112.979 151.41C112.578 151.667 112.071 152.079 111.566 151.642C111.161 151.292 111.238 150.736 111.377 150.299C111.906 148.636 111.416 147.4 109.959 146.453C109.552 146.189 109.034 145.814 109.24 145.213C109.441 144.625 110.082 144.575 110.562 144.626C112.91 144.877 113.55 143.157 114.358 141.477Z" fill="url(#paint9_linear_503_888)" stroke="#E5E7EB"/>
<path d="M125.083 152.772C125.355 152.472 125.599 152.391 125.838 152.677C125.971 152.835 126.11 153.011 126.168 153.202C126.692 154.9 127.923 155.485 129.636 155.512C130.632 155.528 130.771 155.973 130.161 156.763C130.097 156.845 130.04 156.941 129.956 156.999C128.643 157.906 128.382 159.075 128.986 160.509C129.143 160.88 129.209 161.354 128.817 161.663C128.445 161.956 128.089 161.635 127.734 161.53C127.667 161.51 127.595 161.49 127.54 161.45C126.311 160.562 125.105 160.679 123.867 161.463C123.513 161.688 123.066 162.048 122.62 161.666C122.263 161.36 122.331 160.873 122.453 160.491C122.92 159.036 122.488 157.954 121.202 157.125C120.844 156.894 120.386 156.567 120.568 156.04C120.745 155.526 121.311 155.482 121.734 155.527C123.806 155.747 124.371 154.241 125.083 152.772Z" fill="url(#paint10_linear_503_888)" stroke="#E5E7EB"/>
<path d="M134.476 165.4C134.711 165.143 134.922 165.074 135.13 165.318C135.245 165.454 135.365 165.605 135.416 165.768C135.87 167.224 136.937 167.725 138.421 167.748C139.285 167.762 139.405 168.143 138.876 168.82C138.821 168.891 138.771 168.973 138.699 169.023C137.561 169.801 137.334 170.802 137.858 172.031C137.994 172.349 138.051 172.756 137.712 173.02C137.389 173.272 137.081 172.997 136.773 172.907C136.715 172.89 136.653 172.872 136.605 172.838C135.54 172.077 134.494 172.177 133.422 172.849C133.115 173.042 132.728 173.351 132.341 173.023C132.031 172.761 132.09 172.344 132.197 172.016C132.601 170.769 132.227 169.842 131.112 169.131C130.801 168.933 130.405 168.652 130.562 168.201C130.716 167.76 131.207 167.723 131.573 167.761C133.369 167.95 133.858 166.659 134.476 165.4Z" fill="url(#paint11_linear_503_888)" stroke="#E5E7EB"/>
<g filter="url(#filter1_d_503_888)">
<path d="M116.736 139.02C116.467 139.646 116.101 139.985 115.482 139.691C115.139 139.528 114.982 139.202 115.044 138.814C115.114 138.376 115.381 138.076 115.824 138.059C116.389 138.036 116.72 138.342 116.736 139.02Z" fill="url(#paint12_linear_503_888)" shape-rendering="crispEdges"/>
<path d="M116.736 139.02C116.467 139.646 116.101 139.985 115.482 139.691C115.139 139.528 114.982 139.202 115.044 138.814C115.114 138.376 115.381 138.076 115.824 138.059C116.389 138.036 116.72 138.342 116.736 139.02Z" stroke="#5B0E9C" stroke-opacity="0.5" shape-rendering="crispEdges"/>
</g>
<path d="M128.972 70.5239C129.188 70.5554 129.406 70.5767 129.62 70.62C132.169 71.1379 132.221 71.1935 131.687 73.7159C131.358 75.2702 131.878 76.7194 132.627 77.9139C135.318 82.2093 135.103 85.2468 131.32 88.563C127.615 91.8096 123.13 93.1392 118.255 93.2551C118.09 93.2591 117.924 93.2013 117.728 93.1671C117.881 92.5097 118.46 92.5391 118.859 92.3767C122.636 90.8408 126.355 89.2071 129.715 86.844C132.853 84.6365 132.987 83.8847 130.624 80.9312C130.052 80.2169 129.456 79.5187 129.087 78.6531C128.262 76.7122 129.758 74.9497 131.527 73.8333C131.402 73.287 129.909 73.3449 129.497 73.29C128.88 73.2078 128.228 73.2114 128.002 72.4731C127.754 71.6623 128.267 71.1585 128.876 70.6094C128.949 70.5382 128.972 70.5239 128.972 70.5239Z" fill="url(#paint13_linear_503_888)" stroke="#5B0E9C"/>
<path d="M124.543 81.2959C124.538 83.5523 124.338 85.6298 122.978 87.4014C122.585 87.9132 122.168 88.401 121.194 88.5112C122.589 85.6552 122.387 82.7586 122.263 79.8991C122.039 74.7434 121.782 69.5867 121.192 64.4552C121.152 64.1084 121.123 63.7393 120.982 63.4284C120.197 61.6878 121.307 60.6738 122.492 59.4165C123.586 61.1514 124.85 62.8526 124.612 64.7236C124.452 65.9778 123.944 67.2286 124.055 68.5742C124.399 72.7644 124.573 76.962 124.543 81.2959Z" fill="url(#paint14_linear_503_888)" stroke="#5B0E9C"/>
<path d="M110.408 216.761C110.193 217.5 110.193 217.5 109.911 218.517C109.36 216.841 108.979 215.253 108.193 213.833C107.392 212.387 106.467 211.591 104.631 210.666C108.064 209.809 109.127 207.402 110.021 204.707C110.739 207.502 112.059 209.696 115.06 210.776C112.028 211.692 110.408 216.761 110.408 216.761Z" fill="url(#paint15_linear_503_888)" stroke="#5B0E9C" stroke-opacity="0.5"/>
<path d="M128.71 69.4975C127.666 68.7217 127.582 68.0201 128.467 67.1884C129.255 66.4491 130.253 66.1172 131.278 65.8725C131.582 65.8001 131.919 65.7969 132.071 66.1414C132.221 66.4804 131.985 66.7267 131.752 66.923C131.59 67.0598 131.388 67.1831 131.185 67.2309C130.342 67.4292 129.642 67.7246 129.508 68.7458C129.477 68.9757 129.086 69.1581 128.803 69.419C128.745 69.4756 128.721 69.4898 128.71 69.4975Z" fill="url(#paint16_linear_503_888)" stroke="#5B0E9C"/>
<path d="M117.606 67.7353C118.285 68.6255 118.211 69.4341 117.574 70.1913C117.278 70.5428 116.871 70.7194 116.398 70.5533C116 70.4132 115.732 70.1175 115.644 69.7113C115.535 69.203 115.731 68.8614 116.284 68.7825C116.944 68.6882 116.466 67.312 117.606 67.7353Z" fill="url(#paint17_linear_503_888)" stroke="#5B0E9C"/>
<g filter="url(#filter2_d_503_888)">
<path d="M146.302 178.512C145.564 178.184 145.274 177.709 145.591 177.025C145.786 176.603 146.159 176.353 146.641 176.435C147.115 176.515 147.397 176.831 147.44 177.323C147.497 177.993 147.172 178.381 146.529 178.524C146.488 178.533 146.443 178.53 146.302 178.512Z" fill="url(#paint18_linear_503_888)" shape-rendering="crispEdges"/>
<path d="M146.302 178.512C145.564 178.184 145.274 177.709 145.591 177.025C145.786 176.603 146.159 176.353 146.641 176.435C147.115 176.515 147.397 176.831 147.44 177.323C147.497 177.993 147.172 178.381 146.529 178.524C146.488 178.533 146.443 178.53 146.302 178.512Z" stroke="#5B0E9C" stroke-opacity="0.5" shape-rendering="crispEdges"/>
</g>
<g filter="url(#filter3_d_503_888)">
<path d="M144.968 171.846C144.231 171.517 143.941 171.043 144.258 170.358C144.453 169.936 144.826 169.686 145.308 169.768C145.782 169.848 146.064 170.164 146.106 170.657C146.164 171.326 145.838 171.714 145.196 171.857C145.154 171.866 145.11 171.864 144.968 171.846Z" fill="url(#paint19_linear_503_888)" shape-rendering="crispEdges"/>
<path d="M144.968 171.846C144.231 171.517 143.941 171.043 144.258 170.358C144.453 169.936 144.826 169.686 145.308 169.768C145.782 169.848 146.064 170.164 146.106 170.657C146.164 171.326 145.838 171.714 145.196 171.857C145.154 171.866 145.11 171.864 144.968 171.846Z" stroke="#5B0E9C" stroke-opacity="0.5" shape-rendering="crispEdges"/>
</g>
<g filter="url(#filter4_d_503_888)">
<path d="M146.302 183.846C145.564 183.517 145.274 183.043 145.591 182.358C145.786 181.936 146.159 181.686 146.641 181.768C147.115 181.848 147.397 182.164 147.44 182.657C147.497 183.326 147.172 183.714 146.529 183.857C146.488 183.866 146.443 183.864 146.302 183.846Z" fill="url(#paint20_linear_503_888)" shape-rendering="crispEdges"/>
<path d="M146.302 183.846C145.564 183.517 145.274 183.043 145.591 182.358C145.786 181.936 146.159 181.686 146.641 181.768C147.115 181.848 147.397 182.164 147.44 182.657C147.497 183.326 147.172 183.714 146.529 183.857C146.488 183.866 146.443 183.864 146.302 183.846Z" stroke="#5B0E9C" stroke-opacity="0.5" shape-rendering="crispEdges"/>
</g>
<g filter="url(#filter5_d_503_888)">
<path d="M134.853 204.774C135.336 205.421 135.246 205.932 134.656 206.285C134.246 206.531 133.808 206.457 133.463 206.1C133.153 205.779 133.102 205.377 133.327 205.017C133.682 204.449 134.183 204.309 134.853 204.774Z" fill="url(#paint21_linear_503_888)" shape-rendering="crispEdges"/>
<path d="M134.853 204.774C135.336 205.421 135.246 205.932 134.656 206.285C134.246 206.531 133.808 206.457 133.463 206.1C133.153 205.779 133.102 205.377 133.327 205.017C133.682 204.449 134.183 204.309 134.853 204.774Z" stroke="#5B0E9C" stroke-opacity="0.5" shape-rendering="crispEdges"/>
</g>
<g filter="url(#filter6_d_503_888)">
<path d="M132.192 208.113C132.674 208.76 132.584 209.27 131.994 209.624C131.585 209.869 131.146 209.796 130.801 209.438C130.491 209.118 130.441 208.715 130.665 208.356C131.02 207.788 131.521 207.647 132.192 208.113Z" fill="url(#paint22_linear_503_888)" shape-rendering="crispEdges"/>
<path d="M132.192 208.113C132.674 208.76 132.584 209.27 131.994 209.624C131.585 209.869 131.146 209.796 130.801 209.438C130.491 209.118 130.441 208.715 130.665 208.356C131.02 207.788 131.521 207.647 132.192 208.113Z" stroke="#5B0E9C" stroke-opacity="0.5" shape-rendering="crispEdges"/>
</g>
<g filter="url(#filter7_d_503_888)">
<path d="M122.07 143.02C121.801 143.646 121.434 143.985 120.816 143.691C120.472 143.528 120.316 143.202 120.378 142.814C120.448 142.376 120.714 142.076 121.157 142.059C121.723 142.036 122.054 142.342 122.07 143.02Z" fill="url(#paint23_linear_503_888)" shape-rendering="crispEdges"/>
<path d="M122.07 143.02C121.801 143.646 121.434 143.985 120.816 143.691C120.472 143.528 120.316 143.202 120.378 142.814C120.448 142.376 120.714 142.076 121.157 142.059C121.723 142.036 122.054 142.342 122.07 143.02Z" stroke="#5B0E9C" stroke-opacity="0.5" shape-rendering="crispEdges"/>
</g>
<g filter="url(#filter8_d_503_888)">
<path d="M136.232 199.463C135.963 200.088 135.596 200.427 134.978 200.133C134.634 199.97 134.478 199.644 134.54 199.256C134.61 198.819 134.877 198.519 135.319 198.501C135.885 198.479 136.216 198.784 136.232 199.463Z" fill="url(#paint24_linear_503_888)" shape-rendering="crispEdges"/>
<path d="M136.232 199.463C135.963 200.088 135.596 200.427 134.978 200.133C134.634 199.97 134.478 199.644 134.54 199.256C134.61 198.819 134.877 198.519 135.319 198.501C135.885 198.479 136.216 198.784 136.232 199.463Z" stroke="#5B0E9C" stroke-opacity="0.5" shape-rendering="crispEdges"/>
</g>
<g filter="url(#filter9_d_503_888)">
<path d="M136.232 192.129C135.963 192.755 135.596 193.094 134.978 192.8C134.634 192.637 134.478 192.311 134.54 191.923C134.61 191.485 134.877 191.185 135.319 191.168C135.885 191.145 136.216 191.451 136.232 192.129Z" fill="url(#paint25_linear_503_888)" shape-rendering="crispEdges"/>
<path d="M136.232 192.129C135.963 192.755 135.596 193.094 134.978 192.8C134.634 192.637 134.478 192.311 134.54 191.923C134.61 191.485 134.877 191.185 135.319 191.168C135.885 191.145 136.216 191.451 136.232 192.129Z" stroke="#5B0E9C" stroke-opacity="0.5" shape-rendering="crispEdges"/>
</g>
<g filter="url(#filter10_d_503_888)">
<path d="M111.403 135.02C111.134 135.646 110.768 135.985 110.149 135.691C109.806 135.528 109.649 135.202 109.711 134.814C109.781 134.376 110.048 134.076 110.491 134.059C111.056 134.036 111.387 134.342 111.403 135.02Z" fill="url(#paint26_linear_503_888)" shape-rendering="crispEdges"/>
<path d="M111.403 135.02C111.134 135.646 110.768 135.985 110.149 135.691C109.806 135.528 109.649 135.202 109.711 134.814C109.781 134.376 110.048 134.076 110.491 134.059C111.056 134.036 111.387 134.342 111.403 135.02Z" stroke="#5B0E9C" stroke-opacity="0.5" shape-rendering="crispEdges"/>
</g>
<g filter="url(#filter11_d_503_888)">
<path d="M102.131 144.069C102.541 144.705 102.384 145.168 101.858 145.479C101.531 145.671 101.17 145.584 100.902 145.293C100.642 145.009 100.562 144.652 100.736 144.318C101.039 143.738 101.515 143.678 102.131 144.069Z" fill="url(#paint27_linear_503_888)" shape-rendering="crispEdges"/>
<path d="M102.131 144.069C102.541 144.705 102.384 145.168 101.858 145.479C101.531 145.671 101.17 145.584 100.902 145.293C100.642 145.009 100.562 144.652 100.736 144.318C101.039 143.738 101.515 143.678 102.131 144.069Z" stroke="#5B0E9C" stroke-opacity="0.5" shape-rendering="crispEdges"/>
</g>
<g filter="url(#filter12_d_503_888)">
<path d="M130.923 152.025C131.632 151.709 132.01 152.004 132.197 152.567C132.337 152.987 132.124 153.321 131.76 153.546C131.417 153.759 131.085 153.687 130.813 153.429C130.343 152.981 130.408 152.522 130.923 152.025Z" fill="url(#paint28_linear_503_888)" shape-rendering="crispEdges"/>
<path d="M130.923 152.025C131.632 151.709 132.01 152.004 132.197 152.567C132.337 152.987 132.124 153.321 131.76 153.546C131.417 153.759 131.085 153.687 130.813 153.429C130.343 152.981 130.408 152.522 130.923 152.025Z" stroke="#5B0E9C" stroke-opacity="0.5" shape-rendering="crispEdges"/>
</g>
<g filter="url(#filter13_d_503_888)">
<path d="M136.923 158.692C137.632 158.376 138.01 158.671 138.197 159.234C138.337 159.654 138.124 159.987 137.76 160.213C137.417 160.425 137.085 160.354 136.813 160.095C136.343 159.648 136.408 159.188 136.923 158.692Z" fill="url(#paint29_linear_503_888)" shape-rendering="crispEdges"/>
<path d="M136.923 158.692C137.632 158.376 138.01 158.671 138.197 159.234C138.337 159.654 138.124 159.987 137.76 160.213C137.417 160.425 137.085 160.354 136.813 160.095C136.343 159.648 136.408 159.188 136.923 158.692Z" stroke="#5B0E9C" stroke-opacity="0.5" shape-rendering="crispEdges"/>
</g>
<path d="M126.287 146.629C126.996 146.314 127.374 146.608 127.562 147.172C127.701 147.591 127.489 147.925 127.124 148.15C126.781 148.363 126.449 148.291 126.177 148.033C125.707 147.586 125.772 147.126 126.287 146.629Z" fill="url(#paint30_linear_503_888)" stroke="#5B0E9C" stroke-opacity="0.5"/>
<g filter="url(#filter14_d_503_888)">
<path d="M140.923 164.025C141.632 163.709 142.01 164.004 142.197 164.567C142.337 164.987 142.124 165.321 141.76 165.546C141.417 165.759 141.085 165.687 140.813 165.429C140.343 164.981 140.408 164.522 140.923 164.025Z" fill="url(#paint31_linear_503_888)" shape-rendering="crispEdges"/>
<path d="M140.923 164.025C141.632 163.709 142.01 164.004 142.197 164.567C142.337 164.987 142.124 165.321 141.76 165.546C141.417 165.759 141.085 165.687 140.813 165.429C140.343 164.981 140.408 164.522 140.923 164.025Z" stroke="#5B0E9C" stroke-opacity="0.5" shape-rendering="crispEdges"/>
</g>
<g filter="url(#filter15_d_503_888)">
<path d="M138.452 202.551C137.603 202.786 137.294 202.408 137.413 201.707C137.482 201.296 137.851 200.995 138.284 201.168C138.988 201.451 138.993 201.952 138.452 202.551Z" fill="url(#paint32_linear_503_888)" shape-rendering="crispEdges"/>
<path d="M138.452 202.551C137.603 202.786 137.294 202.408 137.413 201.707C137.482 201.296 137.851 200.995 138.284 201.168C138.988 201.451 138.993 201.952 138.452 202.551Z" stroke="#5B0E9C" stroke-opacity="0.5" shape-rendering="crispEdges"/>
</g>
<g filter="url(#filter16_d_503_888)">
<path d="M141.785 197.884C140.937 198.119 140.627 197.741 140.746 197.04C140.815 196.63 141.184 196.328 141.617 196.502C142.321 196.784 142.326 197.285 141.785 197.884Z" fill="url(#paint33_linear_503_888)" shape-rendering="crispEdges"/>
<path d="M141.785 197.884C140.937 198.119 140.627 197.741 140.746 197.04C140.815 196.63 141.184 196.328 141.617 196.502C142.321 196.784 142.326 197.285 141.785 197.884Z" stroke="#5B0E9C" stroke-opacity="0.5" shape-rendering="crispEdges"/>
</g>
<g filter="url(#filter17_d_503_888)">
<path d="M143.785 193.884C142.937 194.119 142.627 193.741 142.746 193.04C142.815 192.63 143.184 192.328 143.617 192.502C144.321 192.784 144.326 193.285 143.785 193.884Z" fill="url(#paint34_linear_503_888)" shape-rendering="crispEdges"/>
<path d="M143.785 193.884C142.937 194.119 142.627 193.741 142.746 193.04C142.815 192.63 143.184 192.328 143.617 192.502C144.321 192.784 144.326 193.285 143.785 193.884Z" stroke="#5B0E9C" stroke-opacity="0.5" shape-rendering="crispEdges"/>
</g>
<g filter="url(#filter18_d_503_888)">
<path d="M145.785 189.217C144.937 189.452 144.627 189.074 144.746 188.373C144.815 187.963 145.184 187.662 145.617 187.835C146.321 188.118 146.326 188.618 145.785 189.217Z" fill="url(#paint35_linear_503_888)" shape-rendering="crispEdges"/>
<path d="M145.785 189.217C144.937 189.452 144.627 189.074 144.746 188.373C144.815 187.963 145.184 187.662 145.617 187.835C146.321 188.118 146.326 188.618 145.785 189.217Z" stroke="#5B0E9C" stroke-opacity="0.5" shape-rendering="crispEdges"/>
</g>
<path d="M129.799 173.222C129.573 173.93 129.173 174.166 128.611 173.744C128.228 173.457 128.258 173.015 128.606 172.734C129.146 172.297 129.563 172.497 129.799 173.222Z" fill="url(#paint36_linear_503_888)" stroke="#5B0E9C" stroke-opacity="0.5"/>
<g filter="url(#filter19_d_503_888)">
<path d="M133.132 179.222C132.907 179.93 132.507 180.166 131.944 179.744C131.561 179.457 131.591 179.015 131.939 178.734C132.479 178.297 132.897 178.497 133.132 179.222Z" fill="url(#paint37_linear_503_888)" shape-rendering="crispEdges"/>
<path d="M133.132 179.222C132.907 179.93 132.507 180.166 131.944 179.744C131.561 179.457 131.591 179.015 131.939 178.734C132.479 178.297 132.897 178.497 133.132 179.222Z" stroke="#5B0E9C" stroke-opacity="0.5" shape-rendering="crispEdges"/>
</g>
<g filter="url(#filter20_d_503_888)">
<path d="M135.334 185.329C135.078 186.144 134.623 186.416 133.983 185.93C133.547 185.6 133.581 185.092 133.976 184.768C134.591 184.266 135.066 184.496 135.334 185.329Z" fill="url(#paint38_linear_503_888)" shape-rendering="crispEdges"/>
<path d="M135.334 185.329C135.078 186.144 134.623 186.416 133.983 185.93C133.547 185.6 133.581 185.092 133.976 184.768C134.591 184.266 135.066 184.496 135.334 185.329Z" stroke="#5B0E9C" stroke-opacity="0.5" shape-rendering="crispEdges"/>
</g>
<g filter="url(#filter21_d_503_888)">
<path d="M124.857 166.065C125.528 166.531 125.552 167.027 124.971 167.44C124.619 167.69 124.174 167.578 124.006 167.151C123.736 166.467 124.048 166.093 124.857 166.065Z" fill="url(#paint39_linear_503_888)" shape-rendering="crispEdges"/>
<path d="M124.857 166.065C125.528 166.531 125.552 167.027 124.971 167.44C124.619 167.69 124.174 167.578 124.006 167.151C123.736 166.467 124.048 166.093 124.857 166.065Z" stroke="#5B0E9C" stroke-opacity="0.5" shape-rendering="crispEdges"/>
</g>
<g filter="url(#filter22_d_503_888)">
<path d="M119.523 160.732C120.195 161.198 120.218 161.693 119.638 162.106C119.286 162.357 118.84 162.244 118.672 161.818C118.403 161.134 118.715 160.76 119.523 160.732Z" fill="url(#paint40_linear_503_888)" shape-rendering="crispEdges"/>
<path d="M119.523 160.732C120.195 161.198 120.218 161.693 119.638 162.106C119.286 162.357 118.84 162.244 118.672 161.818C118.403 161.134 118.715 160.76 119.523 160.732Z" stroke="#5B0E9C" stroke-opacity="0.5" shape-rendering="crispEdges"/>
</g>
<g filter="url(#filter23_d_503_888)">
<path d="M115.403 156.354C115.134 156.979 114.768 157.318 114.149 157.024C113.806 156.861 113.649 156.535 113.711 156.147C113.781 155.709 114.048 155.41 114.491 155.392C115.056 155.37 115.387 155.675 115.403 156.354Z" fill="url(#paint41_linear_503_888)" shape-rendering="crispEdges"/>
<path d="M115.403 156.354C115.134 156.979 114.768 157.318 114.149 157.024C113.806 156.861 113.649 156.535 113.711 156.147C113.781 155.709 114.048 155.41 114.491 155.392C115.056 155.37 115.387 155.675 115.403 156.354Z" stroke="#5B0E9C" stroke-opacity="0.5" shape-rendering="crispEdges"/>
</g>
<g filter="url(#filter24_d_503_888)">
<path d="M138.898 178.675C139.079 178.482 139.241 178.43 139.401 178.614C139.489 178.715 139.582 178.829 139.621 178.951C139.97 180.043 140.791 180.419 141.933 180.436C142.597 180.446 142.69 180.733 142.283 181.24C142.24 181.293 142.202 181.355 142.146 181.392C141.271 181.976 141.097 182.727 141.5 183.648C141.604 183.887 141.648 184.192 141.387 184.39C141.139 184.579 140.902 184.373 140.665 184.305C140.62 184.292 140.572 184.279 140.536 184.253C139.716 183.682 138.912 183.758 138.087 184.262C137.851 184.406 137.553 184.638 137.256 184.392C137.017 184.196 137.063 183.883 137.145 183.637C137.456 182.701 137.168 182.006 136.31 181.473C136.071 181.325 135.766 181.114 135.887 180.776C136.006 180.445 136.383 180.417 136.665 180.446C138.046 180.587 138.423 179.62 138.898 178.675Z" fill="url(#paint42_linear_503_888)"/>
<path d="M138.898 178.675C139.079 178.482 139.241 178.43 139.401 178.614C139.489 178.715 139.582 178.829 139.621 178.951C139.97 180.043 140.791 180.419 141.933 180.436C142.597 180.446 142.69 180.733 142.283 181.24C142.24 181.293 142.202 181.355 142.146 181.392C141.271 181.976 141.097 182.727 141.5 183.648C141.604 183.887 141.648 184.192 141.387 184.39C141.139 184.579 140.902 184.373 140.665 184.305C140.62 184.292 140.572 184.279 140.536 184.253C139.716 183.682 138.912 183.758 138.087 184.262C137.851 184.406 137.553 184.638 137.256 184.392C137.017 184.196 137.063 183.883 137.145 183.637C137.456 182.701 137.168 182.006 136.31 181.473C136.071 181.325 135.766 181.114 135.887 180.776C136.006 180.445 136.383 180.417 136.665 180.446C138.046 180.587 138.423 179.62 138.898 178.675Z" stroke="#E5E7EB"/>
</g>
<g filter="url(#filter25_d_503_888)">
<path d="M139.32 189.95C139.446 189.821 139.56 189.787 139.672 189.909C139.734 189.977 139.799 190.052 139.826 190.134C140.07 190.862 140.645 191.112 141.444 191.124C141.909 191.131 141.974 191.322 141.689 191.66C141.659 191.696 141.633 191.737 141.594 191.761C140.981 192.15 140.859 192.651 141.141 193.266C141.214 193.425 141.245 193.628 141.062 193.76C140.888 193.886 140.722 193.748 140.557 193.703C140.525 193.695 140.492 193.686 140.466 193.669C139.893 193.288 139.33 193.338 138.752 193.675C138.587 193.771 138.378 193.925 138.17 193.762C138.003 193.63 138.035 193.422 138.092 193.258C138.31 192.634 138.109 192.171 137.508 191.816C137.341 191.717 137.128 191.576 137.212 191.351C137.295 191.13 137.559 191.111 137.757 191.131C138.724 191.225 138.987 190.58 139.32 189.95Z" fill="url(#paint43_linear_503_888)"/>
<path d="M139.32 189.95C139.446 189.821 139.56 189.787 139.672 189.909C139.734 189.977 139.799 190.052 139.826 190.134C140.07 190.862 140.645 191.112 141.444 191.124C141.909 191.131 141.974 191.322 141.689 191.66C141.659 191.696 141.633 191.737 141.594 191.761C140.981 192.15 140.859 192.651 141.141 193.266C141.214 193.425 141.245 193.628 141.062 193.76C140.888 193.886 140.722 193.748 140.557 193.703C140.525 193.695 140.492 193.686 140.466 193.669C139.893 193.288 139.33 193.338 138.752 193.675C138.587 193.771 138.378 193.925 138.17 193.762C138.003 193.63 138.035 193.422 138.092 193.258C138.31 192.634 138.109 192.171 137.508 191.816C137.341 191.717 137.128 191.576 137.212 191.351C137.295 191.13 137.559 191.111 137.757 191.131C138.724 191.225 138.987 190.58 139.32 189.95Z" stroke="#E5E7EB"/>
</g>
<g filter="url(#filter26_d_503_888)">
<path d="M108.736 150.354C108.467 150.979 108.101 151.318 107.482 151.024C107.139 150.861 106.982 150.535 107.044 150.147C107.114 149.709 107.381 149.41 107.824 149.392C108.389 149.37 108.72 149.675 108.736 150.354Z" fill="url(#paint44_linear_503_888)" shape-rendering="crispEdges"/>
<path d="M108.736 150.354C108.467 150.979 108.101 151.318 107.482 151.024C107.139 150.861 106.982 150.535 107.044 150.147C107.114 149.709 107.381 149.41 107.824 149.392C108.389 149.37 108.72 149.675 108.736 150.354Z" stroke="#5B0E9C" stroke-opacity="0.5" shape-rendering="crispEdges"/>
</g>
</g>
<defs>
<filter id="filter0_d_503_888" x="0" y="0" width="221.258" height="292.57" filterUnits="userSpaceOnUse" color-interpolation-filters="sRGB">
<feFlood flood-opacity="0" result="BackgroundImageFix"/>
<feColorMatrix in="SourceAlpha" type="matrix" values="0 0 0 0 0 0 0 0 0 0 0 0 0 0 0 0 0 0 127 0" result="hardAlpha"/>
<feOffset/>
<feGaussianBlur stdDeviation="25"/>
<feComposite in2="hardAlpha" operator="out"/>
<feColorMatrix type="matrix" values="0 0 0 0 0.752941 0 0 0 0 0.12549 0 0 0 0 0.941176 0 0 0 0.7 0"/>
<feBlend mode="normal" in2="BackgroundImageFix" result="effect1_dropShadow_503_888"/>
<feBlend mode="normal" in="SourceGraphic" in2="effect1_dropShadow_503_888" result="shape"/>
</filter>
<filter id="filter1_d_503_888" x="110.531" y="137.558" width="10.7072" height="10.7404" filterUnits="userSpaceOnUse" color-interpolation-filters="sRGB">
<feFlood flood-opacity="0" result="BackgroundImageFix"/>
<feColorMatrix in="SourceAlpha" type="matrix" values="0 0 0 0 0 0 0 0 0 0 0 0 0 0 0 0 0 0 127 0" result="hardAlpha"/>
<feOffset dy="4"/>
<feGaussianBlur stdDeviation="2"/>
<feComposite in2="hardAlpha" operator="out"/>
<feColorMatrix type="matrix" values="0 0 0 0 0 0 0 0 0 0 0 0 0 0 0 0 0 0 0.25 0"/>
<feBlend mode="normal" in2="BackgroundImageFix" result="effect1_dropShadow_503_888"/>
<feBlend mode="normal" in="SourceGraphic" in2="effect1_dropShadow_503_888" result="shape"/>
</filter>
<filter id="filter2_d_503_888" x="140.964" y="175.919" width="10.9822" height="11.1099" filterUnits="userSpaceOnUse" color-interpolation-filters="sRGB">
<feFlood flood-opacity="0" result="BackgroundImageFix"/>
<feColorMatrix in="SourceAlpha" type="matrix" values="0 0 0 0 0 0 0 0 0 0 0 0 0 0 0 0 0 0 127 0" result="hardAlpha"/>
<feOffset dy="4"/>
<feGaussianBlur stdDeviation="2"/>
<feComposite in2="hardAlpha" operator="out"/>
<feColorMatrix type="matrix" values="0 0 0 0 0 0 0 0 0 0 0 0 0 0 0 0 0 0 0.25 0"/>
<feBlend mode="normal" in2="BackgroundImageFix" result="effect1_dropShadow_503_888"/>
<feBlend mode="normal" in="SourceGraphic" in2="effect1_dropShadow_503_888" result="shape"/>
</filter>
<filter id="filter3_d_503_888" x="139.63" y="169.252" width="10.9822" height="11.1099" filterUnits="userSpaceOnUse" color-interpolation-filters="sRGB">
<feFlood flood-opacity="0" result="BackgroundImageFix"/>
<feColorMatrix in="SourceAlpha" type="matrix" values="0 0 0 0 0 0 0 0 0 0 0 0 0 0 0 0 0 0 127 0" result="hardAlpha"/>
<feOffset dy="4"/>
<feGaussianBlur stdDeviation="2"/>
<feComposite in2="hardAlpha" operator="out"/>
<feColorMatrix type="matrix" values="0 0 0 0 0 0 0 0 0 0 0 0 0 0 0 0 0 0 0.25 0"/>
<feBlend mode="normal" in2="BackgroundImageFix" result="effect1_dropShadow_503_888"/>
<feBlend mode="normal" in="SourceGraphic" in2="effect1_dropShadow_503_888" result="shape"/>
</filter>
<filter id="filter4_d_503_888" x="140.964" y="181.252" width="10.9822" height="11.1099" filterUnits="userSpaceOnUse" color-interpolation-filters="sRGB">
<feFlood flood-opacity="0" result="BackgroundImageFix"/>
<feColorMatrix in="SourceAlpha" type="matrix" values="0 0 0 0 0 0 0 0 0 0 0 0 0 0 0 0 0 0 127 0" result="hardAlpha"/>
<feOffset dy="4"/>
<feGaussianBlur stdDeviation="2"/>
<feComposite in2="hardAlpha" operator="out"/>
<feColorMatrix type="matrix" values="0 0 0 0 0 0 0 0 0 0 0 0 0 0 0 0 0 0 0.25 0"/>
<feBlend mode="normal" in2="BackgroundImageFix" result="effect1_dropShadow_503_888"/>
<feBlend mode="normal" in="SourceGraphic" in2="effect1_dropShadow_503_888" result="shape"/>
</filter>
<filter id="filter5_d_503_888" x="128.688" y="203.995" width="10.9757" height="10.9344" filterUnits="userSpaceOnUse" color-interpolation-filters="sRGB">
<feFlood flood-opacity="0" result="BackgroundImageFix"/>
<feColorMatrix in="SourceAlpha" type="matrix" values="0 0 0 0 0 0 0 0 0 0 0 0 0 0 0 0 0 0 127 0" result="hardAlpha"/>
<feOffset dy="4"/>
<feGaussianBlur stdDeviation="2"/>
<feComposite in2="hardAlpha" operator="out"/>
<feColorMatrix type="matrix" values="0 0 0 0 0 0 0 0 0 0 0 0 0 0 0 0 0 0 0.25 0"/>
<feBlend mode="normal" in2="BackgroundImageFix" result="effect1_dropShadow_503_888"/>
<feBlend mode="normal" in="SourceGraphic" in2="effect1_dropShadow_503_888" result="shape"/>
</filter>
<filter id="filter6_d_503_888" x="126.027" y="207.333" width="10.9757" height="10.9344" filterUnits="userSpaceOnUse" color-interpolation-filters="sRGB">
<feFlood flood-opacity="0" result="BackgroundImageFix"/>
<feColorMatrix in="SourceAlpha" type="matrix" values="0 0 0 0 0 0 0 0 0 0 0 0 0 0 0 0 0 0 127 0" result="hardAlpha"/>
<feOffset dy="4"/>
<feGaussianBlur stdDeviation="2"/>
<feComposite in2="hardAlpha" operator="out"/>
<feColorMatrix type="matrix" values="0 0 0 0 0 0 0 0 0 0 0 0 0 0 0 0 0 0 0.25 0"/>
<feBlend mode="normal" in2="BackgroundImageFix" result="effect1_dropShadow_503_888"/>
<feBlend mode="normal" in="SourceGraphic" in2="effect1_dropShadow_503_888" result="shape"/>
</filter>
<filter id="filter7_d_503_888" x="115.865" y="141.558" width="10.7072" height="10.7404" filterUnits="userSpaceOnUse" color-interpolation-filters="sRGB">
<feFlood flood-opacity="0" result="BackgroundImageFix"/>
<feColorMatrix in="SourceAlpha" type="matrix" values="0 0 0 0 0 0 0 0 0 0 0 0 0 0 0 0 0 0 127 0" result="hardAlpha"/>
<feOffset dy="4"/>
<feGaussianBlur stdDeviation="2"/>
<feComposite in2="hardAlpha" operator="out"/>
<feColorMatrix type="matrix" values="0 0 0 0 0 0 0 0 0 0 0 0 0 0 0 0 0 0 0.25 0"/>
<feBlend mode="normal" in2="BackgroundImageFix" result="effect1_dropShadow_503_888"/>
<feBlend mode="normal" in="SourceGraphic" in2="effect1_dropShadow_503_888" result="shape"/>
</filter>
<filter id="filter8_d_503_888" x="130.027" y="198" width="10.7072" height="10.7404" filterUnits="userSpaceOnUse" color-interpolation-filters="sRGB">
<feFlood flood-opacity="0" result="BackgroundImageFix"/>
<feColorMatrix in="SourceAlpha" type="matrix" values="0 0 0 0 0 0 0 0 0 0 0 0 0 0 0 0 0 0 127 0" result="hardAlpha"/>
<feOffset dy="4"/>
<feGaussianBlur stdDeviation="2"/>
<feComposite in2="hardAlpha" operator="out"/>
<feColorMatrix type="matrix" values="0 0 0 0 0 0 0 0 0 0 0 0 0 0 0 0 0 0 0.25 0"/>
<feBlend mode="normal" in2="BackgroundImageFix" result="effect1_dropShadow_503_888"/>
<feBlend mode="normal" in="SourceGraphic" in2="effect1_dropShadow_503_888" result="shape"/>
</filter>
<filter id="filter9_d_503_888" x="130.027" y="190.667" width="10.7072" height="10.7404" filterUnits="userSpaceOnUse" color-interpolation-filters="sRGB">
<feFlood flood-opacity="0" result="BackgroundImageFix"/>
<feColorMatrix in="SourceAlpha" type="matrix" values="0 0 0 0 0 0 0 0 0 0 0 0 0 0 0 0 0 0 127 0" result="hardAlpha"/>
<feOffset dy="4"/>
<feGaussianBlur stdDeviation="2"/>
<feComposite in2="hardAlpha" operator="out"/>
<feColorMatrix type="matrix" values="0 0 0 0 0 0 0 0 0 0 0 0 0 0 0 0 0 0 0.25 0"/>
<feBlend mode="normal" in2="BackgroundImageFix" result="effect1_dropShadow_503_888"/>
<feBlend mode="normal" in="SourceGraphic" in2="effect1_dropShadow_503_888" result="shape"/>
</filter>
<filter id="filter10_d_503_888" x="105.198" y="133.558" width="10.7072" height="10.7404" filterUnits="userSpaceOnUse" color-interpolation-filters="sRGB">
<feFlood flood-opacity="0" result="BackgroundImageFix"/>
<feColorMatrix in="SourceAlpha" type="matrix" values="0 0 0 0 0 0 0 0 0 0 0 0 0 0 0 0 0 0 127 0" result="hardAlpha"/>
<feOffset dy="4"/>
<feGaussianBlur stdDeviation="2"/>
<feComposite in2="hardAlpha" operator="out"/>
<feColorMatrix type="matrix" values="0 0 0 0 0 0 0 0 0 0 0 0 0 0 0 0 0 0 0.25 0"/>
<feBlend mode="normal" in2="BackgroundImageFix" result="effect1_dropShadow_503_888"/>
<feBlend mode="normal" in="SourceGraphic" in2="effect1_dropShadow_503_888" result="shape"/>
</filter>
<filter id="filter11_d_503_888" x="96.1432" y="143.32" width="10.7207" height="10.7624" filterUnits="userSpaceOnUse" color-interpolation-filters="sRGB">
<feFlood flood-opacity="0" result="BackgroundImageFix"/>
<feColorMatrix in="SourceAlpha" type="matrix" values="0 0 0 0 0 0 0 0 0 0 0 0 0 0 0 0 0 0 127 0" result="hardAlpha"/>
<feOffset dy="4"/>
<feGaussianBlur stdDeviation="2"/>
<feComposite in2="hardAlpha" operator="out"/>
<feColorMatrix type="matrix" values="0 0 0 0 0 0 0 0 0 0 0 0 0 0 0 0 0 0 0.25 0"/>
<feBlend mode="normal" in2="BackgroundImageFix" result="effect1_dropShadow_503_888"/>
<feBlend mode="normal" in="SourceGraphic" in2="effect1_dropShadow_503_888" result="shape"/>
</filter>
<filter id="filter12_d_503_888" x="125.996" y="151.396" width="10.745" height="10.7753" filterUnits="userSpaceOnUse" color-interpolation-filters="sRGB">
<feFlood flood-opacity="0" result="BackgroundImageFix"/>
<feColorMatrix in="SourceAlpha" type="matrix" values="0 0 0 0 0 0 0 0 0 0 0 0 0 0 0 0 0 0 127 0" result="hardAlpha"/>
<feOffset dy="4"/>
<feGaussianBlur stdDeviation="2"/>
<feComposite in2="hardAlpha" operator="out"/>
<feColorMatrix type="matrix" values="0 0 0 0 0 0 0 0 0 0 0 0 0 0 0 0 0 0 0.25 0"/>
<feBlend mode="normal" in2="BackgroundImageFix" result="effect1_dropShadow_503_888"/>
<feBlend mode="normal" in="SourceGraphic" in2="effect1_dropShadow_503_888" result="shape"/>
</filter>
<filter id="filter13_d_503_888" x="131.996" y="158.062" width="10.745" height="10.7753" filterUnits="userSpaceOnUse" color-interpolation-filters="sRGB">
<feFlood flood-opacity="0" result="BackgroundImageFix"/>
<feColorMatrix in="SourceAlpha" type="matrix" values="0 0 0 0 0 0 0 0 0 0 0 0 0 0 0 0 0 0 127 0" result="hardAlpha"/>
<feOffset dy="4"/>
<feGaussianBlur stdDeviation="2"/>
<feComposite in2="hardAlpha" operator="out"/>
<feColorMatrix type="matrix" values="0 0 0 0 0 0 0 0 0 0 0 0 0 0 0 0 0 0 0.25 0"/>
<feBlend mode="normal" in2="BackgroundImageFix" result="effect1_dropShadow_503_888"/>
<feBlend mode="normal" in="SourceGraphic" in2="effect1_dropShadow_503_888" result="shape"/>
</filter>
<filter id="filter14_d_503_888" x="135.996" y="163.396" width="10.745" height="10.7753" filterUnits="userSpaceOnUse" color-interpolation-filters="sRGB">
<feFlood flood-opacity="0" result="BackgroundImageFix"/>
<feColorMatrix in="SourceAlpha" type="matrix" values="0 0 0 0 0 0 0 0 0 0 0 0 0 0 0 0 0 0 127 0" result="hardAlpha"/>
<feOffset dy="4"/>
<feGaussianBlur stdDeviation="2"/>
<feComposite in2="hardAlpha" operator="out"/>
<feColorMatrix type="matrix" values="0 0 0 0 0 0 0 0 0 0 0 0 0 0 0 0 0 0 0.25 0"/>
<feBlend mode="normal" in2="BackgroundImageFix" result="effect1_dropShadow_503_888"/>
<feBlend mode="normal" in="SourceGraphic" in2="effect1_dropShadow_503_888" result="shape"/>
</filter>
<filter id="filter15_d_503_888" x="132.888" y="200.618" width="10.4486" height="10.5017" filterUnits="userSpaceOnUse" color-interpolation-filters="sRGB">
<feFlood flood-opacity="0" result="BackgroundImageFix"/>
<feColorMatrix in="SourceAlpha" type="matrix" values="0 0 0 0 0 0 0 0 0 0 0 0 0 0 0 0 0 0 127 0" result="hardAlpha"/>
<feOffset dy="4"/>
<feGaussianBlur stdDeviation="2"/>
<feComposite in2="hardAlpha" operator="out"/>
<feColorMatrix type="matrix" values="0 0 0 0 0 0 0 0 0 0 0 0 0 0 0 0 0 0 0.25 0"/>
<feBlend mode="normal" in2="BackgroundImageFix" result="effect1_dropShadow_503_888"/>
<feBlend mode="normal" in="SourceGraphic" in2="effect1_dropShadow_503_888" result="shape"/>
</filter>
<filter id="filter16_d_503_888" x="136.222" y="195.952" width="10.4486" height="10.5017" filterUnits="userSpaceOnUse" color-interpolation-filters="sRGB">
<feFlood flood-opacity="0" result="BackgroundImageFix"/>
<feColorMatrix in="SourceAlpha" type="matrix" values="0 0 0 0 0 0 0 0 0 0 0 0 0 0 0 0 0 0 127 0" result="hardAlpha"/>
<feOffset dy="4"/>
<feGaussianBlur stdDeviation="2"/>
<feComposite in2="hardAlpha" operator="out"/>
<feColorMatrix type="matrix" values="0 0 0 0 0 0 0 0 0 0 0 0 0 0 0 0 0 0 0.25 0"/>
<feBlend mode="normal" in2="BackgroundImageFix" result="effect1_dropShadow_503_888"/>
<feBlend mode="normal" in="SourceGraphic" in2="effect1_dropShadow_503_888" result="shape"/>
</filter>
<filter id="filter17_d_503_888" x="138.222" y="191.952" width="10.4486" height="10.5017" filterUnits="userSpaceOnUse" color-interpolation-filters="sRGB">
<feFlood flood-opacity="0" result="BackgroundImageFix"/>
<feColorMatrix in="SourceAlpha" type="matrix" values="0 0 0 0 0 0 0 0 0 0 0 0 0 0 0 0 0 0 127 0" result="hardAlpha"/>
<feOffset dy="4"/>
<feGaussianBlur stdDeviation="2"/>
<feComposite in2="hardAlpha" operator="out"/>
<feColorMatrix type="matrix" values="0 0 0 0 0 0 0 0 0 0 0 0 0 0 0 0 0 0 0.25 0"/>
<feBlend mode="normal" in2="BackgroundImageFix" result="effect1_dropShadow_503_888"/>
<feBlend mode="normal" in="SourceGraphic" in2="effect1_dropShadow_503_888" result="shape"/>
</filter>
<filter id="filter18_d_503_888" x="140.222" y="187.285" width="10.4486" height="10.5017" filterUnits="userSpaceOnUse" color-interpolation-filters="sRGB">
<feFlood flood-opacity="0" result="BackgroundImageFix"/>
<feColorMatrix in="SourceAlpha" type="matrix" values="0 0 0 0 0 0 0 0 0 0 0 0 0 0 0 0 0 0 127 0" result="hardAlpha"/>
<feOffset dy="4"/>
<feGaussianBlur stdDeviation="2"/>
<feComposite in2="hardAlpha" operator="out"/>
<feColorMatrix type="matrix" values="0 0 0 0 0 0 0 0 0 0 0 0 0 0 0 0 0 0 0.25 0"/>
<feBlend mode="normal" in2="BackgroundImageFix" result="effect1_dropShadow_503_888"/>
<feBlend mode="normal" in="SourceGraphic" in2="effect1_dropShadow_503_888" result="shape"/>
</filter>
<filter id="filter19_d_503_888" x="127.168" y="178.004" width="10.49" height="10.4511" filterUnits="userSpaceOnUse" color-interpolation-filters="sRGB">
<feFlood flood-opacity="0" result="BackgroundImageFix"/>
<feColorMatrix in="SourceAlpha" type="matrix" values="0 0 0 0 0 0 0 0 0 0 0 0 0 0 0 0 0 0 127 0" result="hardAlpha"/>
<feOffset dy="4"/>
<feGaussianBlur stdDeviation="2"/>
<feComposite in2="hardAlpha" operator="out"/>
<feColorMatrix type="matrix" values="0 0 0 0 0 0 0 0 0 0 0 0 0 0 0 0 0 0 0.25 0"/>
<feBlend mode="normal" in2="BackgroundImageFix" result="effect1_dropShadow_503_888"/>
<feBlend mode="normal" in="SourceGraphic" in2="effect1_dropShadow_503_888" result="shape"/>
</filter>
<filter id="filter20_d_503_888" x="129.168" y="184.004" width="10.6914" height="10.6687" filterUnits="userSpaceOnUse" color-interpolation-filters="sRGB">
<feFlood flood-opacity="0" result="BackgroundImageFix"/>
<feColorMatrix in="SourceAlpha" type="matrix" values="0 0 0 0 0 0 0 0 0 0 0 0 0 0 0 0 0 0 127 0" result="hardAlpha"/>
<feOffset dy="4"/>
<feGaussianBlur stdDeviation="2"/>
<feComposite in2="hardAlpha" operator="out"/>
<feColorMatrix type="matrix" values="0 0 0 0 0 0 0 0 0 0 0 0 0 0 0 0 0 0 0.25 0"/>
<feBlend mode="normal" in2="BackgroundImageFix" result="effect1_dropShadow_503_888"/>
<feBlend mode="normal" in="SourceGraphic" in2="effect1_dropShadow_503_888" result="shape"/>
</filter>
<filter id="filter21_d_503_888" x="119.411" y="165.56" width="10.474" height="10.5114" filterUnits="userSpaceOnUse" color-interpolation-filters="sRGB">
<feFlood flood-opacity="0" result="BackgroundImageFix"/>
<feColorMatrix in="SourceAlpha" type="matrix" values="0 0 0 0 0 0 0 0 0 0 0 0 0 0 0 0 0 0 127 0" result="hardAlpha"/>
<feOffset dy="4"/>
<feGaussianBlur stdDeviation="2"/>
<feComposite in2="hardAlpha" operator="out"/>
<feColorMatrix type="matrix" values="0 0 0 0 0 0 0 0 0 0 0 0 0 0 0 0 0 0 0.25 0"/>
<feBlend mode="normal" in2="BackgroundImageFix" result="effect1_dropShadow_503_888"/>
<feBlend mode="normal" in="SourceGraphic" in2="effect1_dropShadow_503_888" result="shape"/>
</filter>
<filter id="filter22_d_503_888" x="114.078" y="160.227" width="10.474" height="10.5114" filterUnits="userSpaceOnUse" color-interpolation-filters="sRGB">
<feFlood flood-opacity="0" result="BackgroundImageFix"/>
<feColorMatrix in="SourceAlpha" type="matrix" values="0 0 0 0 0 0 0 0 0 0 0 0 0 0 0 0 0 0 127 0" result="hardAlpha"/>
<feOffset dy="4"/>
<feGaussianBlur stdDeviation="2"/>
<feComposite in2="hardAlpha" operator="out"/>
<feColorMatrix type="matrix" values="0 0 0 0 0 0 0 0 0 0 0 0 0 0 0 0 0 0 0.25 0"/>
<feBlend mode="normal" in2="BackgroundImageFix" result="effect1_dropShadow_503_888"/>
<feBlend mode="normal" in="SourceGraphic" in2="effect1_dropShadow_503_888" result="shape"/>
</filter>
<filter id="filter23_d_503_888" x="109.198" y="154.891" width="10.7072" height="10.7404" filterUnits="userSpaceOnUse" color-interpolation-filters="sRGB">
<feFlood flood-opacity="0" result="BackgroundImageFix"/>
<feColorMatrix in="SourceAlpha" type="matrix" values="0 0 0 0 0 0 0 0 0 0 0 0 0 0 0 0 0 0 127 0" result="hardAlpha"/>
<feOffset dy="4"/>
<feGaussianBlur stdDeviation="2"/>
<feComposite in2="hardAlpha" operator="out"/>
<feColorMatrix type="matrix" values="0 0 0 0 0 0 0 0 0 0 0 0 0 0 0 0 0 0 0.25 0"/>
<feBlend mode="normal" in2="BackgroundImageFix" result="effect1_dropShadow_503_888"/>
<feBlend mode="normal" in="SourceGraphic" in2="effect1_dropShadow_503_888" result="shape"/>
</filter>
<filter id="filter24_d_503_888" x="131.36" y="178" width="15.6671" height="15" filterUnits="userSpaceOnUse" color-interpolation-filters="sRGB">
<feFlood flood-opacity="0" result="BackgroundImageFix"/>
<feColorMatrix in="SourceAlpha" type="matrix" values="0 0 0 0 0 0 0 0 0 0 0 0 0 0 0 0 0 0 127 0" result="hardAlpha"/>
<feOffset dy="4"/>
<feGaussianBlur stdDeviation="2"/>
<feComposite in2="hardAlpha" operator="out"/>
<feColorMatrix type="matrix" values="0 0 0 0 0 0 0 0 0 0 0 0 0 0 0 0 0 0 0.25 0"/>
<feBlend mode="normal" in2="BackgroundImageFix" result="effect1_dropShadow_503_888"/>
<feBlend mode="normal" in="SourceGraphic" in2="effect1_dropShadow_503_888" result="shape"/>
</filter>
<filter id="filter25_d_503_888" x="132.693" y="189.333" width="13.6672" height="13" filterUnits="userSpaceOnUse" color-interpolation-filters="sRGB">
<feFlood flood-opacity="0" result="BackgroundImageFix"/>
<feColorMatrix in="SourceAlpha" type="matrix" values="0 0 0 0 0 0 0 0 0 0 0 0 0 0 0 0 0 0 127 0" result="hardAlpha"/>
<feOffset dy="4"/>
<feGaussianBlur stdDeviation="2"/>
<feComposite in2="hardAlpha" operator="out"/>
<feColorMatrix type="matrix" values="0 0 0 0 0 0 0 0 0 0 0 0 0 0 0 0 0 0 0.25 0"/>
<feBlend mode="normal" in2="BackgroundImageFix" result="effect1_dropShadow_503_888"/>
<feBlend mode="normal" in="SourceGraphic" in2="effect1_dropShadow_503_888" result="shape"/>
</filter>
<filter id="filter26_d_503_888" x="102.531" y="148.891" width="10.7072" height="10.7404" filterUnits="userSpaceOnUse" color-interpolation-filters="sRGB">
<feFlood flood-opacity="0" result="BackgroundImageFix"/>
<feColorMatrix in="SourceAlpha" type="matrix" values="0 0 0 0 0 0 0 0 0 0 0 0 0 0 0 0 0 0 127 0" result="hardAlpha"/>
<feOffset dy="4"/>
<feGaussianBlur stdDeviation="2"/>
<feComposite in2="hardAlpha" operator="out"/>
<feColorMatrix type="matrix" values="0 0 0 0 0 0 0 0 0 0 0 0 0 0 0 0 0 0 0.25 0"/>
<feBlend mode="normal" in2="BackgroundImageFix" result="effect1_dropShadow_503_888"/>
<feBlend mode="normal" in="SourceGraphic" in2="effect1_dropShadow_503_888" result="shape"/>
</filter>
<linearGradient id="paint0_linear_503_888" x1="157.682" y1="160.119" x2="89.8602" y2="160.081" gradientUnits="userSpaceOnUse">
<stop stop-color="#5B0E9C"/>
<stop offset="0.5" stop-color="#8A17C9"/>
<stop offset="1" stop-color="#C020F0"/>
</linearGradient>
<linearGradient id="paint1_linear_503_888" x1="121.254" y1="183.157" x2="65.7433" y2="183.105" gradientUnits="userSpaceOnUse">
<stop stop-color="#5B0E9C"/>
<stop offset="0.5" stop-color="#8A17C9"/>
<stop offset="1" stop-color="#C020F0"/>
</linearGradient>
<linearGradient id="paint2_linear_503_888" x1="125.558" y1="168.763" x2="78.694" y2="168.731" gradientUnits="userSpaceOnUse">
<stop stop-color="#5B0E9C"/>
<stop offset="0.5" stop-color="#8A17C9"/>
<stop offset="1" stop-color="#C020F0"/>
</linearGradient>
<linearGradient id="paint3_linear_503_888" x1="109.613" y1="217.713" x2="63.6876" y2="217.646" gradientUnits="userSpaceOnUse">
<stop stop-color="#5B0E9C"/>
<stop offset="0.5" stop-color="#8A17C9"/>
<stop offset="1" stop-color="#C020F0"/>
</linearGradient>
<linearGradient id="paint4_linear_503_888" x1="170.527" y1="235.328" x2="50.5105" y2="233.983" gradientUnits="userSpaceOnUse">
<stop stop-color="#5B0E9C"/>
<stop offset="0.5" stop-color="#8A17C9"/>
<stop offset="1" stop-color="#C020F0"/>
</linearGradient>
<linearGradient id="paint5_linear_503_888" x1="163.527" y1="227.668" x2="113.74" y2="227.472" gradientUnits="userSpaceOnUse">
<stop stop-color="#5B0E9C"/>
<stop offset="0.5" stop-color="#8A17C9"/>
<stop offset="1" stop-color="#C020F0"/>
</linearGradient>
<linearGradient id="paint6_linear_503_888" x1="106.44" y1="228.065" x2="56.7839" y2="227.864" gradientUnits="userSpaceOnUse">
<stop stop-color="#5B0E9C"/>
<stop offset="0.5" stop-color="#8A17C9"/>
<stop offset="1" stop-color="#C020F0"/>
</linearGradient>
<linearGradient id="paint7_linear_503_888" x1="121.191" y1="81.4216" x2="107.302" y2="81.405" gradientUnits="userSpaceOnUse">
<stop stop-color="#5B0E9C"/>
<stop offset="0.5" stop-color="#8A17C9"/>
<stop offset="1" stop-color="#C020F0"/>
</linearGradient>
<linearGradient id="paint8_linear_503_888" x1="107.193" y1="134.86" x2="94.5233" y2="134.84" gradientUnits="userSpaceOnUse">
<stop stop-color="#5B0E9C"/>
<stop offset="0.5" stop-color="#8A17C9"/>
<stop offset="1" stop-color="#C020F0"/>
</linearGradient>
<linearGradient id="paint9_linear_503_888" x1="120.527" y1="147.413" x2="109.19" y2="147.395" gradientUnits="userSpaceOnUse">
<stop stop-color="#5B0E9C"/>
<stop offset="0.5" stop-color="#8A17C9"/>
<stop offset="1" stop-color="#C020F0"/>
</linearGradient>
<linearGradient id="paint10_linear_503_888" x1="130.527" y1="157.965" x2="120.524" y2="157.949" gradientUnits="userSpaceOnUse">
<stop stop-color="#5B0E9C"/>
<stop offset="0.5" stop-color="#8A17C9"/>
<stop offset="1" stop-color="#C020F0"/>
</linearGradient>
<linearGradient id="paint11_linear_503_888" x1="139.193" y1="169.851" x2="130.524" y2="169.837" gradientUnits="userSpaceOnUse">
<stop stop-color="#5B0E9C"/>
<stop offset="0.5" stop-color="#8A17C9"/>
<stop offset="1" stop-color="#C020F0"/>
</linearGradient>
<linearGradient id="paint12_linear_503_888" x1="116.736" y1="139.077" x2="115.031" y2="139.074" gradientUnits="userSpaceOnUse">
<stop stop-color="#5B0E9C"/>
<stop offset="0.5" stop-color="#8A17C9"/>
<stop offset="1" stop-color="#C020F0"/>
</linearGradient>
<linearGradient id="paint13_linear_503_888" x1="134.435" y1="83.835" x2="117.724" y2="83.8163" gradientUnits="userSpaceOnUse">
<stop stop-color="#5B0E9C"/>
<stop offset="0.5" stop-color="#8A17C9"/>
<stop offset="1" stop-color="#C020F0"/>
</linearGradient>
<linearGradient id="paint14_linear_503_888" x1="124.641" y1="76.4538" x2="120.718" y2="76.453" gradientUnits="userSpaceOnUse">
<stop stop-color="#5B0E9C"/>
<stop offset="0.5" stop-color="#8A17C9"/>
<stop offset="1" stop-color="#C020F0"/>
</linearGradient>
<linearGradient id="paint15_linear_503_888" x1="115.06" y1="212.794" x2="104.629" y2="212.782" gradientUnits="userSpaceOnUse">
<stop stop-color="#5B0E9C"/>
<stop offset="0.5" stop-color="#8A17C9"/>
<stop offset="1" stop-color="#C020F0"/>
</linearGradient>
<linearGradient id="paint16_linear_503_888" x1="132.118" y1="67.979" x2="127.859" y2="67.9715" gradientUnits="userSpaceOnUse">
<stop stop-color="#5B0E9C"/>
<stop offset="0.5" stop-color="#8A17C9"/>
<stop offset="1" stop-color="#C020F0"/>
</linearGradient>
<linearGradient id="paint17_linear_503_888" x1="118.084" y1="69.3889" x2="115.615" y2="69.3858" gradientUnits="userSpaceOnUse">
<stop stop-color="#5B0E9C"/>
<stop offset="0.5" stop-color="#8A17C9"/>
<stop offset="1" stop-color="#C020F0"/>
</linearGradient>
<linearGradient id="paint18_linear_503_888" x1="147.446" y1="177.655" x2="145.463" y2="177.652" gradientUnits="userSpaceOnUse">
<stop stop-color="#5B0E9C"/>
<stop offset="0.5" stop-color="#8A17C9"/>
<stop offset="1" stop-color="#C020F0"/>
</linearGradient>
<linearGradient id="paint19_linear_503_888" x1="146.113" y1="170.988" x2="144.13" y2="170.985" gradientUnits="userSpaceOnUse">
<stop stop-color="#5B0E9C"/>
<stop offset="0.5" stop-color="#8A17C9"/>
<stop offset="1" stop-color="#C020F0"/>
</linearGradient>
<linearGradient id="paint20_linear_503_888" x1="147.446" y1="182.988" x2="145.463" y2="182.985" gradientUnits="userSpaceOnUse">
<stop stop-color="#5B0E9C"/>
<stop offset="0.5" stop-color="#8A17C9"/>
<stop offset="1" stop-color="#C020F0"/>
</linearGradient>
<linearGradient id="paint21_linear_503_888" x1="135.164" y1="205.627" x2="133.188" y2="205.624" gradientUnits="userSpaceOnUse">
<stop stop-color="#5B0E9C"/>
<stop offset="0.5" stop-color="#8A17C9"/>
<stop offset="1" stop-color="#C020F0"/>
</linearGradient>
<linearGradient id="paint22_linear_503_888" x1="132.502" y1="208.966" x2="130.526" y2="208.963" gradientUnits="userSpaceOnUse">
<stop stop-color="#5B0E9C"/>
<stop offset="0.5" stop-color="#8A17C9"/>
<stop offset="1" stop-color="#C020F0"/>
</linearGradient>
<linearGradient id="paint23_linear_503_888" x1="122.07" y1="143.077" x2="120.364" y2="143.074" gradientUnits="userSpaceOnUse">
<stop stop-color="#5B0E9C"/>
<stop offset="0.5" stop-color="#8A17C9"/>
<stop offset="1" stop-color="#C020F0"/>
</linearGradient>
<linearGradient id="paint24_linear_503_888" x1="136.232" y1="199.519" x2="134.526" y2="199.517" gradientUnits="userSpaceOnUse">
<stop stop-color="#5B0E9C"/>
<stop offset="0.5" stop-color="#8A17C9"/>
<stop offset="1" stop-color="#C020F0"/>
</linearGradient>
<linearGradient id="paint25_linear_503_888" x1="136.232" y1="192.186" x2="134.526" y2="192.183" gradientUnits="userSpaceOnUse">
<stop stop-color="#5B0E9C"/>
<stop offset="0.5" stop-color="#8A17C9"/>
<stop offset="1" stop-color="#C020F0"/>
</linearGradient>
<linearGradient id="paint26_linear_503_888" x1="111.403" y1="135.077" x2="109.697" y2="135.074" gradientUnits="userSpaceOnUse">
<stop stop-color="#5B0E9C"/>
<stop offset="0.5" stop-color="#8A17C9"/>
<stop offset="1" stop-color="#C020F0"/>
</linearGradient>
<linearGradient id="paint27_linear_503_888" x1="102.364" y1="144.852" x2="100.643" y2="144.849" gradientUnits="userSpaceOnUse">
<stop stop-color="#5B0E9C"/>
<stop offset="0.5" stop-color="#8A17C9"/>
<stop offset="1" stop-color="#C020F0"/>
</linearGradient>
<linearGradient id="paint28_linear_503_888" x1="132.241" y1="152.935" x2="130.495" y2="152.933" gradientUnits="userSpaceOnUse">
<stop stop-color="#5B0E9C"/>
<stop offset="0.5" stop-color="#8A17C9"/>
<stop offset="1" stop-color="#C020F0"/>
</linearGradient>
<linearGradient id="paint29_linear_503_888" x1="138.241" y1="159.602" x2="136.495" y2="159.599" gradientUnits="userSpaceOnUse">
<stop stop-color="#5B0E9C"/>
<stop offset="0.5" stop-color="#8A17C9"/>
<stop offset="1" stop-color="#C020F0"/>
</linearGradient>
<linearGradient id="paint30_linear_503_888" x1="127.605" y1="147.54" x2="125.86" y2="147.537" gradientUnits="userSpaceOnUse">
<stop stop-color="#5B0E9C"/>
<stop offset="0.5" stop-color="#8A17C9"/>
<stop offset="1" stop-color="#C020F0"/>
</linearGradient>
<linearGradient id="paint31_linear_503_888" x1="142.241" y1="164.935" x2="140.495" y2="164.933" gradientUnits="userSpaceOnUse">
<stop stop-color="#5B0E9C"/>
<stop offset="0.5" stop-color="#8A17C9"/>
<stop offset="1" stop-color="#C020F0"/>
</linearGradient>
<linearGradient id="paint32_linear_503_888" x1="138.837" y1="201.998" x2="137.388" y2="201.996" gradientUnits="userSpaceOnUse">
<stop stop-color="#5B0E9C"/>
<stop offset="0.5" stop-color="#8A17C9"/>
<stop offset="1" stop-color="#C020F0"/>
</linearGradient>
<linearGradient id="paint33_linear_503_888" x1="142.17" y1="197.331" x2="140.721" y2="197.329" gradientUnits="userSpaceOnUse">
<stop stop-color="#5B0E9C"/>
<stop offset="0.5" stop-color="#8A17C9"/>
<stop offset="1" stop-color="#C020F0"/>
</linearGradient>
<linearGradient id="paint34_linear_503_888" x1="144.17" y1="193.331" x2="142.721" y2="193.329" gradientUnits="userSpaceOnUse">
<stop stop-color="#5B0E9C"/>
<stop offset="0.5" stop-color="#8A17C9"/>
<stop offset="1" stop-color="#C020F0"/>
</linearGradient>
<linearGradient id="paint35_linear_503_888" x1="146.17" y1="188.665" x2="144.721" y2="188.662" gradientUnits="userSpaceOnUse">
<stop stop-color="#5B0E9C"/>
<stop offset="0.5" stop-color="#8A17C9"/>
<stop offset="1" stop-color="#C020F0"/>
</linearGradient>
<linearGradient id="paint36_linear_503_888" x1="129.799" y1="173.353" x2="128.334" y2="173.351" gradientUnits="userSpaceOnUse">
<stop stop-color="#5B0E9C"/>
<stop offset="0.5" stop-color="#8A17C9"/>
<stop offset="1" stop-color="#C020F0"/>
</linearGradient>
<linearGradient id="paint37_linear_503_888" x1="133.132" y1="179.353" x2="131.667" y2="179.351" gradientUnits="userSpaceOnUse">
<stop stop-color="#5B0E9C"/>
<stop offset="0.5" stop-color="#8A17C9"/>
<stop offset="1" stop-color="#C020F0"/>
</linearGradient>
<linearGradient id="paint38_linear_503_888" x1="135.334" y1="185.481" x2="133.667" y2="185.478" gradientUnits="userSpaceOnUse">
<stop stop-color="#5B0E9C"/>
<stop offset="0.5" stop-color="#8A17C9"/>
<stop offset="1" stop-color="#C020F0"/>
</linearGradient>
<linearGradient id="paint39_linear_503_888" x1="125.385" y1="166.947" x2="123.911" y2="166.945" gradientUnits="userSpaceOnUse">
<stop stop-color="#5B0E9C"/>
<stop offset="0.5" stop-color="#8A17C9"/>
<stop offset="1" stop-color="#C020F0"/>
</linearGradient>
<linearGradient id="paint40_linear_503_888" x1="120.052" y1="161.614" x2="118.577" y2="161.612" gradientUnits="userSpaceOnUse">
<stop stop-color="#5B0E9C"/>
<stop offset="0.5" stop-color="#8A17C9"/>
<stop offset="1" stop-color="#C020F0"/>
</linearGradient>
<linearGradient id="paint41_linear_503_888" x1="115.403" y1="156.41" x2="113.697" y2="156.408" gradientUnits="userSpaceOnUse">
<stop stop-color="#5B0E9C"/>
<stop offset="0.5" stop-color="#8A17C9"/>
<stop offset="1" stop-color="#C020F0"/>
</linearGradient>
<linearGradient id="paint42_linear_503_888" x1="142.527" y1="182.014" x2="135.858" y2="182.002" gradientUnits="userSpaceOnUse">
<stop stop-color="#5B0E9C"/>
<stop offset="0.5" stop-color="#8A17C9"/>
<stop offset="1" stop-color="#C020F0"/>
</linearGradient>
<linearGradient id="paint43_linear_503_888" x1="141.86" y1="192.176" x2="137.192" y2="192.167" gradientUnits="userSpaceOnUse">
<stop stop-color="#5B0E9C"/>
<stop offset="0.5" stop-color="#8A17C9"/>
<stop offset="1" stop-color="#C020F0"/>
</linearGradient>
<linearGradient id="paint44_linear_503_888" x1="108.736" y1="150.41" x2="107.031" y2="150.408" gradientUnits="userSpaceOnUse">
<stop stop-color="#5B0E9C"/>
<stop offset="0.5" stop-color="#8A17C9"/>
<stop offset="1" stop-color="#C020F0"/>
</linearGradient>
</defs>
</svg>
