<svg width="190" height="297" viewBox="0 0 190 297" fill="none" xmlns="http://www.w3.org/2000/svg">
<g filter="url(#filter0_d_497_1845)">
<path d="M107.187 257.236C112.594 252.244 118.97 248.892 124.909 244.907C135.616 237.722 145.012 229.283 151.194 217.699C161.247 198.859 159.983 180.35 149.592 162.157C143.788 151.996 135.01 144.679 125.695 137.923C116.598 131.325 107.002 125.458 97.8777 118.904C88.1015 111.882 79.1449 104.028 73.0392 93.4149C69.4973 87.2584 67.8027 80.5361 67.2821 73.5347C66.9371 68.894 66.9294 64.2194 67.4812 59.5757C67.5657 58.8649 67.3396 58.2851 67.0751 57.6898C60.7681 43.4946 63.2162 30.3055 72.1535 18.1877C79.5444 8.16675 89.5943 2.23582 102.073 0.676798C105.41 0.259882 108.687 0.615123 111.967 1.37775C111.193 2.10818 110.236 2.14344 109.341 2.28901C94.0688 4.77581 82.1296 17.6951 79.9888 33.0545C77.2609 52.626 91.671 67.8483 108.368 71.0172C120.269 73.2757 130.447 70.0154 138.694 61.0683C139.774 59.8965 140.638 58.5254 141.823 56.9537C142.036 58.9904 141.422 60.4443 140.853 61.8777C136.644 72.4755 128.541 78.5262 117.729 81.0553C102.961 84.5097 89.9788 80.31 78.2726 71.2252C76.25 69.6555 74.4037 67.8899 72.2832 66.321C73.2553 67.5325 74.1233 68.8485 75.2169 69.9382C81.5178 76.2169 86.8282 83.3376 92.4962 90.152C99.2966 98.3278 107.146 105.392 115.398 112.04C124.76 119.582 134.26 126.963 142.688 135.588C153.256 146.403 160.924 158.87 163.609 173.907C166.405 189.557 163.246 204.3 155.839 218.239C150.648 228.007 142.775 235.253 133.972 241.64C132.55 242.672 131.156 243.741 129.738 244.8C130.13 245.291 130.463 245.065 130.716 244.965C139.779 241.362 148.683 237.461 155.808 230.511C159.15 227.251 161.641 223.423 163.047 218.934C163.184 218.497 163.355 218.069 163.535 217.648C163.579 217.547 163.726 217.49 163.921 217.339C164.955 218.677 164.804 220.292 164.998 221.793C165.482 225.539 165.29 229.275 164.469 232.952C162.856 240.178 157.76 244.093 151.264 246.651C144.589 249.28 137.519 250.639 130.779 253.049C121.773 256.268 113.034 260.008 105.692 266.365C101.26 270.202 97.8425 274.816 95.2569 280.062C95.0348 280.513 95.0058 281.107 94.4016 281.294C93.1643 277.183 99.9054 264.452 107.187 257.236Z" fill="#E5E7EB" stroke="#5B0E9C" stroke-opacity="0.5"/>
<path d="M91.7285 223.501C89.542 224.84 87.3173 225.865 85.6194 227.68C83.7788 229.646 82.1148 233.589 82.0266 234.5C81.8865 234.411 81.5266 236 81.4172 237.022C81.3078 238.045 80.8958 239.836 82.5547 240.696C83.6725 241.276 83.7176 242.172 82.724 242.84C81.769 243.481 81.8082 244.327 81.7782 245.246C81.695 247.802 82.0077 250.369 81.5551 252.914C81.4439 253.54 81.4014 254.233 80.311 254.725C80.311 248.5 80.6635 242.477 79.4535 236.406C78.9966 237.022 78.9966 238.5 78.9966 240.102C79.0234 244.5 79.3217 250.5 79.4535 254.725C79.4578 254.864 79.2285 252.857 78.9966 253.168C78.1537 251.778 78.3177 250.309 78.1772 248.974C76.8195 236.076 71.3143 225.599 60.6296 217.943C54.657 213.663 48.5937 209.48 43.2975 204.322C34.975 196.217 29.8419 186.446 28.0267 174.991C25.7916 160.887 29.5623 147.815 35.1927 135.108C37.3518 130.234 39.9615 125.604 43.0397 121.245C43.2914 120.889 43.4198 120.378 44.1092 120.336C44.544 121.014 44.0736 121.683 43.9242 122.299C42.8529 126.716 42.1909 131.202 42.1067 135.73C41.8337 150.414 47.1481 162.891 57.3553 173.344C62.5159 178.629 68.4614 182.979 74.3886 187.333C84.053 194.432 93.3457 201.919 100.463 211.726C105.494 218.66 109.487 226.062 110.445 234.761C111.027 240.045 110.004 245.208 109.319 250.412C109.023 252.662 107.69 253.969 106.45 255.5C105.469 254.928 105.754 254.126 105.747 253.454C105.707 249.777 105.027 243.5 105.027 243C105.027 242 101.908 241.398 104.027 240C104.027 240 104.966 239.786 105.025 239C105.106 237.923 105.085 235.298 105.025 234.796C104.554 230.862 102.463 227.982 99.2407 225.846C97.6553 224.795 95.9781 223.878 94.4246 222.785C93.2214 221.938 92.6569 223.036 91.7285 223.501ZM51.4401 184.855C52.4772 184.315 52.2085 183.542 51.6551 182.909C50.7592 181.885 50.5624 180.936 51.3502 179.733C51.9672 178.79 51.7038 177.912 50.4367 178.158C48.716 178.491 47.8651 177.762 47.3019 176.298C47.1431 175.885 46.8755 175.438 46.3162 175.47C45.7694 175.501 45.4132 175.962 45.4178 176.377C45.4419 178.534 44.1409 179.308 42.2835 179.63C42.0209 179.676 41.8106 180.022 41.2387 180.526C43.8605 181.882 44.7626 184.122 44.5861 187.028C46.0924 186.296 47.2868 185.664 48.4202 186.937C49.3086 186.074 49.406 184.289 51.4401 184.855ZM72.655 211.996C73.8106 212.851 74.0949 211.845 74.1974 211.124C74.4439 209.387 75.2961 208.437 77.0769 208.325C77.4572 208.301 77.8384 208.104 77.9723 207.577C77.9358 207.456 77.939 207.202 77.8167 207.103C76.483 206.025 75.3879 205.002 75.5752 202.922C75.6862 201.689 74.3138 201.468 73.3997 202.267C72.3627 203.173 71.4245 203.206 70.1797 202.765C68.735 202.253 67.8681 203.035 68.3284 204.418C68.7292 205.623 68.5822 206.543 67.8354 207.515C67.0812 208.497 67.2894 209.463 68.5992 209.362C70.6275 209.204 71.5495 210.418 72.655 211.996ZM80.0876 232.261C80.048 232.683 79.7409 233.159 80.311 233.464C80.8 233.332 80.8253 232.9 80.9467 232.543C82.2569 228.698 84.771 225.882 88.2706 223.874C89.7479 223.027 91.2109 222.138 92.591 221.143C93.3382 220.605 93.8074 220.773 94.5077 221.191C99.1329 223.947 103.975 226.439 106.373 231.756C106.161 228.776 104.531 226.662 102.408 224.863C99.9892 222.813 97.0752 221.516 94.4807 219.734C93.7789 219.252 93.2526 219.499 92.6777 219.828C90.3448 221.164 87.9041 222.349 85.7175 223.893C82.9174 225.871 80.9307 228.552 80.0876 232.261ZM107.027 246.5C106.682 253.454 106.527 253.5 107.527 253.5C108.527 253.5 108.605 237.998 108.027 236.406C107.892 237.474 107.527 236.406 107.027 246.5Z" fill="#E5E7EB" stroke="#5B0E9C" stroke-opacity="0.5"/>
<path d="M60.8974 96.3718C56.6048 115.441 58.1873 133.446 69.2762 149.922C74.1294 157.133 80.6072 162.836 87.0252 168.579C97.1983 177.681 106.075 187.775 111.746 200.393C117.79 213.841 118.736 227.573 114.354 241.66C114.238 242.034 114.104 242.407 113.935 242.76C113.858 242.918 113.673 243.024 113.56 243.132C113.145 243.098 113.108 242.811 113.139 242.558C115.509 223.403 108.717 207.555 95.6034 193.99C89.1257 187.289 81.5057 182.004 74.0073 176.564C67.2772 171.681 60.9934 166.305 56.1571 159.457C47.2598 146.859 44.8715 132.98 48.2839 118.046C50.9424 106.412 56.3361 96.0248 63.0577 86.2662C63.2449 85.9944 63.4354 85.7285 64.0594 85.7139C62.9098 89.2337 61.7393 92.6733 60.8974 96.3718Z" fill="#E5E7EB" stroke="#5B0E9C" stroke-opacity="0.5"/>
<path d="M57.8926 244.168C69.66 248.674 79.51 255.438 86.5187 265.955C89.4247 270.316 91.3961 275.086 93.0112 280.03C93.1256 280.38 93.3262 280.783 92.8764 281.069C92.5294 281.144 92.3821 280.891 92.2716 280.671C86.6513 269.512 77.3684 262.411 66.309 257.302C58.6949 253.785 50.5577 251.92 42.478 249.881C39.9931 249.254 37.5507 248.479 35.2063 247.443C27.114 243.866 23.7877 237.7 24.3457 229.201C24.7723 222.704 27.0041 216.654 30.1241 210.95C30.45 210.355 30.6658 209.607 31.6953 209.265C31.6335 210.375 31.6064 211.373 31.5181 212.366C30.821 220.201 33.6435 226.737 38.814 232.458C43.0123 237.103 48.267 240.11 53.9481 242.498C55.2181 243.032 56.4834 243.577 57.8926 244.168Z" fill="#E5E7EB" stroke="#5B0E9C" stroke-opacity="0.5"/>
<path d="M71.0113 271.24C79.679 275.108 87.5566 279.847 93.66 287.4C95.893 284.767 98.1497 282.507 100.688 280.523C110.156 273.122 121.04 268.901 132.609 266.216C141.347 264.188 150.213 263.275 159.182 263.482C164.309 263.599 169.413 264.183 174.423 265.195C177.926 265.903 180.903 268.141 184.527 269.11C183.562 270.961 182.354 272.078 181.337 273.333C180.805 273.989 180.126 273.616 179.514 273.426C165.22 269.007 150.666 268.186 135.894 270.209C123.029 271.971 110.939 275.815 100.21 283.35C98.5455 284.519 96.8774 285.707 95.3628 287.057C94.1152 288.169 93.2014 288.078 91.9633 287.04C83.6304 280.051 74.176 275.184 63.6644 272.405C53.8199 269.803 43.8312 268.78 33.6338 269.394C26.5968 269.817 19.678 270.836 12.809 272.328C12.2959 272.439 11.7857 272.567 11.2794 272.706C7.06926 273.86 6.6126 273.651 4.52661 269.598C4.62349 269.151 4.98066 268.977 5.35103 268.829C10.7024 266.701 16.0405 264.735 21.8947 264.16C38.8274 262.495 55.1568 264.586 71.0113 271.24Z" fill="#E5E7EB" stroke="#5B0E9C" stroke-opacity="0.5"/>
<path d="M116.596 263.46C127.948 257.137 140.151 253.975 152.729 251.976C158.295 251.091 163.834 250.036 169.451 249.496C170.323 249.412 171.186 249.418 171.965 249.762C172.906 250.177 173.453 250.801 172.685 251.913C170.661 254.843 170.71 255.098 173.246 257.617C173.599 257.968 174.133 258.227 174.01 259.05C171.519 259.669 169.02 258.925 166.528 258.775C144.377 257.438 123.577 261.632 104.742 273.827C102.839 275.06 101.182 276.671 99.3655 278.143C99.6798 275.537 107.903 268.546 116.596 263.46Z" fill="#E5E7EB" stroke="#5B0E9C" stroke-opacity="0.5"/>
<path d="M77.38 270.462C66.2216 264.374 54.4403 260.72 41.9574 259.391C34.8108 258.631 27.6676 259.108 20.5405 259.855C18.3291 260.087 16.1106 260.3 13.9307 259.51C13.9473 258.263 14.9932 257.827 15.6015 257.117C16.5622 255.995 16.9026 255.02 15.9401 253.631C14.589 251.682 15.3289 250.46 17.7815 250.409C23.9194 250.28 29.9362 251.338 35.9496 252.371C47.1189 254.292 57.9599 257.288 68.2792 262.077C75.9977 265.658 82.2149 271.146 88.042 277.172C88.1763 277.311 88.2918 277.479 88.3737 277.653C88.4207 277.753 88.3822 277.893 88.3822 278.487C84.9068 275.309 81.3524 272.709 77.38 270.462Z" fill="#E5E7EB" stroke="#5B0E9C" stroke-opacity="0.5"/>
<path d="M101.749 43.0938C98.9613 41.27 96.6854 39.1215 94.9101 36.4596C94.1178 35.2715 94.3299 32.7066 95.2663 31.6926C95.7272 31.1934 96.1974 31.2466 96.6618 31.5802C97.919 32.483 99.3605 33.1888 99.4923 35.0832C99.5716 36.2222 100.658 36.7881 101.471 37.4095C103.452 38.9238 105.558 40.2783 107.501 41.8365C111.354 44.9247 111.585 48.9977 107.835 52.2278C103.997 55.5338 99.5687 57.7842 94.3219 57.8919C92.6863 57.9255 91.3825 57.2595 90.5035 55.8714C88.8275 53.2246 89.8941 46.5731 92.4457 44.2769C92.5443 45.5733 92.0226 46.6525 91.7868 47.763C91.565 48.8076 91.4354 49.8438 91.585 50.886C91.913 53.1695 93.206 54.3296 95.488 54.0702C99.6449 53.5976 103.211 51.6267 106.524 49.204C107.593 48.4225 107.137 47.4432 106.37 46.6686C105.025 45.3092 103.438 44.2482 101.749 43.0938Z" fill="#E5E7EB" stroke="#5B0E9C" stroke-opacity="0.5"/>
<path d="M79.1847 117.024C79.7006 116.446 80.1633 116.291 80.6186 116.841C80.8705 117.146 81.1342 117.486 81.2461 117.854C82.2409 121.128 84.5805 122.256 87.8343 122.309C89.7267 122.339 89.9914 123.197 88.8312 124.721C88.7103 124.88 88.6013 125.065 88.4432 125.176C85.9485 126.927 85.4514 129.18 86.6003 131.945C86.8976 132.661 87.0227 133.576 86.2784 134.171C85.5708 134.736 84.8955 134.118 84.2205 133.915C84.0933 133.877 83.9569 133.837 83.8524 133.76C81.5173 132.047 79.2247 132.273 76.8735 133.786C76.2002 134.219 75.3518 134.914 74.504 134.177C73.8249 133.587 73.9547 132.648 74.1876 131.911C75.0744 129.104 74.2535 127.019 71.8101 125.42C71.1288 124.975 70.2595 124.343 70.6049 123.328C70.9423 122.335 72.0173 122.251 72.8205 122.338C76.7579 122.761 77.8304 119.859 79.1847 117.024Z" fill="#E5E7EB" stroke="#5B0E9C" stroke-opacity="0.5"/>
<path d="M100.273 136.966C100.735 136.452 101.149 136.314 101.556 136.804C101.782 137.074 102.018 137.376 102.118 137.704C103.008 140.614 105.101 141.616 108.012 141.663C109.706 141.69 109.943 142.453 108.904 143.808C108.796 143.949 108.699 144.113 108.557 144.212C106.325 145.768 105.88 147.771 106.908 150.229C107.174 150.865 107.286 151.678 106.62 152.207C105.987 152.71 105.383 152.16 104.779 151.98C104.665 151.946 104.543 151.911 104.45 151.843C102.36 150.32 100.309 150.52 98.2054 151.865C97.603 152.25 96.8438 152.868 96.0853 152.213C95.4777 151.688 95.5939 150.854 95.8022 150.199C96.5957 147.704 95.8612 145.85 93.675 144.429C93.0654 144.033 92.2877 143.472 92.5966 142.569C92.8986 141.687 93.8604 141.612 94.579 141.689C98.102 142.066 99.0616 139.485 100.273 136.966Z" fill="#E5E7EB" stroke="#5B0E9C" stroke-opacity="0.5"/>
<path d="M116.362 153.908C116.769 153.458 117.135 153.337 117.494 153.766C117.693 154.003 117.901 154.267 117.989 154.553C118.775 157.099 120.622 157.977 123.191 158.018C124.685 158.042 124.894 158.709 123.978 159.894C123.882 160.018 123.796 160.162 123.671 160.248C121.702 161.61 121.309 163.362 122.216 165.513C122.451 166.069 122.55 166.781 121.962 167.244C121.404 167.684 120.87 167.203 120.338 167.045C120.237 167.015 120.129 166.984 120.047 166.925C118.203 165.592 116.394 165.768 114.537 166.945C114.006 167.282 113.336 167.822 112.667 167.249C112.131 166.79 112.233 166.06 112.417 165.487C113.117 163.303 112.469 161.682 110.54 160.438C110.002 160.091 109.316 159.6 109.588 158.81C109.855 158.039 110.703 157.973 111.338 158.041C114.446 158.37 115.293 156.112 116.362 153.908Z" fill="#E5E7EB" stroke="#5B0E9C" stroke-opacity="0.5"/>
<path d="M130.451 172.85C130.804 172.464 131.12 172.36 131.432 172.728C131.604 172.931 131.784 173.157 131.861 173.403C132.542 175.585 134.142 176.337 136.369 176.372C137.664 176.393 137.845 176.965 137.051 177.981C136.968 178.087 136.894 178.21 136.785 178.284C135.078 179.451 134.738 180.953 135.524 182.797C135.728 183.274 135.813 183.884 135.304 184.28C134.82 184.657 134.358 184.245 133.896 184.11C133.809 184.085 133.716 184.058 133.644 184.007C132.047 182.865 130.478 183.015 128.869 184.024C128.409 184.313 127.828 184.776 127.248 184.285C126.783 183.891 126.872 183.266 127.031 182.774C127.638 180.903 127.077 179.513 125.405 178.447C124.939 178.15 124.344 177.729 124.58 177.052C124.811 176.39 125.547 176.334 126.096 176.392C128.79 176.674 129.524 174.739 130.451 172.85Z" fill="#E5E7EB" stroke="#5B0E9C" stroke-opacity="0.5"/>
<g filter="url(#filter1_d_497_1845)">
<path d="M103.841 133.28C103.438 134.219 102.888 134.727 101.96 134.286C101.445 134.042 101.21 133.552 101.303 132.971C101.408 132.314 101.808 131.865 102.473 131.838C103.321 131.804 103.817 132.263 103.841 133.28Z" fill="#E5E7EB" shape-rendering="crispEdges"/>
<path d="M103.841 133.28C103.438 134.219 102.888 134.727 101.96 134.286C101.445 134.042 101.21 133.552 101.303 132.971C101.408 132.314 101.808 131.865 102.473 131.838C103.321 131.804 103.817 132.263 103.841 133.28Z" stroke="#5B0E9C" stroke-opacity="0.5" shape-rendering="crispEdges"/>
</g>
<path d="M122.195 30.5359C122.519 30.5832 122.846 30.615 123.166 30.6801C126.99 31.4569 127.068 31.5403 126.267 35.3238C125.774 37.6553 126.554 39.8291 127.677 41.6208C131.714 48.0639 131.392 52.6202 125.716 57.5944C120.16 62.4643 113.432 64.4588 106.119 64.6327C105.872 64.6386 105.622 64.552 105.329 64.5007C105.558 63.5146 106.426 63.5587 107.025 63.315C112.69 61.0113 118.269 58.5606 123.308 55.0159C128.017 51.7047 128.218 50.5771 124.672 46.1467C123.815 45.0753 122.92 44.028 122.368 42.7297C121.129 39.8184 123.373 37.1745 126.027 35.5C125.839 34.6805 123.601 34.7673 122.983 34.685C122.057 34.5617 121.078 34.567 120.74 33.4596C120.368 32.2434 121.138 31.4878 122.051 30.664C122.16 30.5572 122.195 30.5359 122.195 30.5359Z" fill="#E5E7EB" stroke="#5B0E9C" stroke-opacity="0.5"/>
<path d="M115.552 46.6938C115.544 50.0784 115.244 53.1947 113.204 55.8521C112.615 56.6198 111.989 57.3515 110.527 57.5167C112.62 53.2328 112.317 48.8879 112.131 44.5986C111.795 36.8652 111.41 29.1301 110.524 21.4328C110.464 20.9126 110.421 20.359 110.21 19.8926C109.033 17.2817 110.697 15.7607 112.474 13.8748C114.116 16.477 116.012 19.0289 115.655 21.8354C115.415 23.7167 114.653 25.5929 114.819 27.6114C115.335 33.8967 115.597 40.193 115.552 46.6938Z" fill="#E5E7EB" stroke="#5B0E9C" stroke-opacity="0.5"/>
<path d="M94.3479 249.892C94.0266 251 94.0266 251 93.6024 252.526C92.7773 250.011 92.2054 247.629 91.0266 245.5C89.825 243.33 88.4367 242.137 85.6835 240.749C90.8323 239.463 92.4265 235.853 93.7674 231.811C94.8453 236.002 96.8251 239.295 101.327 240.914C96.7792 242.289 94.3479 249.892 94.3479 249.892Z" fill="#E5E7EB" stroke="#5B0E9C" stroke-opacity="0.5"/>
<path d="M121.802 28.9962C120.236 27.8325 120.11 26.7801 121.438 25.5326C122.618 24.4236 124.115 23.9257 125.654 23.5587C126.11 23.4501 126.615 23.4453 126.843 23.9621C127.068 24.4705 126.714 24.84 126.365 25.1344C126.122 25.3396 125.819 25.5246 125.514 25.5963C124.25 25.8938 123.199 26.3368 122.998 27.8687C122.953 28.2135 122.366 28.487 121.941 28.8784C121.854 28.9633 121.819 28.9847 121.802 28.9962Z" fill="#E5E7EB" stroke="#5B0E9C" stroke-opacity="0.5"/>
<path d="M105.145 26.3529C106.164 27.6882 106.053 28.9011 105.097 30.0368C104.653 30.5641 104.043 30.8291 103.334 30.5799C102.736 30.3698 102.334 29.9262 102.203 29.3169C102.039 28.5544 102.333 28.0421 103.162 27.9237C104.153 27.7823 103.436 25.718 105.145 26.3529Z" fill="#E5E7EB" stroke="#5B0E9C" stroke-opacity="0.5"/>
<g filter="url(#filter2_d_497_1845)">
<path d="M148.189 192.519C147.083 192.025 146.648 191.314 147.123 190.287C147.416 189.654 147.975 189.279 148.698 189.402C149.41 189.522 149.833 189.996 149.896 190.735C149.982 191.739 149.494 192.321 148.531 192.535C148.468 192.549 148.402 192.546 148.189 192.519Z" fill="#E5E7EB" shape-rendering="crispEdges"/>
<path d="M148.189 192.519C147.083 192.025 146.648 191.314 147.123 190.287C147.416 189.654 147.975 189.279 148.698 189.402C149.41 189.522 149.833 189.996 149.896 190.735C149.982 191.739 149.494 192.321 148.531 192.535C148.468 192.549 148.402 192.546 148.189 192.519Z" stroke="#5B0E9C" stroke-opacity="0.5" shape-rendering="crispEdges"/>
</g>
<g filter="url(#filter3_d_497_1845)">
<path d="M146.189 182.519C145.083 182.025 144.648 181.314 145.123 180.287C145.416 179.654 145.975 179.279 146.698 179.402C147.41 179.522 147.833 179.996 147.896 180.735C147.982 181.739 147.494 182.321 146.531 182.535C146.468 182.549 146.402 182.546 146.189 182.519Z" fill="#E5E7EB" shape-rendering="crispEdges"/>
<path d="M146.189 182.519C145.083 182.025 144.648 181.314 145.123 180.287C145.416 179.654 145.975 179.279 146.698 179.402C147.41 179.522 147.833 179.996 147.896 180.735C147.982 181.739 147.494 182.321 146.531 182.535C146.468 182.549 146.402 182.546 146.189 182.519Z" stroke="#5B0E9C" stroke-opacity="0.5" shape-rendering="crispEdges"/>
</g>
<g filter="url(#filter4_d_497_1845)">
<path d="M148.189 200.519C147.083 200.025 146.648 199.314 147.123 198.287C147.416 197.654 147.975 197.279 148.698 197.402C149.41 197.522 149.833 197.996 149.896 198.735C149.982 199.739 149.494 200.321 148.531 200.535C148.468 200.549 148.402 200.546 148.189 200.519Z" fill="#E5E7EB" shape-rendering="crispEdges"/>
<path d="M148.189 200.519C147.083 200.025 146.648 199.314 147.123 198.287C147.416 197.654 147.975 197.279 148.698 197.402C149.41 197.522 149.833 197.996 149.896 198.735C149.982 199.739 149.494 200.321 148.531 200.535C148.468 200.549 148.402 200.546 148.189 200.519Z" stroke="#5B0E9C" stroke-opacity="0.5" shape-rendering="crispEdges"/>
</g>
<g filter="url(#filter5_d_497_1845)">
<path d="M131.017 231.911C131.74 232.882 131.605 233.647 130.72 234.178C130.106 234.546 129.449 234.436 128.931 233.9C128.466 233.418 128.39 232.815 128.727 232.276C129.26 231.424 130.011 231.213 131.017 231.911Z" fill="#E5E7EB" shape-rendering="crispEdges"/>
<path d="M131.017 231.911C131.74 232.882 131.605 233.647 130.72 234.178C130.106 234.546 129.449 234.436 128.931 233.9C128.466 233.418 128.39 232.815 128.727 232.276C129.26 231.424 130.011 231.213 131.017 231.911Z" stroke="#5B0E9C" stroke-opacity="0.5" shape-rendering="crispEdges"/>
</g>
<g filter="url(#filter6_d_497_1845)">
<path d="M127.024 236.919C127.748 237.89 127.613 238.655 126.728 239.186C126.114 239.554 125.456 239.444 124.938 238.907C124.473 238.426 124.398 237.823 124.735 237.283C125.267 236.431 126.019 236.221 127.024 236.919Z" fill="#E5E7EB" shape-rendering="crispEdges"/>
<path d="M127.024 236.919C127.748 237.89 127.613 238.655 126.728 239.186C126.114 239.554 125.456 239.444 124.938 238.907C124.473 238.426 124.398 237.823 124.735 237.283C125.267 236.431 126.019 236.221 127.024 236.919Z" stroke="#5B0E9C" stroke-opacity="0.5" shape-rendering="crispEdges"/>
</g>
<g filter="url(#filter7_d_497_1845)">
<path d="M111.841 139.28C111.438 140.219 110.888 140.727 109.96 140.286C109.445 140.042 109.21 139.552 109.303 138.971C109.408 138.314 109.808 137.865 110.473 137.838C111.321 137.804 111.817 138.263 111.841 139.28Z" fill="#E5E7EB" shape-rendering="crispEdges"/>
<path d="M111.841 139.28C111.438 140.219 110.888 140.727 109.96 140.286C109.445 140.042 109.21 139.552 109.303 138.971C109.408 138.314 109.808 137.865 110.473 137.838C111.321 137.804 111.817 138.263 111.841 139.28Z" stroke="#5B0E9C" stroke-opacity="0.5" shape-rendering="crispEdges"/>
</g>
<g filter="url(#filter8_d_497_1845)">
<path d="M133.084 223.944C132.681 224.883 132.131 225.391 131.203 224.95C130.688 224.705 130.454 224.216 130.547 223.635C130.652 222.978 131.052 222.528 131.716 222.502C132.564 222.468 133.06 222.926 133.084 223.944Z" fill="#E5E7EB" shape-rendering="crispEdges"/>
<path d="M133.084 223.944C132.681 224.883 132.131 225.391 131.203 224.95C130.688 224.705 130.454 224.216 130.547 223.635C130.652 222.978 131.052 222.528 131.716 222.502C132.564 222.468 133.06 222.926 133.084 223.944Z" stroke="#5B0E9C" stroke-opacity="0.5" shape-rendering="crispEdges"/>
</g>
<g filter="url(#filter9_d_497_1845)">
<path d="M133.084 212.944C132.681 213.883 132.131 214.391 131.203 213.95C130.688 213.705 130.454 213.216 130.547 212.635C130.652 211.978 131.052 211.528 131.716 211.502C132.564 211.468 133.06 211.926 133.084 212.944Z" fill="#E5E7EB" shape-rendering="crispEdges"/>
<path d="M133.084 212.944C132.681 213.883 132.131 214.391 131.203 213.95C130.688 213.705 130.454 213.216 130.547 212.635C130.652 211.978 131.052 211.528 131.716 211.502C132.564 211.468 133.06 211.926 133.084 212.944Z" stroke="#5B0E9C" stroke-opacity="0.5" shape-rendering="crispEdges"/>
</g>
<g filter="url(#filter10_d_497_1845)">
<path d="M95.841 127.28C95.4379 128.219 94.8881 128.727 93.96 128.286C93.4449 128.042 93.2104 127.552 93.3034 126.971C93.4085 126.314 93.8084 125.865 94.4725 125.838C95.3205 125.804 95.8171 126.263 95.841 127.28Z" fill="#E5E7EB" shape-rendering="crispEdges"/>
<path d="M95.841 127.28C95.4379 128.219 94.8881 128.727 93.96 128.286C93.4449 128.042 93.2104 127.552 93.3034 126.971C93.4085 126.314 93.8084 125.865 94.4725 125.838C95.3205 125.804 95.8171 126.263 95.841 127.28Z" stroke="#5B0E9C" stroke-opacity="0.5" shape-rendering="crispEdges"/>
</g>
<g filter="url(#filter11_d_497_1845)">
<path d="M81.9326 140.854C82.5485 141.808 82.3125 142.502 81.5231 142.968C81.0333 143.257 80.4912 143.127 80.0903 142.689C79.7002 142.263 79.5804 141.727 79.8413 141.227C80.2957 140.357 81.0099 140.267 81.9326 140.854Z" fill="#E5E7EB" shape-rendering="crispEdges"/>
<path d="M81.9326 140.854C82.5485 141.808 82.3125 142.502 81.5231 142.968C81.0333 143.257 80.4912 143.127 80.0903 142.689C79.7002 142.263 79.5804 141.727 79.8413 141.227C80.2957 140.357 81.0099 140.267 81.9326 140.854Z" stroke="#5B0E9C" stroke-opacity="0.5" shape-rendering="crispEdges"/>
</g>
<g filter="url(#filter12_d_497_1845)">
<path d="M125.121 152.787C126.184 152.314 126.752 152.756 127.033 153.601C127.242 154.23 126.923 154.731 126.376 155.069C125.862 155.388 125.364 155.28 124.956 154.893C124.251 154.222 124.349 153.532 125.121 152.787Z" fill="#E5E7EB" shape-rendering="crispEdges"/>
<path d="M125.121 152.787C126.184 152.314 126.752 152.756 127.033 153.601C127.242 154.23 126.923 154.731 126.376 155.069C125.862 155.388 125.364 155.28 124.956 154.893C124.251 154.222 124.349 153.532 125.121 152.787Z" stroke="#5B0E9C" stroke-opacity="0.5" shape-rendering="crispEdges"/>
</g>
<g filter="url(#filter13_d_497_1845)">
<path d="M134.121 162.787C135.184 162.314 135.752 162.756 136.033 163.601C136.242 164.23 135.923 164.731 135.376 165.069C134.862 165.388 134.364 165.28 133.956 164.893C133.251 164.222 133.349 163.532 134.121 162.787Z" fill="#E5E7EB" shape-rendering="crispEdges"/>
<path d="M134.121 162.787C135.184 162.314 135.752 162.756 136.033 163.601C136.242 164.23 135.923 164.731 135.376 165.069C134.862 165.388 134.364 165.28 133.956 164.893C133.251 164.222 133.349 163.532 134.121 162.787Z" stroke="#5B0E9C" stroke-opacity="0.5" shape-rendering="crispEdges"/>
</g>
<path d="M118.167 144.693C119.231 144.22 119.798 144.662 120.079 145.507C120.288 146.136 119.97 146.637 119.423 146.976C118.908 147.294 118.411 147.187 118.003 146.799C117.297 146.128 117.395 145.439 118.167 144.693Z" fill="#E5E7EB" stroke="#5B0E9C" stroke-opacity="0.5"/>
<g filter="url(#filter14_d_497_1845)">
<path d="M140.121 170.787C141.184 170.314 141.752 170.756 142.033 171.601C142.242 172.23 141.923 172.731 141.376 173.069C140.862 173.388 140.364 173.28 139.956 172.893C139.251 172.222 139.349 171.532 140.121 170.787Z" fill="#E5E7EB" shape-rendering="crispEdges"/>
<path d="M140.121 170.787C141.184 170.314 141.752 170.756 142.033 171.601C142.242 172.23 141.923 172.731 141.376 173.069C140.862 173.388 140.364 173.28 139.956 172.893C139.251 172.222 139.349 171.532 140.121 170.787Z" stroke="#5B0E9C" stroke-opacity="0.5" shape-rendering="crispEdges"/>
</g>
<g filter="url(#filter15_d_497_1845)">
<path d="M136.415 228.576C135.142 228.928 134.677 228.361 134.855 227.31C134.96 226.695 135.513 226.242 136.162 226.503C137.218 226.926 137.226 227.677 136.415 228.576Z" fill="#E5E7EB" shape-rendering="crispEdges"/>
<path d="M136.415 228.576C135.142 228.928 134.677 228.361 134.855 227.31C134.96 226.695 135.513 226.242 136.162 226.503C137.218 226.926 137.226 227.677 136.415 228.576Z" stroke="#5B0E9C" stroke-opacity="0.5" shape-rendering="crispEdges"/>
</g>
<g filter="url(#filter16_d_497_1845)">
<path d="M141.415 221.576C140.142 221.928 139.677 221.361 139.855 220.31C139.96 219.695 140.513 219.242 141.162 219.503C142.218 219.926 142.226 220.677 141.415 221.576Z" fill="#E5E7EB" shape-rendering="crispEdges"/>
<path d="M141.415 221.576C140.142 221.928 139.677 221.361 139.855 220.31C139.96 219.695 140.513 219.242 141.162 219.503C142.218 219.926 142.226 220.677 141.415 221.576Z" stroke="#5B0E9C" stroke-opacity="0.5" shape-rendering="crispEdges"/>
</g>
<g filter="url(#filter17_d_497_1845)">
<path d="M144.415 215.576C143.142 215.928 142.677 215.361 142.855 214.31C142.96 213.695 143.513 213.242 144.162 213.503C145.218 213.926 145.226 214.677 144.415 215.576Z" fill="#E5E7EB" shape-rendering="crispEdges"/>
<path d="M144.415 215.576C143.142 215.928 142.677 215.361 142.855 214.31C142.96 213.695 143.513 213.242 144.162 213.503C145.218 213.926 145.226 214.677 144.415 215.576Z" stroke="#5B0E9C" stroke-opacity="0.5" shape-rendering="crispEdges"/>
</g>
<g filter="url(#filter18_d_497_1845)">
<path d="M147.415 208.576C146.142 208.928 145.677 208.361 145.855 207.31C145.96 206.695 146.513 206.242 147.162 206.503C148.218 206.926 148.226 207.677 147.415 208.576Z" fill="#E5E7EB" shape-rendering="crispEdges"/>
<path d="M147.415 208.576C146.142 208.928 145.677 208.361 145.855 207.31C145.96 206.695 146.513 206.242 147.162 206.503C148.218 206.926 148.226 207.677 147.415 208.576Z" stroke="#5B0E9C" stroke-opacity="0.5" shape-rendering="crispEdges"/>
</g>
<path d="M123.435 184.583C123.097 185.645 122.497 186 121.653 185.367C121.079 184.936 121.124 184.272 121.645 183.851C122.455 183.196 123.081 183.496 123.435 184.583Z" fill="#E5E7EB" stroke="#5B0E9C" stroke-opacity="0.5"/>
<g filter="url(#filter19_d_497_1845)">
<path d="M128.435 193.583C128.097 194.645 127.497 195 126.653 194.367C126.079 193.936 126.124 193.272 126.645 192.851C127.455 192.196 128.081 192.496 128.435 193.583Z" fill="#E5E7EB" shape-rendering="crispEdges"/>
<path d="M128.435 193.583C128.097 194.645 127.497 195 126.653 194.367C126.079 193.936 126.124 193.272 126.645 192.851C127.455 192.196 128.081 192.496 128.435 193.583Z" stroke="#5B0E9C" stroke-opacity="0.5" shape-rendering="crispEdges"/>
</g>
<g filter="url(#filter20_d_497_1845)">
<path d="M131.738 202.744C131.353 203.965 130.67 204.374 129.71 203.646C129.057 203.15 129.108 202.387 129.701 201.902C130.623 201.149 131.336 201.494 131.738 202.744Z" fill="#E5E7EB" shape-rendering="crispEdges"/>
<path d="M131.738 202.744C131.353 203.965 130.67 204.374 129.71 203.646C129.057 203.15 129.108 202.387 129.701 201.902C130.623 201.149 131.336 201.494 131.738 202.744Z" stroke="#5B0E9C" stroke-opacity="0.5" shape-rendering="crispEdges"/>
</g>
<g filter="url(#filter21_d_497_1845)">
<path d="M116.022 173.848C117.029 174.547 117.064 175.29 116.194 175.909C115.665 176.285 114.997 176.117 114.745 175.476C114.341 174.451 114.809 173.89 116.022 173.848Z" fill="#E5E7EB" shape-rendering="crispEdges"/>
<path d="M116.022 173.848C117.029 174.547 117.064 175.29 116.194 175.909C115.665 176.285 114.997 176.117 114.745 175.476C114.341 174.451 114.809 173.89 116.022 173.848Z" stroke="#5B0E9C" stroke-opacity="0.5" shape-rendering="crispEdges"/>
</g>
<g filter="url(#filter22_d_497_1845)">
<path d="M108.022 165.848C109.029 166.547 109.064 167.29 108.194 167.909C107.665 168.285 106.997 168.117 106.745 167.476C106.341 166.451 106.809 165.89 108.022 165.848Z" fill="#E5E7EB" shape-rendering="crispEdges"/>
<path d="M108.022 165.848C109.029 166.547 109.064 167.29 108.194 167.909C107.665 168.285 106.997 168.117 106.745 167.476C106.341 166.451 106.809 165.89 108.022 165.848Z" stroke="#5B0E9C" stroke-opacity="0.5" shape-rendering="crispEdges"/>
</g>
<g filter="url(#filter23_d_497_1845)">
<path d="M101.841 159.28C101.438 160.219 100.888 160.727 99.96 160.286C99.4449 160.042 99.2104 159.552 99.3034 158.971C99.4085 158.314 99.8084 157.865 100.473 157.838C101.321 157.804 101.817 158.263 101.841 159.28Z" fill="#E5E7EB" shape-rendering="crispEdges"/>
<path d="M101.841 159.28C101.438 160.219 100.888 160.727 99.96 160.286C99.4449 160.042 99.2104 159.552 99.3034 158.971C99.4085 158.314 99.8084 157.865 100.473 157.838C101.321 157.804 101.817 158.263 101.841 159.28Z" stroke="#5B0E9C" stroke-opacity="0.5" shape-rendering="crispEdges"/>
</g>
<g filter="url(#filter24_d_497_1845)">
<path d="M137.083 192.762C137.355 192.473 137.599 192.395 137.838 192.671C137.971 192.823 138.11 192.993 138.168 193.177C138.692 194.814 139.923 195.378 141.636 195.404C142.632 195.42 142.771 195.849 142.161 196.611C142.097 196.69 142.04 196.782 141.956 196.838C140.643 197.713 140.382 198.84 140.986 200.223C141.143 200.58 141.209 201.038 140.817 201.335C140.445 201.618 140.089 201.309 139.734 201.208C139.667 201.188 139.595 201.169 139.54 201.13C138.311 200.274 137.105 200.386 135.867 201.143C135.513 201.36 135.066 201.707 134.62 201.338C134.263 201.043 134.331 200.574 134.453 200.206C134.92 198.802 134.488 197.76 133.202 196.96C132.844 196.737 132.386 196.421 132.568 195.914C132.745 195.418 133.311 195.376 133.734 195.419C135.806 195.631 136.371 194.179 137.083 192.762Z" fill="#E5E7EB" shape-rendering="crispEdges"/>
<path d="M137.083 192.762C137.355 192.473 137.599 192.395 137.838 192.671C137.971 192.823 138.11 192.993 138.168 193.177C138.692 194.814 139.923 195.378 141.636 195.404C142.632 195.42 142.771 195.849 142.161 196.611C142.097 196.69 142.04 196.782 141.956 196.838C140.643 197.713 140.382 198.84 140.986 200.223C141.143 200.58 141.209 201.038 140.817 201.335C140.445 201.618 140.089 201.309 139.734 201.208C139.667 201.188 139.595 201.169 139.54 201.13C138.311 200.274 137.105 200.386 135.867 201.143C135.513 201.36 135.066 201.707 134.62 201.338C134.263 201.043 134.331 200.574 134.453 200.206C134.92 198.802 134.488 197.76 133.202 196.96C132.844 196.737 132.386 196.421 132.568 195.914C132.745 195.418 133.311 195.376 133.734 195.419C135.806 195.631 136.371 194.179 137.083 192.762Z" stroke="#5B0E9C" stroke-opacity="0.5" shape-rendering="crispEdges"/>
</g>
<g filter="url(#filter25_d_497_1845)">
<path d="M137.716 209.675C137.906 209.482 138.077 209.43 138.245 209.614C138.338 209.715 138.435 209.829 138.476 209.951C138.842 211.043 139.704 211.419 140.903 211.436C141.6 211.446 141.698 211.732 141.27 212.24C141.226 212.293 141.186 212.355 141.127 212.392C140.208 212.976 140.025 213.727 140.449 214.648C140.558 214.887 140.604 215.192 140.33 215.39C140.069 215.579 139.82 215.373 139.572 215.305C139.525 215.292 139.475 215.279 139.436 215.253C138.576 214.682 137.731 214.758 136.865 215.262C136.617 215.406 136.304 215.638 135.992 215.392C135.742 215.196 135.79 214.883 135.875 214.637C136.202 213.701 135.9 213.006 134.999 212.473C134.748 212.325 134.428 212.114 134.555 211.776C134.68 211.445 135.076 211.417 135.372 211.446C136.822 211.587 137.217 210.62 137.716 209.675Z" fill="#E5E7EB" shape-rendering="crispEdges"/>
<path d="M137.716 209.675C137.906 209.482 138.077 209.43 138.245 209.614C138.338 209.715 138.435 209.829 138.476 209.951C138.842 211.043 139.704 211.419 140.903 211.436C141.6 211.446 141.698 211.732 141.27 212.24C141.226 212.293 141.186 212.355 141.127 212.392C140.208 212.976 140.025 213.727 140.449 214.648C140.558 214.887 140.604 215.192 140.33 215.39C140.069 215.579 139.82 215.373 139.572 215.305C139.525 215.292 139.475 215.279 139.436 215.253C138.576 214.682 137.731 214.758 136.865 215.262C136.617 215.406 136.304 215.638 135.992 215.392C135.742 215.196 135.79 214.883 135.875 214.637C136.202 213.701 135.9 213.006 134.999 212.473C134.748 212.325 134.428 212.114 134.555 211.776C134.68 211.445 135.076 211.417 135.372 211.446C136.822 211.587 137.217 210.62 137.716 209.675Z" stroke="#5B0E9C" stroke-opacity="0.5" shape-rendering="crispEdges"/>
</g>
<g filter="url(#filter26_d_497_1845)">
<path d="M91.841 150.28C91.4379 151.219 90.8881 151.727 89.96 151.286C89.4449 151.042 89.2104 150.552 89.3034 149.971C89.4085 149.314 89.8084 148.865 90.4725 148.838C91.3205 148.804 91.8171 149.263 91.841 150.28Z" fill="#E5E7EB" shape-rendering="crispEdges"/>
<path d="M91.841 150.28C91.4379 151.219 90.8881 151.727 89.96 151.286C89.4449 151.042 89.2104 150.552 89.3034 149.971C89.4085 149.314 89.8084 148.865 90.4725 148.838C91.3205 148.804 91.8171 149.263 91.841 150.28Z" stroke="#5B0E9C" stroke-opacity="0.5" shape-rendering="crispEdges"/>
</g>
</g>
<defs>
<filter id="filter0_d_497_1845" x="0" y="0" width="189.258" height="296.355" filterUnits="userSpaceOnUse" color-interpolation-filters="sRGB">
<feFlood flood-opacity="0" result="BackgroundImageFix"/>
<feColorMatrix in="SourceAlpha" type="matrix" values="0 0 0 0 0 0 0 0 0 0 0 0 0 0 0 0 0 0 127 0" result="hardAlpha"/>
<feOffset dy="4"/>
<feGaussianBlur stdDeviation="2"/>
<feComposite in2="hardAlpha" operator="out"/>
<feColorMatrix type="matrix" values="0 0 0 0 0 0 0 0 0 0 0 0 0 0 0 0 0 0 0.25 0"/>
<feBlend mode="normal" in2="BackgroundImageFix" result="effect1_dropShadow_497_1845"/>
<feBlend mode="normal" in="SourceGraphic" in2="effect1_dropShadow_497_1845" result="shape"/>
</filter>
<filter id="filter1_d_497_1845" x="96.7837" y="131.336" width="11.5597" height="11.6106" filterUnits="userSpaceOnUse" color-interpolation-filters="sRGB">
<feFlood flood-opacity="0" result="BackgroundImageFix"/>
<feColorMatrix in="SourceAlpha" type="matrix" values="0 0 0 0 0 0 0 0 0 0 0 0 0 0 0 0 0 0 127 0" result="hardAlpha"/>
<feOffset dy="4"/>
<feGaussianBlur stdDeviation="2"/>
<feComposite in2="hardAlpha" operator="out"/>
<feColorMatrix type="matrix" values="0 0 0 0 0 0 0 0 0 0 0 0 0 0 0 0 0 0 0.25 0"/>
<feBlend mode="normal" in2="BackgroundImageFix" result="effect1_dropShadow_497_1845"/>
<feBlend mode="normal" in="SourceGraphic" in2="effect1_dropShadow_497_1845" result="shape"/>
</filter>
<filter id="filter2_d_497_1845" x="142.432" y="188.878" width="11.9733" height="12.1648" filterUnits="userSpaceOnUse" color-interpolation-filters="sRGB">
<feFlood flood-opacity="0" result="BackgroundImageFix"/>
<feColorMatrix in="SourceAlpha" type="matrix" values="0 0 0 0 0 0 0 0 0 0 0 0 0 0 0 0 0 0 127 0" result="hardAlpha"/>
<feOffset dy="4"/>
<feGaussianBlur stdDeviation="2"/>
<feComposite in2="hardAlpha" operator="out"/>
<feColorMatrix type="matrix" values="0 0 0 0 0 0 0 0 0 0 0 0 0 0 0 0 0 0 0.25 0"/>
<feBlend mode="normal" in2="BackgroundImageFix" result="effect1_dropShadow_497_1845"/>
<feBlend mode="normal" in="SourceGraphic" in2="effect1_dropShadow_497_1845" result="shape"/>
</filter>
<filter id="filter3_d_497_1845" x="140.432" y="178.878" width="11.9733" height="12.1648" filterUnits="userSpaceOnUse" color-interpolation-filters="sRGB">
<feFlood flood-opacity="0" result="BackgroundImageFix"/>
<feColorMatrix in="SourceAlpha" type="matrix" values="0 0 0 0 0 0 0 0 0 0 0 0 0 0 0 0 0 0 127 0" result="hardAlpha"/>
<feOffset dy="4"/>
<feGaussianBlur stdDeviation="2"/>
<feComposite in2="hardAlpha" operator="out"/>
<feColorMatrix type="matrix" values="0 0 0 0 0 0 0 0 0 0 0 0 0 0 0 0 0 0 0.25 0"/>
<feBlend mode="normal" in2="BackgroundImageFix" result="effect1_dropShadow_497_1845"/>
<feBlend mode="normal" in="SourceGraphic" in2="effect1_dropShadow_497_1845" result="shape"/>
</filter>
<filter id="filter4_d_497_1845" x="142.432" y="196.878" width="11.9733" height="12.1648" filterUnits="userSpaceOnUse" color-interpolation-filters="sRGB">
<feFlood flood-opacity="0" result="BackgroundImageFix"/>
<feColorMatrix in="SourceAlpha" type="matrix" values="0 0 0 0 0 0 0 0 0 0 0 0 0 0 0 0 0 0 127 0" result="hardAlpha"/>
<feOffset dy="4"/>
<feGaussianBlur stdDeviation="2"/>
<feComposite in2="hardAlpha" operator="out"/>
<feColorMatrix type="matrix" values="0 0 0 0 0 0 0 0 0 0 0 0 0 0 0 0 0 0 0.25 0"/>
<feBlend mode="normal" in2="BackgroundImageFix" result="effect1_dropShadow_497_1845"/>
<feBlend mode="normal" in="SourceGraphic" in2="effect1_dropShadow_497_1845" result="shape"/>
</filter>
<filter id="filter5_d_497_1845" x="124.019" y="230.992" width="11.9635" height="11.9015" filterUnits="userSpaceOnUse" color-interpolation-filters="sRGB">
<feFlood flood-opacity="0" result="BackgroundImageFix"/>
<feColorMatrix in="SourceAlpha" type="matrix" values="0 0 0 0 0 0 0 0 0 0 0 0 0 0 0 0 0 0 127 0" result="hardAlpha"/>
<feOffset dy="4"/>
<feGaussianBlur stdDeviation="2"/>
<feComposite in2="hardAlpha" operator="out"/>
<feColorMatrix type="matrix" values="0 0 0 0 0 0 0 0 0 0 0 0 0 0 0 0 0 0 0.25 0"/>
<feBlend mode="normal" in2="BackgroundImageFix" result="effect1_dropShadow_497_1845"/>
<feBlend mode="normal" in="SourceGraphic" in2="effect1_dropShadow_497_1845" result="shape"/>
</filter>
<filter id="filter6_d_497_1845" x="120.027" y="236" width="11.9635" height="11.9015" filterUnits="userSpaceOnUse" color-interpolation-filters="sRGB">
<feFlood flood-opacity="0" result="BackgroundImageFix"/>
<feColorMatrix in="SourceAlpha" type="matrix" values="0 0 0 0 0 0 0 0 0 0 0 0 0 0 0 0 0 0 127 0" result="hardAlpha"/>
<feOffset dy="4"/>
<feGaussianBlur stdDeviation="2"/>
<feComposite in2="hardAlpha" operator="out"/>
<feColorMatrix type="matrix" values="0 0 0 0 0 0 0 0 0 0 0 0 0 0 0 0 0 0 0.25 0"/>
<feBlend mode="normal" in2="BackgroundImageFix" result="effect1_dropShadow_497_1845"/>
<feBlend mode="normal" in="SourceGraphic" in2="effect1_dropShadow_497_1845" result="shape"/>
</filter>
<filter id="filter7_d_497_1845" x="104.784" y="137.336" width="11.5597" height="11.6106" filterUnits="userSpaceOnUse" color-interpolation-filters="sRGB">
<feFlood flood-opacity="0" result="BackgroundImageFix"/>
<feColorMatrix in="SourceAlpha" type="matrix" values="0 0 0 0 0 0 0 0 0 0 0 0 0 0 0 0 0 0 127 0" result="hardAlpha"/>
<feOffset dy="4"/>
<feGaussianBlur stdDeviation="2"/>
<feComposite in2="hardAlpha" operator="out"/>
<feColorMatrix type="matrix" values="0 0 0 0 0 0 0 0 0 0 0 0 0 0 0 0 0 0 0.25 0"/>
<feBlend mode="normal" in2="BackgroundImageFix" result="effect1_dropShadow_497_1845"/>
<feBlend mode="normal" in="SourceGraphic" in2="effect1_dropShadow_497_1845" result="shape"/>
</filter>
<filter id="filter8_d_497_1845" x="126.027" y="222" width="11.5597" height="11.6106" filterUnits="userSpaceOnUse" color-interpolation-filters="sRGB">
<feFlood flood-opacity="0" result="BackgroundImageFix"/>
<feColorMatrix in="SourceAlpha" type="matrix" values="0 0 0 0 0 0 0 0 0 0 0 0 0 0 0 0 0 0 127 0" result="hardAlpha"/>
<feOffset dy="4"/>
<feGaussianBlur stdDeviation="2"/>
<feComposite in2="hardAlpha" operator="out"/>
<feColorMatrix type="matrix" values="0 0 0 0 0 0 0 0 0 0 0 0 0 0 0 0 0 0 0.25 0"/>
<feBlend mode="normal" in2="BackgroundImageFix" result="effect1_dropShadow_497_1845"/>
<feBlend mode="normal" in="SourceGraphic" in2="effect1_dropShadow_497_1845" result="shape"/>
</filter>
<filter id="filter9_d_497_1845" x="126.027" y="211" width="11.5597" height="11.6106" filterUnits="userSpaceOnUse" color-interpolation-filters="sRGB">
<feFlood flood-opacity="0" result="BackgroundImageFix"/>
<feColorMatrix in="SourceAlpha" type="matrix" values="0 0 0 0 0 0 0 0 0 0 0 0 0 0 0 0 0 0 127 0" result="hardAlpha"/>
<feOffset dy="4"/>
<feGaussianBlur stdDeviation="2"/>
<feComposite in2="hardAlpha" operator="out"/>
<feColorMatrix type="matrix" values="0 0 0 0 0 0 0 0 0 0 0 0 0 0 0 0 0 0 0.25 0"/>
<feBlend mode="normal" in2="BackgroundImageFix" result="effect1_dropShadow_497_1845"/>
<feBlend mode="normal" in="SourceGraphic" in2="effect1_dropShadow_497_1845" result="shape"/>
</filter>
<filter id="filter10_d_497_1845" x="88.7837" y="125.336" width="11.5597" height="11.6106" filterUnits="userSpaceOnUse" color-interpolation-filters="sRGB">
<feFlood flood-opacity="0" result="BackgroundImageFix"/>
<feColorMatrix in="SourceAlpha" type="matrix" values="0 0 0 0 0 0 0 0 0 0 0 0 0 0 0 0 0 0 127 0" result="hardAlpha"/>
<feOffset dy="4"/>
<feGaussianBlur stdDeviation="2"/>
<feComposite in2="hardAlpha" operator="out"/>
<feColorMatrix type="matrix" values="0 0 0 0 0 0 0 0 0 0 0 0 0 0 0 0 0 0 0.25 0"/>
<feBlend mode="normal" in2="BackgroundImageFix" result="effect1_dropShadow_497_1845"/>
<feBlend mode="normal" in="SourceGraphic" in2="effect1_dropShadow_497_1845" result="shape"/>
</filter>
<filter id="filter11_d_497_1845" x="75.2018" y="139.98" width="11.5806" height="11.6428" filterUnits="userSpaceOnUse" color-interpolation-filters="sRGB">
<feFlood flood-opacity="0" result="BackgroundImageFix"/>
<feColorMatrix in="SourceAlpha" type="matrix" values="0 0 0 0 0 0 0 0 0 0 0 0 0 0 0 0 0 0 127 0" result="hardAlpha"/>
<feOffset dy="4"/>
<feGaussianBlur stdDeviation="2"/>
<feComposite in2="hardAlpha" operator="out"/>
<feColorMatrix type="matrix" values="0 0 0 0 0 0 0 0 0 0 0 0 0 0 0 0 0 0 0.25 0"/>
<feBlend mode="normal" in2="BackgroundImageFix" result="effect1_dropShadow_497_1845"/>
<feBlend mode="normal" in="SourceGraphic" in2="effect1_dropShadow_497_1845" result="shape"/>
</filter>
<filter id="filter12_d_497_1845" x="119.98" y="152.094" width="11.6174" height="11.6631" filterUnits="userSpaceOnUse" color-interpolation-filters="sRGB">
<feFlood flood-opacity="0" result="BackgroundImageFix"/>
<feColorMatrix in="SourceAlpha" type="matrix" values="0 0 0 0 0 0 0 0 0 0 0 0 0 0 0 0 0 0 127 0" result="hardAlpha"/>
<feOffset dy="4"/>
<feGaussianBlur stdDeviation="2"/>
<feComposite in2="hardAlpha" operator="out"/>
<feColorMatrix type="matrix" values="0 0 0 0 0 0 0 0 0 0 0 0 0 0 0 0 0 0 0.25 0"/>
<feBlend mode="normal" in2="BackgroundImageFix" result="effect1_dropShadow_497_1845"/>
<feBlend mode="normal" in="SourceGraphic" in2="effect1_dropShadow_497_1845" result="shape"/>
</filter>
<filter id="filter13_d_497_1845" x="128.98" y="162.094" width="11.6174" height="11.6631" filterUnits="userSpaceOnUse" color-interpolation-filters="sRGB">
<feFlood flood-opacity="0" result="BackgroundImageFix"/>
<feColorMatrix in="SourceAlpha" type="matrix" values="0 0 0 0 0 0 0 0 0 0 0 0 0 0 0 0 0 0 127 0" result="hardAlpha"/>
<feOffset dy="4"/>
<feGaussianBlur stdDeviation="2"/>
<feComposite in2="hardAlpha" operator="out"/>
<feColorMatrix type="matrix" values="0 0 0 0 0 0 0 0 0 0 0 0 0 0 0 0 0 0 0.25 0"/>
<feBlend mode="normal" in2="BackgroundImageFix" result="effect1_dropShadow_497_1845"/>
<feBlend mode="normal" in="SourceGraphic" in2="effect1_dropShadow_497_1845" result="shape"/>
</filter>
<filter id="filter14_d_497_1845" x="134.98" y="170.094" width="11.6174" height="11.6631" filterUnits="userSpaceOnUse" color-interpolation-filters="sRGB">
<feFlood flood-opacity="0" result="BackgroundImageFix"/>
<feColorMatrix in="SourceAlpha" type="matrix" values="0 0 0 0 0 0 0 0 0 0 0 0 0 0 0 0 0 0 127 0" result="hardAlpha"/>
<feOffset dy="4"/>
<feGaussianBlur stdDeviation="2"/>
<feComposite in2="hardAlpha" operator="out"/>
<feColorMatrix type="matrix" values="0 0 0 0 0 0 0 0 0 0 0 0 0 0 0 0 0 0 0.25 0"/>
<feBlend mode="normal" in2="BackgroundImageFix" result="effect1_dropShadow_497_1845"/>
<feBlend mode="normal" in="SourceGraphic" in2="effect1_dropShadow_497_1845" result="shape"/>
</filter>
<filter id="filter15_d_497_1845" x="130.319" y="225.927" width="11.173" height="11.2527" filterUnits="userSpaceOnUse" color-interpolation-filters="sRGB">
<feFlood flood-opacity="0" result="BackgroundImageFix"/>
<feColorMatrix in="SourceAlpha" type="matrix" values="0 0 0 0 0 0 0 0 0 0 0 0 0 0 0 0 0 0 127 0" result="hardAlpha"/>
<feOffset dy="4"/>
<feGaussianBlur stdDeviation="2"/>
<feComposite in2="hardAlpha" operator="out"/>
<feColorMatrix type="matrix" values="0 0 0 0 0 0 0 0 0 0 0 0 0 0 0 0 0 0 0.25 0"/>
<feBlend mode="normal" in2="BackgroundImageFix" result="effect1_dropShadow_497_1845"/>
<feBlend mode="normal" in="SourceGraphic" in2="effect1_dropShadow_497_1845" result="shape"/>
</filter>
<filter id="filter16_d_497_1845" x="135.319" y="218.927" width="11.173" height="11.2527" filterUnits="userSpaceOnUse" color-interpolation-filters="sRGB">
<feFlood flood-opacity="0" result="BackgroundImageFix"/>
<feColorMatrix in="SourceAlpha" type="matrix" values="0 0 0 0 0 0 0 0 0 0 0 0 0 0 0 0 0 0 127 0" result="hardAlpha"/>
<feOffset dy="4"/>
<feGaussianBlur stdDeviation="2"/>
<feComposite in2="hardAlpha" operator="out"/>
<feColorMatrix type="matrix" values="0 0 0 0 0 0 0 0 0 0 0 0 0 0 0 0 0 0 0.25 0"/>
<feBlend mode="normal" in2="BackgroundImageFix" result="effect1_dropShadow_497_1845"/>
<feBlend mode="normal" in="SourceGraphic" in2="effect1_dropShadow_497_1845" result="shape"/>
</filter>
<filter id="filter17_d_497_1845" x="138.319" y="212.927" width="11.173" height="11.2527" filterUnits="userSpaceOnUse" color-interpolation-filters="sRGB">
<feFlood flood-opacity="0" result="BackgroundImageFix"/>
<feColorMatrix in="SourceAlpha" type="matrix" values="0 0 0 0 0 0 0 0 0 0 0 0 0 0 0 0 0 0 127 0" result="hardAlpha"/>
<feOffset dy="4"/>
<feGaussianBlur stdDeviation="2"/>
<feComposite in2="hardAlpha" operator="out"/>
<feColorMatrix type="matrix" values="0 0 0 0 0 0 0 0 0 0 0 0 0 0 0 0 0 0 0.25 0"/>
<feBlend mode="normal" in2="BackgroundImageFix" result="effect1_dropShadow_497_1845"/>
<feBlend mode="normal" in="SourceGraphic" in2="effect1_dropShadow_497_1845" result="shape"/>
</filter>
<filter id="filter18_d_497_1845" x="141.319" y="205.927" width="11.173" height="11.2527" filterUnits="userSpaceOnUse" color-interpolation-filters="sRGB">
<feFlood flood-opacity="0" result="BackgroundImageFix"/>
<feColorMatrix in="SourceAlpha" type="matrix" values="0 0 0 0 0 0 0 0 0 0 0 0 0 0 0 0 0 0 127 0" result="hardAlpha"/>
<feOffset dy="4"/>
<feGaussianBlur stdDeviation="2"/>
<feComposite in2="hardAlpha" operator="out"/>
<feColorMatrix type="matrix" values="0 0 0 0 0 0 0 0 0 0 0 0 0 0 0 0 0 0 0.25 0"/>
<feBlend mode="normal" in2="BackgroundImageFix" result="effect1_dropShadow_497_1845"/>
<feBlend mode="normal" in="SourceGraphic" in2="effect1_dropShadow_497_1845" result="shape"/>
</filter>
<filter id="filter19_d_497_1845" x="121.738" y="192.006" width="11.2224" height="11.1758" filterUnits="userSpaceOnUse" color-interpolation-filters="sRGB">
<feFlood flood-opacity="0" result="BackgroundImageFix"/>
<feColorMatrix in="SourceAlpha" type="matrix" values="0 0 0 0 0 0 0 0 0 0 0 0 0 0 0 0 0 0 127 0" result="hardAlpha"/>
<feOffset dy="4"/>
<feGaussianBlur stdDeviation="2"/>
<feComposite in2="hardAlpha" operator="out"/>
<feColorMatrix type="matrix" values="0 0 0 0 0 0 0 0 0 0 0 0 0 0 0 0 0 0 0.25 0"/>
<feBlend mode="normal" in2="BackgroundImageFix" result="effect1_dropShadow_497_1845"/>
<feBlend mode="normal" in="SourceGraphic" in2="effect1_dropShadow_497_1845" result="shape"/>
</filter>
<filter id="filter20_d_497_1845" x="124.738" y="201.006" width="11.5248" height="11.502" filterUnits="userSpaceOnUse" color-interpolation-filters="sRGB">
<feFlood flood-opacity="0" result="BackgroundImageFix"/>
<feColorMatrix in="SourceAlpha" type="matrix" values="0 0 0 0 0 0 0 0 0 0 0 0 0 0 0 0 0 0 127 0" result="hardAlpha"/>
<feOffset dy="4"/>
<feGaussianBlur stdDeviation="2"/>
<feComposite in2="hardAlpha" operator="out"/>
<feColorMatrix type="matrix" values="0 0 0 0 0 0 0 0 0 0 0 0 0 0 0 0 0 0 0.25 0"/>
<feBlend mode="normal" in2="BackgroundImageFix" result="effect1_dropShadow_497_1845"/>
<feBlend mode="normal" in="SourceGraphic" in2="effect1_dropShadow_497_1845" result="shape"/>
</filter>
<filter id="filter21_d_497_1845" x="110.103" y="173.343" width="11.2109" height="11.2642" filterUnits="userSpaceOnUse" color-interpolation-filters="sRGB">
<feFlood flood-opacity="0" result="BackgroundImageFix"/>
<feColorMatrix in="SourceAlpha" type="matrix" values="0 0 0 0 0 0 0 0 0 0 0 0 0 0 0 0 0 0 127 0" result="hardAlpha"/>
<feOffset dy="4"/>
<feGaussianBlur stdDeviation="2"/>
<feComposite in2="hardAlpha" operator="out"/>
<feColorMatrix type="matrix" values="0 0 0 0 0 0 0 0 0 0 0 0 0 0 0 0 0 0 0.25 0"/>
<feBlend mode="normal" in2="BackgroundImageFix" result="effect1_dropShadow_497_1845"/>
<feBlend mode="normal" in="SourceGraphic" in2="effect1_dropShadow_497_1845" result="shape"/>
</filter>
<filter id="filter22_d_497_1845" x="102.103" y="165.343" width="11.2109" height="11.2642" filterUnits="userSpaceOnUse" color-interpolation-filters="sRGB">
<feFlood flood-opacity="0" result="BackgroundImageFix"/>
<feColorMatrix in="SourceAlpha" type="matrix" values="0 0 0 0 0 0 0 0 0 0 0 0 0 0 0 0 0 0 127 0" result="hardAlpha"/>
<feOffset dy="4"/>
<feGaussianBlur stdDeviation="2"/>
<feComposite in2="hardAlpha" operator="out"/>
<feColorMatrix type="matrix" values="0 0 0 0 0 0 0 0 0 0 0 0 0 0 0 0 0 0 0.25 0"/>
<feBlend mode="normal" in2="BackgroundImageFix" result="effect1_dropShadow_497_1845"/>
<feBlend mode="normal" in="SourceGraphic" in2="effect1_dropShadow_497_1845" result="shape"/>
</filter>
<filter id="filter23_d_497_1845" x="94.7837" y="157.336" width="11.5597" height="11.6106" filterUnits="userSpaceOnUse" color-interpolation-filters="sRGB">
<feFlood flood-opacity="0" result="BackgroundImageFix"/>
<feColorMatrix in="SourceAlpha" type="matrix" values="0 0 0 0 0 0 0 0 0 0 0 0 0 0 0 0 0 0 127 0" result="hardAlpha"/>
<feOffset dy="4"/>
<feGaussianBlur stdDeviation="2"/>
<feComposite in2="hardAlpha" operator="out"/>
<feColorMatrix type="matrix" values="0 0 0 0 0 0 0 0 0 0 0 0 0 0 0 0 0 0 0.25 0"/>
<feBlend mode="normal" in2="BackgroundImageFix" result="effect1_dropShadow_497_1845"/>
<feBlend mode="normal" in="SourceGraphic" in2="effect1_dropShadow_497_1845" result="shape"/>
</filter>
<filter id="filter24_d_497_1845" x="128.026" y="192" width="19.0005" height="18" filterUnits="userSpaceOnUse" color-interpolation-filters="sRGB">
<feFlood flood-opacity="0" result="BackgroundImageFix"/>
<feColorMatrix in="SourceAlpha" type="matrix" values="0 0 0 0 0 0 0 0 0 0 0 0 0 0 0 0 0 0 127 0" result="hardAlpha"/>
<feOffset dy="4"/>
<feGaussianBlur stdDeviation="2"/>
<feComposite in2="hardAlpha" operator="out"/>
<feColorMatrix type="matrix" values="0 0 0 0 0 0 0 0 0 0 0 0 0 0 0 0 0 0 0.25 0"/>
<feBlend mode="normal" in2="BackgroundImageFix" result="effect1_dropShadow_497_1845"/>
<feBlend mode="normal" in="SourceGraphic" in2="effect1_dropShadow_497_1845" result="shape"/>
</filter>
<filter id="filter25_d_497_1845" x="130.026" y="209" width="16.0006" height="15" filterUnits="userSpaceOnUse" color-interpolation-filters="sRGB">
<feFlood flood-opacity="0" result="BackgroundImageFix"/>
<feColorMatrix in="SourceAlpha" type="matrix" values="0 0 0 0 0 0 0 0 0 0 0 0 0 0 0 0 0 0 127 0" result="hardAlpha"/>
<feOffset dy="4"/>
<feGaussianBlur stdDeviation="2"/>
<feComposite in2="hardAlpha" operator="out"/>
<feColorMatrix type="matrix" values="0 0 0 0 0 0 0 0 0 0 0 0 0 0 0 0 0 0 0.25 0"/>
<feBlend mode="normal" in2="BackgroundImageFix" result="effect1_dropShadow_497_1845"/>
<feBlend mode="normal" in="SourceGraphic" in2="effect1_dropShadow_497_1845" result="shape"/>
</filter>
<filter id="filter26_d_497_1845" x="84.7837" y="148.336" width="11.5597" height="11.6106" filterUnits="userSpaceOnUse" color-interpolation-filters="sRGB">
<feFlood flood-opacity="0" result="BackgroundImageFix"/>
<feColorMatrix in="SourceAlpha" type="matrix" values="0 0 0 0 0 0 0 0 0 0 0 0 0 0 0 0 0 0 127 0" result="hardAlpha"/>
<feOffset dy="4"/>
<feGaussianBlur stdDeviation="2"/>
<feComposite in2="hardAlpha" operator="out"/>
<feColorMatrix type="matrix" values="0 0 0 0 0 0 0 0 0 0 0 0 0 0 0 0 0 0 0.25 0"/>
<feBlend mode="normal" in2="BackgroundImageFix" result="effect1_dropShadow_497_1845"/>
<feBlend mode="normal" in="SourceGraphic" in2="effect1_dropShadow_497_1845" result="shape"/>
</filter>
</defs>
</svg>
