<svg width="412" height="555" viewBox="0 0 412 555" fill="none" xmlns="http://www.w3.org/2000/svg">
<g filter="url(#filter0_d_503_935)">
<path d="M217.683 377.283C222.46 372.874 228.092 369.913 233.338 366.393C242.796 360.046 251.096 352.592 256.556 342.359C265.436 325.718 264.32 309.368 255.141 293.297C250.015 284.321 242.26 277.858 234.032 271.89C225.997 266.062 217.52 260.88 209.46 255.09C200.825 248.887 192.913 241.949 187.52 232.575C184.391 227.137 182.894 221.199 182.434 215.014C182.129 210.915 182.122 206.785 182.61 202.684C182.685 202.056 182.485 201.543 182.251 201.018C176.68 188.479 178.842 176.828 186.737 166.124C193.266 157.272 202.143 152.033 213.166 150.656C216.114 150.288 219.008 150.602 221.906 151.275C221.222 151.921 220.376 151.952 219.587 152.08C206.096 154.277 195.549 165.689 193.658 179.256C191.249 196.545 203.978 209.991 218.727 212.79C229.239 214.785 238.23 211.905 245.515 204.002C246.469 202.967 247.232 201.756 248.278 200.367C248.466 202.167 247.924 203.451 247.421 204.717C243.704 214.078 236.546 219.423 226.996 221.657C213.951 224.709 202.483 220.999 192.142 212.974C190.356 211.587 188.725 210.028 186.852 208.642C187.71 209.712 188.477 210.875 189.443 211.837C195.009 217.383 199.7 223.673 204.707 229.693C210.714 236.915 217.647 243.155 224.936 249.027C233.206 255.689 241.598 262.209 249.042 269.828C258.377 279.381 265.151 290.393 267.523 303.676C269.992 317.501 267.202 330.523 260.659 342.836C256.074 351.465 249.12 357.865 241.343 363.507C240.088 364.418 238.856 365.363 237.604 366.299C237.95 366.732 238.244 366.533 238.467 366.444C246.473 363.261 254.338 359.816 260.632 353.676C263.584 350.796 265.784 347.415 267.026 343.45C267.148 343.064 267.298 342.686 267.458 342.314C267.496 342.225 267.626 342.175 267.799 342.041C268.712 343.223 268.579 344.65 268.75 345.976C269.178 349.284 269.008 352.584 268.283 355.832C266.858 362.215 262.356 365.674 256.618 367.933C250.722 370.255 244.477 371.456 238.523 373.585C230.568 376.429 222.848 379.732 216.363 385.347C212.448 388.737 209.429 392.812 207.145 397.446C206.949 397.844 206.923 398.369 206.39 398.535C205.297 394.904 211.251 383.657 217.683 377.283Z" fill="url(#paint0_linear_503_935)" stroke="#E5E7EB"/>
<path d="M204.028 347.484C202.097 348.667 200.132 349.573 198.632 351.175C197.006 352.913 195.536 356.396 195.458 357.2C195.335 357.121 195.017 358.525 194.92 359.428C194.823 360.331 194.459 361.914 195.925 362.673C196.912 363.185 196.952 363.977 196.074 364.567C195.231 365.134 195.265 365.88 195.239 366.693C195.165 368.95 195.442 371.217 195.042 373.466C194.944 374.018 194.906 374.631 193.943 375.066C193.943 369.567 194.254 364.246 193.185 358.884C192.782 359.428 192.782 360.733 192.782 362.148C192.805 366.033 193.069 371.333 193.185 375.066C193.189 375.188 192.987 373.416 192.782 373.691C192.037 372.463 192.182 371.165 192.058 369.986C190.859 358.593 185.996 349.337 176.558 342.574C171.282 338.794 165.926 335.099 161.248 330.543C153.896 323.383 149.362 314.752 147.758 304.634C145.784 292.175 149.115 280.628 154.088 269.403C155.996 265.099 158.301 261.008 161.02 257.158C161.242 256.843 161.356 256.392 161.965 256.355C162.349 256.954 161.933 257.545 161.801 258.089C160.855 261.991 160.27 265.954 160.196 269.954C159.955 282.924 164.649 293.946 173.665 303.179C178.224 307.847 183.476 311.69 188.711 315.536C197.248 321.807 205.457 328.42 211.743 337.083C216.188 343.208 219.715 349.747 220.561 357.431C221.076 362.098 220.171 366.659 219.567 371.256C219.305 373.243 218.127 374.398 217.032 375.75C216.166 375.245 216.417 374.536 216.411 373.943C216.376 370.695 215.775 365.15 215.775 364.708C215.775 363.825 213.02 363.294 214.892 362.058C214.892 362.058 215.721 361.869 215.773 361.175C215.845 360.224 215.827 357.905 215.773 357.461C215.358 353.987 213.511 351.442 210.664 349.555C209.264 348.627 207.782 347.818 206.41 346.852C205.347 346.103 204.848 347.073 204.028 347.484ZM168.44 313.347C169.356 312.87 169.119 312.187 168.63 311.628C167.839 310.723 167.665 309.885 168.361 308.822C168.906 307.989 168.673 307.214 167.554 307.431C166.034 307.725 165.282 307.081 164.785 305.788C164.645 305.424 164.408 305.029 163.914 305.057C163.431 305.084 163.116 305.492 163.121 305.858C163.142 307.764 161.993 308.447 160.352 308.732C160.12 308.772 159.934 309.078 159.429 309.523C161.745 310.721 162.542 312.7 162.386 315.267C163.716 314.62 164.771 314.062 165.773 315.187C166.557 314.424 166.643 312.847 168.44 313.347ZM187.18 337.321C188.201 338.077 188.452 337.188 188.542 336.551C188.76 335.017 189.513 334.178 191.086 334.079C191.422 334.058 191.759 333.883 191.877 333.418C191.845 333.312 191.848 333.087 191.74 333C190.561 332.047 189.594 331.144 189.76 329.306C189.858 328.217 188.645 328.021 187.838 328.727C186.922 329.528 186.093 329.557 184.994 329.168C183.717 328.715 182.952 329.406 183.358 330.628C183.712 331.692 183.582 332.505 182.923 333.364C182.256 334.231 182.44 335.084 183.597 334.994C185.389 334.856 186.203 335.928 187.18 337.321ZM193.746 355.223C193.711 355.595 193.439 356.016 193.943 356.285C194.375 356.168 194.397 355.787 194.504 355.472C195.662 352.075 197.883 349.588 200.974 347.814C202.279 347.065 203.571 346.28 204.79 345.402C205.45 344.926 205.865 345.075 206.483 345.444C210.569 347.878 214.846 350.079 216.964 354.776C216.777 352.144 215.337 350.277 213.462 348.687C211.325 346.876 208.751 345.731 206.459 344.157C205.839 343.731 205.375 343.95 204.867 344.24C202.806 345.42 200.65 346.467 198.719 347.831C196.245 349.578 194.49 351.946 193.746 355.223ZM217.542 367.8C217.237 373.943 217.1 373.983 217.983 373.983C218.867 373.983 218.936 360.29 218.425 358.884C218.306 359.827 217.983 358.884 217.542 367.8Z" fill="url(#paint1_linear_503_935)" stroke="#E5E7EB"/>
<path d="M176.794 235.187C173.002 252.031 174.4 267.936 184.195 282.49C188.482 288.859 194.204 293.896 199.874 298.969C208.86 307.01 216.701 315.926 221.71 327.072C227.049 338.952 227.885 351.081 224.015 363.524C223.912 363.855 223.794 364.185 223.644 364.496C223.576 364.636 223.413 364.729 223.313 364.825C222.946 364.795 222.913 364.541 222.941 364.318C225.034 347.398 219.035 333.399 207.451 321.416C201.729 315.497 194.998 310.828 188.375 306.023C182.43 301.71 176.879 296.961 172.607 290.912C164.748 279.784 162.638 267.524 165.652 254.332C168.001 244.056 172.765 234.88 178.702 226.26C178.868 226.02 179.036 225.785 179.587 225.772C178.572 228.881 177.538 231.92 176.794 235.187Z" fill="url(#paint2_linear_503_935)" stroke="#E5E7EB"/>
<path d="M174.14 365.74C184.534 369.72 193.235 375.695 199.426 384.985C201.993 388.838 203.735 393.051 205.161 397.418C205.262 397.727 205.44 398.083 205.042 398.336C204.736 398.402 204.606 398.178 204.508 397.984C199.544 388.127 191.344 381.854 181.574 377.342C174.849 374.235 167.661 372.587 160.524 370.786C158.329 370.232 156.171 369.548 154.1 368.633C146.952 365.473 144.014 360.026 144.507 352.519C144.884 346.78 146.855 341.436 149.611 336.398C149.899 335.872 150.09 335.211 150.999 334.909C150.944 335.89 150.92 336.772 150.842 337.648C150.227 344.569 152.72 350.343 157.287 355.396C160.996 359.499 165.637 362.155 170.656 364.265C171.777 364.736 172.895 365.218 174.14 365.74Z" fill="url(#paint3_linear_503_935)" stroke="#E5E7EB"/>
<path d="M185.728 389.653C193.385 393.07 200.343 397.256 205.734 403.929C207.707 401.602 209.7 399.606 211.943 397.853C220.306 391.316 229.92 387.588 240.139 385.216C247.858 383.424 255.69 382.618 263.612 382.801C268.141 382.905 272.649 383.42 277.075 384.314C280.17 384.939 282.799 386.916 286 387.772C285.148 389.408 284.081 390.394 283.182 391.502C282.713 392.082 282.113 391.753 281.572 391.585C268.946 387.681 256.09 386.956 243.041 388.743C231.677 390.3 220.997 393.695 211.52 400.351C210.05 401.383 208.577 402.433 207.239 403.625C206.137 404.607 205.329 404.527 204.236 403.61C196.875 397.437 188.524 393.138 179.238 390.683C170.542 388.384 161.719 387.481 152.711 388.023C146.495 388.397 140.384 389.297 134.316 390.615C133.863 390.713 133.412 390.826 132.965 390.949C129.246 391.968 128.843 391.784 127 388.203C127.086 387.809 127.401 387.655 127.728 387.525C132.455 385.644 137.171 383.908 142.342 383.4C157.299 381.929 171.723 383.776 185.728 389.653Z" fill="url(#paint4_linear_503_935)" stroke="#E5E7EB"/>
<path d="M225.995 382.782C236.023 377.196 246.802 374.403 257.912 372.637C262.828 371.856 267.721 370.923 272.684 370.446C273.453 370.372 274.216 370.378 274.904 370.681C275.735 371.048 276.218 371.599 275.539 372.582C273.752 375.169 273.795 375.395 276.036 377.62C276.348 377.93 276.819 378.159 276.71 378.886C274.51 379.433 272.302 378.776 270.101 378.643C250.534 377.461 232.161 381.166 215.524 391.939C213.843 393.028 212.378 394.451 210.774 395.752C211.052 393.449 218.316 387.274 225.995 382.782Z" fill="url(#paint5_linear_503_935)" stroke="#E5E7EB"/>
<path d="M191.354 388.966C181.497 383.589 171.09 380.361 160.064 379.187C153.751 378.516 147.441 378.937 141.146 379.597C139.192 379.802 137.233 379.99 135.307 379.292C135.322 378.19 136.245 377.806 136.783 377.178C137.631 376.187 137.932 375.326 137.082 374.099C135.888 372.378 136.542 371.298 138.708 371.253C144.13 371.139 149.445 372.073 154.757 372.986C164.623 374.683 174.199 377.33 183.315 381.559C190.133 384.723 195.625 389.571 200.772 394.894C200.891 395.016 200.993 395.165 201.065 395.319C201.106 395.407 201.072 395.531 201.072 396.056C198.002 393.248 194.863 390.951 191.354 388.966Z" fill="url(#paint6_linear_503_935)" stroke="#E5E7EB"/>
<path d="M212.88 188.125C210.417 186.514 208.407 184.616 206.839 182.264C206.139 181.215 206.326 178.949 207.153 178.054C207.561 177.613 207.976 177.66 208.386 177.954C209.497 178.752 210.77 179.375 210.886 181.049C210.956 182.055 211.916 182.555 212.634 183.104C214.384 184.441 216.244 185.638 217.961 187.014C221.364 189.742 221.568 193.34 218.256 196.193C214.866 199.113 210.954 201.101 206.319 201.196C204.874 201.226 203.723 200.638 202.946 199.412C201.466 197.074 202.408 191.198 204.662 189.17C204.749 190.315 204.288 191.268 204.08 192.249C203.884 193.172 203.769 194.087 203.902 195.008C204.191 197.025 205.333 198.05 207.349 197.82C211.021 197.403 214.171 195.662 217.098 193.522C218.042 192.832 217.639 191.967 216.962 191.282C215.773 190.082 214.372 189.144 212.88 188.125Z" fill="url(#paint7_linear_503_935)" stroke="#E5E7EB"/>
<path d="M192.948 253.43C193.404 252.919 193.812 252.782 194.215 253.268C194.437 253.538 194.67 253.838 194.769 254.163C195.648 257.055 197.714 258.051 200.588 258.098C202.26 258.125 202.494 258.883 201.469 260.229C201.362 260.369 201.266 260.533 201.126 260.631C198.923 262.177 198.484 264.167 199.498 266.61C199.761 267.242 199.872 268.05 199.214 268.576C198.589 269.075 197.992 268.529 197.396 268.35C197.284 268.316 197.163 268.281 197.071 268.213C195.008 266.7 192.983 266.899 190.906 268.236C190.312 268.619 189.562 269.232 188.813 268.581C188.214 268.06 188.328 267.231 188.534 266.58C189.317 264.1 188.592 262.259 186.434 260.846C185.832 260.453 185.064 259.895 185.369 258.998C185.667 258.121 186.617 258.047 187.326 258.124C190.804 258.498 191.752 255.933 192.948 253.43Z" fill="url(#paint8_linear_503_935)" stroke="#E5E7EB"/>
<path d="M211.576 271.045C211.984 270.591 212.35 270.469 212.71 270.901C212.909 271.141 213.117 271.407 213.206 271.696C213.992 274.267 215.841 275.153 218.413 275.194C219.908 275.218 220.117 275.892 219.2 277.088C219.105 277.213 219.019 277.358 218.894 277.446C216.922 278.82 216.529 280.589 217.437 282.761C217.672 283.322 217.771 284.041 217.183 284.508C216.624 284.952 216.09 284.466 215.556 284.307C215.456 284.277 215.348 284.246 215.265 284.186C213.42 282.841 211.608 283.018 209.75 284.206C209.218 284.546 208.547 285.091 207.877 284.513C207.34 284.049 207.443 283.313 207.627 282.734C208.328 280.53 207.679 278.893 205.748 277.637C205.209 277.287 204.522 276.791 204.795 275.994C205.062 275.215 205.912 275.149 206.546 275.217C209.658 275.55 210.506 273.27 211.576 271.045Z" fill="url(#paint9_linear_503_935)" stroke="#E5E7EB"/>
<path d="M225.788 286.01C226.148 285.613 226.47 285.506 226.788 285.885C226.963 286.094 227.147 286.327 227.225 286.58C227.919 288.829 229.551 289.604 231.82 289.641C233.14 289.662 233.324 290.251 232.515 291.298C232.431 291.407 232.355 291.534 232.244 291.611C230.505 292.813 230.158 294.361 230.959 296.261C231.167 296.753 231.254 297.382 230.735 297.79C230.241 298.179 229.77 297.754 229.3 297.615C229.211 297.588 229.116 297.561 229.043 297.508C227.415 296.332 225.816 296.486 224.176 297.526C223.707 297.824 223.115 298.301 222.524 297.795C222.05 297.389 222.141 296.744 222.303 296.238C222.921 294.309 222.349 292.877 220.645 291.778C220.17 291.472 219.564 291.038 219.805 290.341C220.04 289.659 220.79 289.601 221.35 289.661C224.096 289.952 224.843 287.957 225.788 286.01Z" fill="url(#paint10_linear_503_935)" stroke="#E5E7EB"/>
<path d="M238.233 302.742C238.545 302.401 238.824 302.31 239.099 302.634C239.252 302.814 239.411 303.014 239.479 303.231C240.08 305.159 241.494 305.823 243.461 305.854C244.604 305.872 244.764 306.377 244.063 307.275C243.99 307.368 243.924 307.477 243.829 307.543C242.321 308.573 242.02 309.9 242.715 311.529C242.894 311.95 242.97 312.489 242.52 312.839C242.093 313.172 241.684 312.808 241.276 312.689C241.2 312.666 241.117 312.643 241.054 312.598C239.643 311.589 238.257 311.722 236.836 312.613C236.429 312.868 235.916 313.277 235.404 312.843C234.993 312.495 235.072 311.943 235.213 311.509C235.749 309.856 235.252 308.628 233.776 307.686C233.364 307.424 232.839 307.052 233.047 306.454C233.251 305.87 233.901 305.82 234.386 305.871C236.766 306.121 237.414 304.411 238.233 302.742Z" fill="url(#paint11_linear_503_935)" stroke="#E5E7EB"/>
<g filter="url(#filter1_d_503_935)">
<path d="M214.728 267.789C214.372 268.618 213.886 269.067 213.066 268.678C212.611 268.462 212.404 268.03 212.486 267.516C212.579 266.936 212.932 266.539 213.519 266.515C214.268 266.485 214.707 266.89 214.728 267.789Z" fill="url(#paint12_linear_503_935)"/>
<path d="M214.728 267.789C214.372 268.618 213.886 269.067 213.066 268.678C212.611 268.462 212.404 268.03 212.486 267.516C212.579 266.936 212.932 266.539 213.519 266.515C214.268 266.485 214.707 266.89 214.728 267.789Z" stroke="#E5E7EB"/>
</g>
<path d="M230.94 177.032C231.227 177.073 231.516 177.102 231.799 177.159C235.176 177.845 235.245 177.919 234.538 181.261C234.102 183.321 234.791 185.241 235.783 186.823C239.349 192.515 239.064 196.54 234.051 200.933C229.143 205.235 223.2 206.997 216.74 207.151C216.522 207.156 216.301 207.079 216.042 207.034C216.245 206.163 217.011 206.202 217.541 205.987C222.545 203.952 227.472 201.787 231.924 198.656C236.083 195.731 236.261 194.735 233.129 190.821C232.371 189.875 231.581 188.95 231.093 187.803C229.999 185.231 231.981 182.896 234.325 181.417C234.16 180.693 232.182 180.77 231.636 180.697C230.819 180.588 229.954 180.593 229.655 179.614C229.327 178.54 230.006 177.873 230.813 177.145C230.91 177.051 230.94 177.032 230.94 177.032Z" fill="url(#paint13_linear_503_935)" stroke="#E5E7EB"/>
<path d="M225.072 191.304C225.066 194.294 224.8 197.047 222.998 199.394C222.478 200.072 221.925 200.719 220.634 200.865C222.482 197.08 222.215 193.242 222.05 189.454C221.754 182.622 221.414 175.79 220.631 168.991C220.578 168.531 220.54 168.042 220.354 167.63C219.314 165.324 220.784 163.98 222.354 162.314C223.804 164.613 225.479 166.867 225.163 169.346C224.952 171.008 224.278 172.665 224.425 174.448C224.881 180 225.112 185.562 225.072 191.304Z" fill="url(#paint14_linear_503_935)" stroke="#E5E7EB"/>
<path d="M206.342 370.796C206.058 371.775 206.058 371.775 205.684 373.123C204.955 370.901 204.45 368.797 203.408 366.917C202.347 365 201.121 363.946 198.689 362.719C203.237 361.584 204.645 358.395 205.829 354.825C206.781 358.527 208.53 361.435 212.507 362.866C208.49 364.08 206.342 370.796 206.342 370.796Z" fill="url(#paint15_linear_503_935)" stroke="#E5E7EB"/>
<path d="M230.593 175.672C229.21 174.644 229.098 173.714 230.271 172.612C231.314 171.633 232.637 171.193 233.996 170.869C234.398 170.773 234.844 170.769 235.046 171.225C235.245 171.674 234.932 172.001 234.624 172.261C234.41 172.442 234.142 172.605 233.872 172.669C232.755 172.931 231.828 173.323 231.65 174.676C231.61 174.98 231.091 175.222 230.716 175.568C230.639 175.643 230.608 175.662 230.593 175.672Z" fill="url(#paint16_linear_503_935)" stroke="#E5E7EB"/>
<path d="M215.88 173.337C216.78 174.516 216.682 175.588 215.837 176.591C215.445 177.057 214.906 177.291 214.28 177.071C213.752 176.885 213.397 176.493 213.281 175.955C213.136 175.282 213.395 174.829 214.128 174.724C215.003 174.599 214.37 172.776 215.88 173.337Z" fill="url(#paint17_linear_503_935)" stroke="#E5E7EB"/>
<g filter="url(#filter2_d_503_935)">
<path d="M253.902 320.116C252.925 319.681 252.541 319.052 252.96 318.145C253.219 317.586 253.713 317.255 254.352 317.363C254.98 317.47 255.354 317.888 255.41 318.541C255.486 319.428 255.055 319.942 254.203 320.131C254.148 320.144 254.09 320.14 253.902 320.116Z" fill="url(#paint18_linear_503_935)"/>
<path d="M253.902 320.116C252.925 319.681 252.541 319.052 252.96 318.145C253.219 317.586 253.713 317.255 254.352 317.363C254.98 317.47 255.354 317.888 255.41 318.541C255.486 319.428 255.055 319.942 254.203 320.131C254.148 320.144 254.09 320.14 253.902 320.116Z" stroke="#E5E7EB"/>
</g>
<g filter="url(#filter3_d_503_935)">
<path d="M252.135 311.283C251.158 310.847 250.774 310.219 251.194 309.312C251.453 308.753 251.946 308.422 252.585 308.53C253.213 308.637 253.587 309.055 253.643 309.707C253.719 310.595 253.288 311.109 252.437 311.298C252.382 311.31 252.323 311.307 252.135 311.283Z" fill="url(#paint19_linear_503_935)"/>
<path d="M252.135 311.283C251.158 310.847 250.774 310.219 251.194 309.312C251.453 308.753 251.946 308.422 252.585 308.53C253.213 308.637 253.587 309.055 253.643 309.707C253.719 310.595 253.288 311.109 252.437 311.298C252.382 311.31 252.323 311.307 252.135 311.283Z" stroke="#E5E7EB"/>
</g>
<g filter="url(#filter4_d_503_935)">
<path d="M253.902 327.183C252.925 326.747 252.541 326.119 252.96 325.212C253.219 324.652 253.713 324.322 254.352 324.43C254.98 324.536 255.354 324.955 255.41 325.607C255.486 326.495 255.055 327.009 254.203 327.198C254.148 327.21 254.09 327.207 253.902 327.183Z" fill="url(#paint20_linear_503_935)"/>
<path d="M253.902 327.183C252.925 326.747 252.541 326.119 252.96 325.212C253.219 324.652 253.713 324.322 254.352 324.43C254.98 324.536 255.354 324.955 255.41 325.607C255.486 326.495 255.055 327.009 254.203 327.198C254.148 327.21 254.09 327.207 253.902 327.183Z" stroke="#E5E7EB"/>
</g>
<g filter="url(#filter5_d_503_935)">
<path d="M238.733 354.913C239.372 355.771 239.253 356.447 238.471 356.916C237.929 357.241 237.348 357.143 236.89 356.67C236.479 356.245 236.413 355.712 236.711 355.235C237.181 354.482 237.845 354.296 238.733 354.913Z" fill="url(#paint21_linear_503_935)"/>
<path d="M238.733 354.913C239.372 355.771 239.253 356.447 238.471 356.916C237.929 357.241 237.348 357.143 236.89 356.67C236.479 356.245 236.413 355.712 236.711 355.235C237.181 354.482 237.845 354.296 238.733 354.913Z" stroke="#E5E7EB"/>
</g>
<g filter="url(#filter6_d_503_935)">
<path d="M235.206 359.337C235.845 360.194 235.726 360.871 234.944 361.339C234.402 361.664 233.821 361.567 233.363 361.093C232.953 360.668 232.886 360.135 233.184 359.659C233.654 358.906 234.318 358.72 235.206 359.337Z" fill="url(#paint22_linear_503_935)"/>
<path d="M235.206 359.337C235.845 360.194 235.726 360.871 234.944 361.339C234.402 361.664 233.821 361.567 233.363 361.093C232.953 360.668 232.886 360.135 233.184 359.659C233.654 358.906 234.318 358.72 235.206 359.337Z" stroke="#E5E7EB"/>
</g>
<g filter="url(#filter7_d_503_935)">
<path d="M221.794 273.089C221.438 273.918 220.953 274.367 220.133 273.978C219.678 273.762 219.471 273.33 219.553 272.816C219.646 272.236 219.999 271.839 220.586 271.815C221.335 271.785 221.773 272.19 221.794 273.089Z" fill="url(#paint23_linear_503_935)"/>
<path d="M221.794 273.089C221.438 273.918 220.953 274.367 220.133 273.978C219.678 273.762 219.471 273.33 219.553 272.816C219.646 272.236 219.999 271.839 220.586 271.815C221.335 271.785 221.773 272.19 221.794 273.089Z" stroke="#E5E7EB"/>
</g>
<g filter="url(#filter8_d_503_935)">
<path d="M240.559 347.875C240.203 348.705 239.717 349.153 238.898 348.764C238.443 348.548 238.235 348.116 238.318 347.602C238.41 347.022 238.764 346.625 239.35 346.602C240.099 346.572 240.538 346.976 240.559 347.875Z" fill="url(#paint24_linear_503_935)"/>
<path d="M240.559 347.875C240.203 348.705 239.717 349.153 238.898 348.764C238.443 348.548 238.235 348.116 238.318 347.602C238.41 347.022 238.764 346.625 239.35 346.602C240.099 346.572 240.538 346.976 240.559 347.875Z" stroke="#E5E7EB"/>
</g>
<g filter="url(#filter9_d_503_935)">
<path d="M240.559 338.159C240.203 338.988 239.717 339.437 238.898 339.047C238.443 338.831 238.235 338.399 238.318 337.886C238.41 337.305 238.764 336.908 239.35 336.885C240.099 336.855 240.538 337.26 240.559 338.159Z" fill="url(#paint25_linear_503_935)"/>
<path d="M240.559 338.159C240.203 338.988 239.717 339.437 238.898 339.047C238.443 338.831 238.235 338.399 238.318 337.886C238.41 337.305 238.764 336.908 239.35 336.885C240.099 336.855 240.538 337.26 240.559 338.159Z" stroke="#E5E7EB"/>
</g>
<g filter="url(#filter10_d_503_935)">
<path d="M207.661 262.489C207.305 263.319 206.819 263.767 205.999 263.378C205.544 263.162 205.337 262.73 205.419 262.216C205.512 261.636 205.866 261.239 206.452 261.215C207.201 261.186 207.64 261.59 207.661 262.489Z" fill="url(#paint26_linear_503_935)"/>
<path d="M207.661 262.489C207.305 263.319 206.819 263.767 205.999 263.378C205.544 263.162 205.337 262.73 205.419 262.216C205.512 261.636 205.866 261.239 206.452 261.215C207.201 261.186 207.64 261.59 207.661 262.489Z" stroke="#E5E7EB"/>
</g>
<g filter="url(#filter11_d_503_935)">
<path d="M195.375 274.479C195.919 275.322 195.711 275.935 195.014 276.347C194.581 276.602 194.102 276.487 193.748 276.1C193.403 275.724 193.298 275.251 193.528 274.809C193.929 274.04 194.56 273.961 195.375 274.479Z" fill="url(#paint27_linear_503_935)"/>
<path d="M195.375 274.479C195.919 275.322 195.711 275.935 195.014 276.347C194.581 276.602 194.102 276.487 193.748 276.1C193.403 275.724 193.298 275.251 193.528 274.809C193.929 274.04 194.56 273.961 195.375 274.479Z" stroke="#E5E7EB"/>
</g>
<g filter="url(#filter12_d_503_935)">
<path d="M233.525 285.02C234.464 284.602 234.966 284.993 235.214 285.739C235.398 286.295 235.117 286.737 234.634 287.036C234.179 287.318 233.74 287.223 233.38 286.88C232.756 286.288 232.843 285.679 233.525 285.02Z" fill="url(#paint28_linear_503_935)"/>
<path d="M233.525 285.02C234.464 284.602 234.966 284.993 235.214 285.739C235.398 286.295 235.117 286.737 234.634 287.036C234.179 287.318 233.74 287.223 233.38 286.88C232.756 286.288 232.843 285.679 233.525 285.02Z" stroke="#E5E7EB"/>
</g>
<g filter="url(#filter13_d_503_935)">
<path d="M241.475 293.854C242.414 293.435 242.916 293.826 243.164 294.572C243.349 295.128 243.067 295.57 242.584 295.869C242.129 296.151 241.69 296.056 241.33 295.713C240.706 295.121 240.793 294.512 241.475 293.854Z" fill="url(#paint29_linear_503_935)"/>
<path d="M241.475 293.854C242.414 293.435 242.916 293.826 243.164 294.572C243.349 295.128 243.067 295.57 242.584 295.869C242.129 296.151 241.69 296.056 241.33 295.713C240.706 295.121 240.793 294.512 241.475 293.854Z" stroke="#E5E7EB"/>
</g>
<path d="M227.383 277.871C228.322 277.453 228.823 277.843 229.071 278.59C229.256 279.146 228.975 279.588 228.491 279.887C228.037 280.168 227.597 280.073 227.237 279.731C226.614 279.138 226.701 278.529 227.383 277.871Z" fill="url(#paint30_linear_503_935)" stroke="#E5E7EB"/>
<g filter="url(#filter14_d_503_935)">
<path d="M246.775 300.92C247.714 300.502 248.216 300.893 248.464 301.639C248.648 302.195 248.367 302.637 247.884 302.936C247.429 303.218 246.99 303.123 246.63 302.78C246.006 302.188 246.093 301.579 246.775 300.92Z" fill="url(#paint31_linear_503_935)"/>
<path d="M246.775 300.92C247.714 300.502 248.216 300.893 248.464 301.639C248.648 302.195 248.367 302.637 247.884 302.936C247.429 303.218 246.99 303.123 246.63 302.78C246.006 302.188 246.093 301.579 246.775 300.92Z" stroke="#E5E7EB"/>
</g>
<g filter="url(#filter15_d_503_935)">
<path d="M243.501 351.967C242.377 352.279 241.966 351.778 242.124 350.849C242.216 350.305 242.705 349.906 243.278 350.136C244.211 350.51 244.218 351.173 243.501 351.967Z" fill="url(#paint32_linear_503_935)"/>
<path d="M243.501 351.967C242.377 352.279 241.966 351.778 242.124 350.849C242.216 350.305 242.705 349.906 243.278 350.136C244.211 350.51 244.218 351.173 243.501 351.967Z" stroke="#E5E7EB"/>
</g>
<g filter="url(#filter16_d_503_935)">
<path d="M247.918 345.784C246.794 346.095 246.383 345.594 246.54 344.665C246.633 344.122 247.122 343.722 247.695 343.952C248.627 344.326 248.634 344.99 247.918 345.784Z" fill="url(#paint33_linear_503_935)"/>
<path d="M247.918 345.784C246.794 346.095 246.383 345.594 246.54 344.665C246.633 344.122 247.122 343.722 247.695 343.952C248.627 344.326 248.634 344.99 247.918 345.784Z" stroke="#E5E7EB"/>
</g>
<g filter="url(#filter17_d_503_935)">
<path d="M250.568 340.484C249.444 340.795 249.033 340.294 249.19 339.366C249.283 338.822 249.772 338.422 250.345 338.652C251.277 339.027 251.285 339.69 250.568 340.484Z" fill="url(#paint34_linear_503_935)"/>
<path d="M250.568 340.484C249.444 340.795 249.033 340.294 249.19 339.366C249.283 338.822 249.772 338.422 250.345 338.652C251.277 339.027 251.285 339.69 250.568 340.484Z" stroke="#E5E7EB"/>
</g>
<g filter="url(#filter18_d_503_935)">
<path d="M253.218 334.3C252.094 334.612 251.683 334.111 251.84 333.182C251.933 332.639 252.422 332.239 252.995 332.469C253.927 332.843 253.935 333.507 253.218 334.3Z" fill="url(#paint35_linear_503_935)"/>
<path d="M253.218 334.3C252.094 334.612 251.683 334.111 251.84 333.182C251.933 332.639 252.422 332.239 252.995 332.469C253.927 332.843 253.935 333.507 253.218 334.3Z" stroke="#E5E7EB"/>
</g>
<path d="M232.036 313.106C231.737 314.044 231.207 314.358 230.462 313.799C229.954 313.418 229.994 312.832 230.455 312.46C231.17 311.881 231.723 312.146 232.036 313.106Z" fill="url(#paint36_linear_503_935)" stroke="#E5E7EB"/>
<g filter="url(#filter19_d_503_935)">
<path d="M236.452 321.056C236.154 321.994 235.624 322.308 234.878 321.749C234.371 321.368 234.411 320.782 234.871 320.41C235.587 319.831 236.14 320.096 236.452 321.056Z" fill="url(#paint37_linear_503_935)"/>
<path d="M236.452 321.056C236.154 321.994 235.624 322.308 234.878 321.749C234.371 321.368 234.411 320.782 234.871 320.41C235.587 319.831 236.14 320.096 236.452 321.056Z" stroke="#E5E7EB"/>
</g>
<g filter="url(#filter20_d_503_935)">
<path d="M239.37 329.149C239.03 330.228 238.427 330.588 237.579 329.945C237.002 329.508 237.047 328.834 237.571 328.406C238.385 327.74 239.015 328.045 239.37 329.149Z" fill="url(#paint38_linear_503_935)"/>
<path d="M239.37 329.149C239.03 330.228 238.427 330.588 237.579 329.945C237.002 329.508 237.047 328.834 237.571 328.406C238.385 327.74 239.015 328.045 239.37 329.149Z" stroke="#E5E7EB"/>
</g>
<g filter="url(#filter21_d_503_935)">
<path d="M225.487 303.624C226.377 304.241 226.408 304.898 225.639 305.445C225.173 305.777 224.583 305.628 224.36 305.062C224.003 304.157 224.416 303.661 225.487 303.624Z" fill="url(#paint39_linear_503_935)"/>
<path d="M225.487 303.624C226.377 304.241 226.408 304.898 225.639 305.445C225.173 305.777 224.583 305.628 224.36 305.062C224.003 304.157 224.416 303.661 225.487 303.624Z" stroke="#E5E7EB"/>
</g>
<g filter="url(#filter22_d_503_935)">
<path d="M218.421 296.558C219.31 297.175 219.342 297.831 218.573 298.378C218.106 298.71 217.516 298.561 217.293 297.996C216.936 297.09 217.35 296.595 218.421 296.558Z" fill="url(#paint40_linear_503_935)"/>
<path d="M218.421 296.558C219.31 297.175 219.342 297.831 218.573 298.378C218.106 298.71 217.516 298.561 217.293 297.996C216.936 297.09 217.35 296.595 218.421 296.558Z" stroke="#E5E7EB"/>
</g>
<g filter="url(#filter23_d_503_935)">
<path d="M212.961 290.756C212.605 291.585 212.119 292.034 211.299 291.645C210.844 291.429 210.637 290.997 210.719 290.483C210.812 289.903 211.166 289.506 211.752 289.482C212.501 289.452 212.94 289.857 212.961 290.756Z" fill="url(#paint41_linear_503_935)"/>
<path d="M212.961 290.756C212.605 291.585 212.119 292.034 211.299 291.645C210.844 291.429 210.637 290.997 210.719 290.483C210.812 289.903 211.166 289.506 211.752 289.482C212.501 289.452 212.94 289.857 212.961 290.756Z" stroke="#E5E7EB"/>
</g>
<g filter="url(#filter24_d_503_935)">
<path d="M244.092 320.331C244.332 320.076 244.547 320.007 244.759 320.251C244.876 320.385 244.998 320.535 245.05 320.698C245.513 322.144 246.6 322.642 248.113 322.665C248.993 322.679 249.116 323.058 248.577 323.731C248.52 323.801 248.47 323.883 248.396 323.932C247.236 324.705 247.005 325.7 247.54 326.922C247.678 327.238 247.736 327.642 247.39 327.904C247.061 328.154 246.747 327.881 246.433 327.792C246.374 327.775 246.311 327.757 246.262 327.723C245.176 326.967 244.111 327.066 243.017 327.734C242.704 327.926 242.31 328.233 241.916 327.907C241.6 327.646 241.66 327.232 241.769 326.907C242.181 325.667 241.799 324.746 240.663 324.04C240.347 323.843 239.942 323.564 240.103 323.115C240.26 322.677 240.76 322.64 241.133 322.678C242.964 322.865 243.462 321.583 244.092 320.331Z" fill="url(#paint42_linear_503_935)"/>
<path d="M244.092 320.331C244.332 320.076 244.547 320.007 244.759 320.251C244.876 320.385 244.998 320.535 245.05 320.698C245.513 322.144 246.6 322.642 248.113 322.665C248.993 322.679 249.116 323.058 248.577 323.731C248.52 323.801 248.47 323.883 248.396 323.932C247.236 324.705 247.005 325.7 247.54 326.922C247.678 327.238 247.736 327.642 247.39 327.904C247.061 328.154 246.747 327.881 246.433 327.792C246.374 327.775 246.311 327.757 246.262 327.723C245.176 326.967 244.111 327.066 243.017 327.734C242.704 327.926 242.31 328.233 241.916 327.907C241.6 327.646 241.66 327.232 241.769 326.907C242.181 325.667 241.799 324.746 240.663 324.04C240.347 323.843 239.942 323.564 240.103 323.115C240.26 322.677 240.76 322.64 241.133 322.678C242.964 322.865 243.462 321.583 244.092 320.331Z" stroke="#E5E7EB"/>
</g>
<g filter="url(#filter25_d_503_935)">
<path d="M244.651 335.271C244.819 335.101 244.97 335.055 245.118 335.217C245.2 335.307 245.285 335.407 245.322 335.515C245.646 336.479 246.407 336.811 247.466 336.827C248.082 336.836 248.168 337.089 247.79 337.537C247.751 337.584 247.716 337.639 247.664 337.671C246.852 338.187 246.69 338.85 247.064 339.664C247.161 339.875 247.202 340.145 246.96 340.32C246.729 340.486 246.51 340.304 246.29 340.244C246.248 340.233 246.204 340.221 246.17 340.199C245.41 339.695 244.664 339.761 243.899 340.206C243.68 340.334 243.404 340.539 243.128 340.322C242.907 340.148 242.949 339.871 243.025 339.655C243.313 338.828 243.046 338.214 242.251 337.743C242.029 337.612 241.746 337.426 241.859 337.127C241.969 336.835 242.318 336.81 242.58 336.836C243.861 336.96 244.21 336.106 244.651 335.271Z" fill="url(#paint43_linear_503_935)"/>
<path d="M244.651 335.271C244.819 335.101 244.97 335.055 245.118 335.217C245.2 335.307 245.285 335.407 245.322 335.515C245.646 336.479 246.407 336.811 247.466 336.827C248.082 336.836 248.168 337.089 247.79 337.537C247.751 337.584 247.716 337.639 247.664 337.671C246.852 338.187 246.69 338.85 247.064 339.664C247.161 339.875 247.202 340.145 246.96 340.32C246.729 340.486 246.51 340.304 246.29 340.244C246.248 340.233 246.204 340.221 246.17 340.199C245.41 339.695 244.664 339.761 243.899 340.206C243.68 340.334 243.404 340.539 243.128 340.322C242.907 340.148 242.949 339.871 243.025 339.655C243.313 338.828 243.046 338.214 242.251 337.743C242.029 337.612 241.746 337.426 241.859 337.127C241.969 336.835 242.318 336.81 242.58 336.836C243.861 336.96 244.21 336.106 244.651 335.271Z" stroke="#E5E7EB"/>
</g>
<g filter="url(#filter26_d_503_935)">
<path d="M204.128 282.806C203.772 283.635 203.286 284.084 202.466 283.695C202.011 283.479 201.804 283.047 201.886 282.533C201.979 281.953 202.332 281.556 202.919 281.532C203.668 281.502 204.107 281.907 204.128 282.806Z" fill="url(#paint44_linear_503_935)"/>
<path d="M204.128 282.806C203.772 283.635 203.286 284.084 202.466 283.695C202.011 283.479 201.804 283.047 201.886 282.533C201.979 281.953 202.332 281.556 202.919 281.532C203.668 281.502 204.107 281.907 204.128 282.806Z" stroke="#E5E7EB"/>
</g>
</g>
<defs>
<filter id="filter0_d_503_935" x="-23.5267" y="0" width="460.258" height="554.83" filterUnits="userSpaceOnUse" color-interpolation-filters="sRGB">
<feFlood flood-opacity="0" result="BackgroundImageFix"/>
<feColorMatrix in="SourceAlpha" type="matrix" values="0 0 0 0 0 0 0 0 0 0 0 0 0 0 0 0 0 0 127 0" result="hardAlpha"/>
<feOffset/>
<feGaussianBlur stdDeviation="75"/>
<feComposite in2="hardAlpha" operator="out"/>
<feColorMatrix type="matrix" values="0 0 0 0 1 0 0 0 0 1 0 0 0 0 1 0 0 0 1 0"/>
<feBlend mode="normal" in2="BackgroundImageFix" result="effect1_dropShadow_503_935"/>
<feBlend mode="normal" in="SourceGraphic" in2="effect1_dropShadow_503_935" result="shape"/>
</filter>
<filter id="filter1_d_503_935" x="207.969" y="266.014" width="11.2613" height="11.3059" filterUnits="userSpaceOnUse" color-interpolation-filters="sRGB">
<feFlood flood-opacity="0" result="BackgroundImageFix"/>
<feColorMatrix in="SourceAlpha" type="matrix" values="0 0 0 0 0 0 0 0 0 0 0 0 0 0 0 0 0 0 127 0" result="hardAlpha"/>
<feOffset dy="4"/>
<feGaussianBlur stdDeviation="2"/>
<feComposite in2="hardAlpha" operator="out"/>
<feColorMatrix type="matrix" values="0 0 0 0 0 0 0 0 0 0 0 0 0 0 0 0 0 0 0.25 0"/>
<feBlend mode="normal" in2="BackgroundImageFix" result="effect1_dropShadow_503_935"/>
<feBlend mode="normal" in="SourceGraphic" in2="effect1_dropShadow_503_935" result="shape"/>
</filter>
<filter id="filter2_d_503_935" x="248.292" y="316.843" width="11.6263" height="11.7954" filterUnits="userSpaceOnUse" color-interpolation-filters="sRGB">
<feFlood flood-opacity="0" result="BackgroundImageFix"/>
<feColorMatrix in="SourceAlpha" type="matrix" values="0 0 0 0 0 0 0 0 0 0 0 0 0 0 0 0 0 0 127 0" result="hardAlpha"/>
<feOffset dy="4"/>
<feGaussianBlur stdDeviation="2"/>
<feComposite in2="hardAlpha" operator="out"/>
<feColorMatrix type="matrix" values="0 0 0 0 0 0 0 0 0 0 0 0 0 0 0 0 0 0 0.25 0"/>
<feBlend mode="normal" in2="BackgroundImageFix" result="effect1_dropShadow_503_935"/>
<feBlend mode="normal" in="SourceGraphic" in2="effect1_dropShadow_503_935" result="shape"/>
</filter>
<filter id="filter3_d_503_935" x="246.525" y="308.009" width="11.6263" height="11.7954" filterUnits="userSpaceOnUse" color-interpolation-filters="sRGB">
<feFlood flood-opacity="0" result="BackgroundImageFix"/>
<feColorMatrix in="SourceAlpha" type="matrix" values="0 0 0 0 0 0 0 0 0 0 0 0 0 0 0 0 0 0 127 0" result="hardAlpha"/>
<feOffset dy="4"/>
<feGaussianBlur stdDeviation="2"/>
<feComposite in2="hardAlpha" operator="out"/>
<feColorMatrix type="matrix" values="0 0 0 0 0 0 0 0 0 0 0 0 0 0 0 0 0 0 0.25 0"/>
<feBlend mode="normal" in2="BackgroundImageFix" result="effect1_dropShadow_503_935"/>
<feBlend mode="normal" in="SourceGraphic" in2="effect1_dropShadow_503_935" result="shape"/>
</filter>
<filter id="filter4_d_503_935" x="248.292" y="323.909" width="11.6263" height="11.7954" filterUnits="userSpaceOnUse" color-interpolation-filters="sRGB">
<feFlood flood-opacity="0" result="BackgroundImageFix"/>
<feColorMatrix in="SourceAlpha" type="matrix" values="0 0 0 0 0 0 0 0 0 0 0 0 0 0 0 0 0 0 127 0" result="hardAlpha"/>
<feOffset dy="4"/>
<feGaussianBlur stdDeviation="2"/>
<feComposite in2="hardAlpha" operator="out"/>
<feColorMatrix type="matrix" values="0 0 0 0 0 0 0 0 0 0 0 0 0 0 0 0 0 0 0.25 0"/>
<feBlend mode="normal" in2="BackgroundImageFix" result="effect1_dropShadow_503_935"/>
<feBlend mode="normal" in="SourceGraphic" in2="effect1_dropShadow_503_935" result="shape"/>
</filter>
<filter id="filter5_d_503_935" x="232.027" y="354.043" width="11.6177" height="11.5631" filterUnits="userSpaceOnUse" color-interpolation-filters="sRGB">
<feFlood flood-opacity="0" result="BackgroundImageFix"/>
<feColorMatrix in="SourceAlpha" type="matrix" values="0 0 0 0 0 0 0 0 0 0 0 0 0 0 0 0 0 0 127 0" result="hardAlpha"/>
<feOffset dy="4"/>
<feGaussianBlur stdDeviation="2"/>
<feComposite in2="hardAlpha" operator="out"/>
<feColorMatrix type="matrix" values="0 0 0 0 0 0 0 0 0 0 0 0 0 0 0 0 0 0 0.25 0"/>
<feBlend mode="normal" in2="BackgroundImageFix" result="effect1_dropShadow_503_935"/>
<feBlend mode="normal" in="SourceGraphic" in2="effect1_dropShadow_503_935" result="shape"/>
</filter>
<filter id="filter6_d_503_935" x="228.5" y="358.467" width="11.6177" height="11.5631" filterUnits="userSpaceOnUse" color-interpolation-filters="sRGB">
<feFlood flood-opacity="0" result="BackgroundImageFix"/>
<feColorMatrix in="SourceAlpha" type="matrix" values="0 0 0 0 0 0 0 0 0 0 0 0 0 0 0 0 0 0 127 0" result="hardAlpha"/>
<feOffset dy="4"/>
<feGaussianBlur stdDeviation="2"/>
<feComposite in2="hardAlpha" operator="out"/>
<feColorMatrix type="matrix" values="0 0 0 0 0 0 0 0 0 0 0 0 0 0 0 0 0 0 0.25 0"/>
<feBlend mode="normal" in2="BackgroundImageFix" result="effect1_dropShadow_503_935"/>
<feBlend mode="normal" in="SourceGraphic" in2="effect1_dropShadow_503_935" result="shape"/>
</filter>
<filter id="filter7_d_503_935" x="215.035" y="271.314" width="11.2613" height="11.3059" filterUnits="userSpaceOnUse" color-interpolation-filters="sRGB">
<feFlood flood-opacity="0" result="BackgroundImageFix"/>
<feColorMatrix in="SourceAlpha" type="matrix" values="0 0 0 0 0 0 0 0 0 0 0 0 0 0 0 0 0 0 127 0" result="hardAlpha"/>
<feOffset dy="4"/>
<feGaussianBlur stdDeviation="2"/>
<feComposite in2="hardAlpha" operator="out"/>
<feColorMatrix type="matrix" values="0 0 0 0 0 0 0 0 0 0 0 0 0 0 0 0 0 0 0.25 0"/>
<feBlend mode="normal" in2="BackgroundImageFix" result="effect1_dropShadow_503_935"/>
<feBlend mode="normal" in="SourceGraphic" in2="effect1_dropShadow_503_935" result="shape"/>
</filter>
<filter id="filter8_d_503_935" x="233.8" y="346.1" width="11.2613" height="11.306" filterUnits="userSpaceOnUse" color-interpolation-filters="sRGB">
<feFlood flood-opacity="0" result="BackgroundImageFix"/>
<feColorMatrix in="SourceAlpha" type="matrix" values="0 0 0 0 0 0 0 0 0 0 0 0 0 0 0 0 0 0 127 0" result="hardAlpha"/>
<feOffset dy="4"/>
<feGaussianBlur stdDeviation="2"/>
<feComposite in2="hardAlpha" operator="out"/>
<feColorMatrix type="matrix" values="0 0 0 0 0 0 0 0 0 0 0 0 0 0 0 0 0 0 0.25 0"/>
<feBlend mode="normal" in2="BackgroundImageFix" result="effect1_dropShadow_503_935"/>
<feBlend mode="normal" in="SourceGraphic" in2="effect1_dropShadow_503_935" result="shape"/>
</filter>
<filter id="filter9_d_503_935" x="233.8" y="336.384" width="11.2613" height="11.3059" filterUnits="userSpaceOnUse" color-interpolation-filters="sRGB">
<feFlood flood-opacity="0" result="BackgroundImageFix"/>
<feColorMatrix in="SourceAlpha" type="matrix" values="0 0 0 0 0 0 0 0 0 0 0 0 0 0 0 0 0 0 127 0" result="hardAlpha"/>
<feOffset dy="4"/>
<feGaussianBlur stdDeviation="2"/>
<feComposite in2="hardAlpha" operator="out"/>
<feColorMatrix type="matrix" values="0 0 0 0 0 0 0 0 0 0 0 0 0 0 0 0 0 0 0.25 0"/>
<feBlend mode="normal" in2="BackgroundImageFix" result="effect1_dropShadow_503_935"/>
<feBlend mode="normal" in="SourceGraphic" in2="effect1_dropShadow_503_935" result="shape"/>
</filter>
<filter id="filter10_d_503_935" x="200.902" y="260.714" width="11.2613" height="11.3059" filterUnits="userSpaceOnUse" color-interpolation-filters="sRGB">
<feFlood flood-opacity="0" result="BackgroundImageFix"/>
<feColorMatrix in="SourceAlpha" type="matrix" values="0 0 0 0 0 0 0 0 0 0 0 0 0 0 0 0 0 0 127 0" result="hardAlpha"/>
<feOffset dy="4"/>
<feGaussianBlur stdDeviation="2"/>
<feComposite in2="hardAlpha" operator="out"/>
<feColorMatrix type="matrix" values="0 0 0 0 0 0 0 0 0 0 0 0 0 0 0 0 0 0 0.25 0"/>
<feBlend mode="normal" in2="BackgroundImageFix" result="effect1_dropShadow_503_935"/>
<feBlend mode="normal" in="SourceGraphic" in2="effect1_dropShadow_503_935" result="shape"/>
</filter>
<filter id="filter11_d_503_935" x="188.905" y="273.649" width="11.2797" height="11.3347" filterUnits="userSpaceOnUse" color-interpolation-filters="sRGB">
<feFlood flood-opacity="0" result="BackgroundImageFix"/>
<feColorMatrix in="SourceAlpha" type="matrix" values="0 0 0 0 0 0 0 0 0 0 0 0 0 0 0 0 0 0 127 0" result="hardAlpha"/>
<feOffset dy="4"/>
<feGaussianBlur stdDeviation="2"/>
<feComposite in2="hardAlpha" operator="out"/>
<feColorMatrix type="matrix" values="0 0 0 0 0 0 0 0 0 0 0 0 0 0 0 0 0 0 0.25 0"/>
<feBlend mode="normal" in2="BackgroundImageFix" result="effect1_dropShadow_503_935"/>
<feBlend mode="normal" in="SourceGraphic" in2="effect1_dropShadow_503_935" result="shape"/>
</filter>
<filter id="filter12_d_503_935" x="228.459" y="284.349" width="11.312" height="11.3523" filterUnits="userSpaceOnUse" color-interpolation-filters="sRGB">
<feFlood flood-opacity="0" result="BackgroundImageFix"/>
<feColorMatrix in="SourceAlpha" type="matrix" values="0 0 0 0 0 0 0 0 0 0 0 0 0 0 0 0 0 0 127 0" result="hardAlpha"/>
<feOffset dy="4"/>
<feGaussianBlur stdDeviation="2"/>
<feComposite in2="hardAlpha" operator="out"/>
<feColorMatrix type="matrix" values="0 0 0 0 0 0 0 0 0 0 0 0 0 0 0 0 0 0 0.25 0"/>
<feBlend mode="normal" in2="BackgroundImageFix" result="effect1_dropShadow_503_935"/>
<feBlend mode="normal" in="SourceGraphic" in2="effect1_dropShadow_503_935" result="shape"/>
</filter>
<filter id="filter13_d_503_935" x="236.409" y="293.182" width="11.312" height="11.3523" filterUnits="userSpaceOnUse" color-interpolation-filters="sRGB">
<feFlood flood-opacity="0" result="BackgroundImageFix"/>
<feColorMatrix in="SourceAlpha" type="matrix" values="0 0 0 0 0 0 0 0 0 0 0 0 0 0 0 0 0 0 127 0" result="hardAlpha"/>
<feOffset dy="4"/>
<feGaussianBlur stdDeviation="2"/>
<feComposite in2="hardAlpha" operator="out"/>
<feColorMatrix type="matrix" values="0 0 0 0 0 0 0 0 0 0 0 0 0 0 0 0 0 0 0.25 0"/>
<feBlend mode="normal" in2="BackgroundImageFix" result="effect1_dropShadow_503_935"/>
<feBlend mode="normal" in="SourceGraphic" in2="effect1_dropShadow_503_935" result="shape"/>
</filter>
<filter id="filter14_d_503_935" x="241.709" y="300.249" width="11.312" height="11.3523" filterUnits="userSpaceOnUse" color-interpolation-filters="sRGB">
<feFlood flood-opacity="0" result="BackgroundImageFix"/>
<feColorMatrix in="SourceAlpha" type="matrix" values="0 0 0 0 0 0 0 0 0 0 0 0 0 0 0 0 0 0 127 0" result="hardAlpha"/>
<feOffset dy="4"/>
<feGaussianBlur stdDeviation="2"/>
<feComposite in2="hardAlpha" operator="out"/>
<feColorMatrix type="matrix" values="0 0 0 0 0 0 0 0 0 0 0 0 0 0 0 0 0 0 0.25 0"/>
<feBlend mode="normal" in2="BackgroundImageFix" result="effect1_dropShadow_503_935"/>
<feBlend mode="normal" in="SourceGraphic" in2="effect1_dropShadow_503_935" result="shape"/>
</filter>
<filter id="filter15_d_503_935" x="237.592" y="349.569" width="10.9194" height="10.9899" filterUnits="userSpaceOnUse" color-interpolation-filters="sRGB">
<feFlood flood-opacity="0" result="BackgroundImageFix"/>
<feColorMatrix in="SourceAlpha" type="matrix" values="0 0 0 0 0 0 0 0 0 0 0 0 0 0 0 0 0 0 127 0" result="hardAlpha"/>
<feOffset dy="4"/>
<feGaussianBlur stdDeviation="2"/>
<feComposite in2="hardAlpha" operator="out"/>
<feColorMatrix type="matrix" values="0 0 0 0 0 0 0 0 0 0 0 0 0 0 0 0 0 0 0.25 0"/>
<feBlend mode="normal" in2="BackgroundImageFix" result="effect1_dropShadow_503_935"/>
<feBlend mode="normal" in="SourceGraphic" in2="effect1_dropShadow_503_935" result="shape"/>
</filter>
<filter id="filter16_d_503_935" x="242.008" y="343.386" width="10.9194" height="10.9899" filterUnits="userSpaceOnUse" color-interpolation-filters="sRGB">
<feFlood flood-opacity="0" result="BackgroundImageFix"/>
<feColorMatrix in="SourceAlpha" type="matrix" values="0 0 0 0 0 0 0 0 0 0 0 0 0 0 0 0 0 0 127 0" result="hardAlpha"/>
<feOffset dy="4"/>
<feGaussianBlur stdDeviation="2"/>
<feComposite in2="hardAlpha" operator="out"/>
<feColorMatrix type="matrix" values="0 0 0 0 0 0 0 0 0 0 0 0 0 0 0 0 0 0 0.25 0"/>
<feBlend mode="normal" in2="BackgroundImageFix" result="effect1_dropShadow_503_935"/>
<feBlend mode="normal" in="SourceGraphic" in2="effect1_dropShadow_503_935" result="shape"/>
</filter>
<filter id="filter17_d_503_935" x="244.658" y="338.086" width="10.9194" height="10.9899" filterUnits="userSpaceOnUse" color-interpolation-filters="sRGB">
<feFlood flood-opacity="0" result="BackgroundImageFix"/>
<feColorMatrix in="SourceAlpha" type="matrix" values="0 0 0 0 0 0 0 0 0 0 0 0 0 0 0 0 0 0 127 0" result="hardAlpha"/>
<feOffset dy="4"/>
<feGaussianBlur stdDeviation="2"/>
<feComposite in2="hardAlpha" operator="out"/>
<feColorMatrix type="matrix" values="0 0 0 0 0 0 0 0 0 0 0 0 0 0 0 0 0 0 0.25 0"/>
<feBlend mode="normal" in2="BackgroundImageFix" result="effect1_dropShadow_503_935"/>
<feBlend mode="normal" in="SourceGraphic" in2="effect1_dropShadow_503_935" result="shape"/>
</filter>
<filter id="filter18_d_503_935" x="247.308" y="331.903" width="10.9194" height="10.9897" filterUnits="userSpaceOnUse" color-interpolation-filters="sRGB">
<feFlood flood-opacity="0" result="BackgroundImageFix"/>
<feColorMatrix in="SourceAlpha" type="matrix" values="0 0 0 0 0 0 0 0 0 0 0 0 0 0 0 0 0 0 127 0" result="hardAlpha"/>
<feOffset dy="4"/>
<feGaussianBlur stdDeviation="2"/>
<feComposite in2="hardAlpha" operator="out"/>
<feColorMatrix type="matrix" values="0 0 0 0 0 0 0 0 0 0 0 0 0 0 0 0 0 0 0.25 0"/>
<feBlend mode="normal" in2="BackgroundImageFix" result="effect1_dropShadow_503_935"/>
<feBlend mode="normal" in="SourceGraphic" in2="effect1_dropShadow_503_935" result="shape"/>
</filter>
<filter id="filter19_d_503_935" x="230.012" y="319.605" width="10.9661" height="10.9221" filterUnits="userSpaceOnUse" color-interpolation-filters="sRGB">
<feFlood flood-opacity="0" result="BackgroundImageFix"/>
<feColorMatrix in="SourceAlpha" type="matrix" values="0 0 0 0 0 0 0 0 0 0 0 0 0 0 0 0 0 0 127 0" result="hardAlpha"/>
<feOffset dy="4"/>
<feGaussianBlur stdDeviation="2"/>
<feComposite in2="hardAlpha" operator="out"/>
<feColorMatrix type="matrix" values="0 0 0 0 0 0 0 0 0 0 0 0 0 0 0 0 0 0 0.25 0"/>
<feBlend mode="normal" in2="BackgroundImageFix" result="effect1_dropShadow_503_935"/>
<feBlend mode="normal" in="SourceGraphic" in2="effect1_dropShadow_503_935" result="shape"/>
</filter>
<filter id="filter20_d_503_935" x="232.662" y="327.555" width="11.2331" height="11.2102" filterUnits="userSpaceOnUse" color-interpolation-filters="sRGB">
<feFlood flood-opacity="0" result="BackgroundImageFix"/>
<feColorMatrix in="SourceAlpha" type="matrix" values="0 0 0 0 0 0 0 0 0 0 0 0 0 0 0 0 0 0 127 0" result="hardAlpha"/>
<feOffset dy="4"/>
<feGaussianBlur stdDeviation="2"/>
<feComposite in2="hardAlpha" operator="out"/>
<feColorMatrix type="matrix" values="0 0 0 0 0 0 0 0 0 0 0 0 0 0 0 0 0 0 0.25 0"/>
<feBlend mode="normal" in2="BackgroundImageFix" result="effect1_dropShadow_503_935"/>
<feBlend mode="normal" in="SourceGraphic" in2="effect1_dropShadow_503_935" result="shape"/>
</filter>
<filter id="filter21_d_503_935" x="219.734" y="303.119" width="10.953" height="11.0007" filterUnits="userSpaceOnUse" color-interpolation-filters="sRGB">
<feFlood flood-opacity="0" result="BackgroundImageFix"/>
<feColorMatrix in="SourceAlpha" type="matrix" values="0 0 0 0 0 0 0 0 0 0 0 0 0 0 0 0 0 0 127 0" result="hardAlpha"/>
<feOffset dy="4"/>
<feGaussianBlur stdDeviation="2"/>
<feComposite in2="hardAlpha" operator="out"/>
<feColorMatrix type="matrix" values="0 0 0 0 0 0 0 0 0 0 0 0 0 0 0 0 0 0 0.25 0"/>
<feBlend mode="normal" in2="BackgroundImageFix" result="effect1_dropShadow_503_935"/>
<feBlend mode="normal" in="SourceGraphic" in2="effect1_dropShadow_503_935" result="shape"/>
</filter>
<filter id="filter22_d_503_935" x="212.668" y="296.052" width="10.953" height="11.0007" filterUnits="userSpaceOnUse" color-interpolation-filters="sRGB">
<feFlood flood-opacity="0" result="BackgroundImageFix"/>
<feColorMatrix in="SourceAlpha" type="matrix" values="0 0 0 0 0 0 0 0 0 0 0 0 0 0 0 0 0 0 127 0" result="hardAlpha"/>
<feOffset dy="4"/>
<feGaussianBlur stdDeviation="2"/>
<feComposite in2="hardAlpha" operator="out"/>
<feColorMatrix type="matrix" values="0 0 0 0 0 0 0 0 0 0 0 0 0 0 0 0 0 0 0.25 0"/>
<feBlend mode="normal" in2="BackgroundImageFix" result="effect1_dropShadow_503_935"/>
<feBlend mode="normal" in="SourceGraphic" in2="effect1_dropShadow_503_935" result="shape"/>
</filter>
<filter id="filter23_d_503_935" x="206.202" y="288.981" width="11.2613" height="11.3059" filterUnits="userSpaceOnUse" color-interpolation-filters="sRGB">
<feFlood flood-opacity="0" result="BackgroundImageFix"/>
<feColorMatrix in="SourceAlpha" type="matrix" values="0 0 0 0 0 0 0 0 0 0 0 0 0 0 0 0 0 0 127 0" result="hardAlpha"/>
<feOffset dy="4"/>
<feGaussianBlur stdDeviation="2"/>
<feComposite in2="hardAlpha" operator="out"/>
<feColorMatrix type="matrix" values="0 0 0 0 0 0 0 0 0 0 0 0 0 0 0 0 0 0 0.25 0"/>
<feBlend mode="normal" in2="BackgroundImageFix" result="effect1_dropShadow_503_935"/>
<feBlend mode="normal" in="SourceGraphic" in2="effect1_dropShadow_503_935" result="shape"/>
</filter>
<filter id="filter24_d_503_935" x="235.566" y="319.6" width="17.8338" height="16.95" filterUnits="userSpaceOnUse" color-interpolation-filters="sRGB">
<feFlood flood-opacity="0" result="BackgroundImageFix"/>
<feColorMatrix in="SourceAlpha" type="matrix" values="0 0 0 0 0 0 0 0 0 0 0 0 0 0 0 0 0 0 127 0" result="hardAlpha"/>
<feOffset dy="4"/>
<feGaussianBlur stdDeviation="2"/>
<feComposite in2="hardAlpha" operator="out"/>
<feColorMatrix type="matrix" values="0 0 0 0 0 0 0 0 0 0 0 0 0 0 0 0 0 0 0.25 0"/>
<feBlend mode="normal" in2="BackgroundImageFix" result="effect1_dropShadow_503_935"/>
<feBlend mode="normal" in="SourceGraphic" in2="effect1_dropShadow_503_935" result="shape"/>
</filter>
<filter id="filter25_d_503_935" x="237.333" y="334.616" width="15.1839" height="14.3" filterUnits="userSpaceOnUse" color-interpolation-filters="sRGB">
<feFlood flood-opacity="0" result="BackgroundImageFix"/>
<feColorMatrix in="SourceAlpha" type="matrix" values="0 0 0 0 0 0 0 0 0 0 0 0 0 0 0 0 0 0 127 0" result="hardAlpha"/>
<feOffset dy="4"/>
<feGaussianBlur stdDeviation="2"/>
<feComposite in2="hardAlpha" operator="out"/>
<feColorMatrix type="matrix" values="0 0 0 0 0 0 0 0 0 0 0 0 0 0 0 0 0 0 0.25 0"/>
<feBlend mode="normal" in2="BackgroundImageFix" result="effect1_dropShadow_503_935"/>
<feBlend mode="normal" in="SourceGraphic" in2="effect1_dropShadow_503_935" result="shape"/>
</filter>
<filter id="filter26_d_503_935" x="197.369" y="281.031" width="11.2613" height="11.3059" filterUnits="userSpaceOnUse" color-interpolation-filters="sRGB">
<feFlood flood-opacity="0" result="BackgroundImageFix"/>
<feColorMatrix in="SourceAlpha" type="matrix" values="0 0 0 0 0 0 0 0 0 0 0 0 0 0 0 0 0 0 127 0" result="hardAlpha"/>
<feOffset dy="4"/>
<feGaussianBlur stdDeviation="2"/>
<feComposite in2="hardAlpha" operator="out"/>
<feColorMatrix type="matrix" values="0 0 0 0 0 0 0 0 0 0 0 0 0 0 0 0 0 0 0.25 0"/>
<feBlend mode="normal" in2="BackgroundImageFix" result="effect1_dropShadow_503_935"/>
<feBlend mode="normal" in="SourceGraphic" in2="effect1_dropShadow_503_935" result="shape"/>
</filter>
<linearGradient id="paint0_linear_503_935" x1="268.981" y1="295.745" x2="179.117" y2="295.695" gradientUnits="userSpaceOnUse">
<stop stop-color="#5B0E9C"/>
<stop offset="0.5" stop-color="#8A17C9"/>
<stop offset="1" stop-color="#C020F0"/>
</linearGradient>
<linearGradient id="paint1_linear_503_935" x1="220.714" y1="326.271" x2="147.162" y2="326.202" gradientUnits="userSpaceOnUse">
<stop stop-color="#5B0E9C"/>
<stop offset="0.5" stop-color="#8A17C9"/>
<stop offset="1" stop-color="#C020F0"/>
</linearGradient>
<linearGradient id="paint2_linear_503_935" x1="226.416" y1="307.199" x2="164.322" y2="307.157" gradientUnits="userSpaceOnUse">
<stop stop-color="#5B0E9C"/>
<stop offset="0.5" stop-color="#8A17C9"/>
<stop offset="1" stop-color="#C020F0"/>
</linearGradient>
<linearGradient id="paint3_linear_503_935" x1="205.289" y1="372.057" x2="144.438" y2="371.969" gradientUnits="userSpaceOnUse">
<stop stop-color="#5B0E9C"/>
<stop offset="0.5" stop-color="#8A17C9"/>
<stop offset="1" stop-color="#C020F0"/>
</linearGradient>
<linearGradient id="paint4_linear_503_935" x1="286" y1="395.398" x2="126.979" y2="393.615" gradientUnits="userSpaceOnUse">
<stop stop-color="#5B0E9C"/>
<stop offset="0.5" stop-color="#8A17C9"/>
<stop offset="1" stop-color="#C020F0"/>
</linearGradient>
<linearGradient id="paint5_linear_503_935" x1="276.726" y1="385.248" x2="210.758" y2="384.987" gradientUnits="userSpaceOnUse">
<stop stop-color="#5B0E9C"/>
<stop offset="0.5" stop-color="#8A17C9"/>
<stop offset="1" stop-color="#C020F0"/>
</linearGradient>
<linearGradient id="paint6_linear_503_935" x1="201.086" y1="385.773" x2="135.291" y2="385.508" gradientUnits="userSpaceOnUse">
<stop stop-color="#5B0E9C"/>
<stop offset="0.5" stop-color="#8A17C9"/>
<stop offset="1" stop-color="#C020F0"/>
</linearGradient>
<linearGradient id="paint7_linear_503_935" x1="220.63" y1="191.471" x2="202.227" y2="191.449" gradientUnits="userSpaceOnUse">
<stop stop-color="#5B0E9C"/>
<stop offset="0.5" stop-color="#8A17C9"/>
<stop offset="1" stop-color="#C020F0"/>
</linearGradient>
<linearGradient id="paint8_linear_503_935" x1="202.083" y1="262.278" x2="185.296" y2="262.251" gradientUnits="userSpaceOnUse">
<stop stop-color="#5B0E9C"/>
<stop offset="0.5" stop-color="#8A17C9"/>
<stop offset="1" stop-color="#C020F0"/>
</linearGradient>
<linearGradient id="paint9_linear_503_935" x1="219.75" y1="278.91" x2="204.73" y2="278.885" gradientUnits="userSpaceOnUse">
<stop stop-color="#5B0E9C"/>
<stop offset="0.5" stop-color="#8A17C9"/>
<stop offset="1" stop-color="#C020F0"/>
</linearGradient>
<linearGradient id="paint10_linear_503_935" x1="233" y1="292.892" x2="219.747" y2="292.87" gradientUnits="userSpaceOnUse">
<stop stop-color="#5B0E9C"/>
<stop offset="0.5" stop-color="#8A17C9"/>
<stop offset="1" stop-color="#C020F0"/>
</linearGradient>
<linearGradient id="paint11_linear_503_935" x1="244.483" y1="308.641" x2="232.997" y2="308.622" gradientUnits="userSpaceOnUse">
<stop stop-color="#5B0E9C"/>
<stop offset="0.5" stop-color="#8A17C9"/>
<stop offset="1" stop-color="#C020F0"/>
</linearGradient>
<linearGradient id="paint12_linear_503_935" x1="214.728" y1="267.864" x2="212.468" y2="267.861" gradientUnits="userSpaceOnUse">
<stop stop-color="#5B0E9C"/>
<stop offset="0.5" stop-color="#8A17C9"/>
<stop offset="1" stop-color="#C020F0"/>
</linearGradient>
<linearGradient id="paint13_linear_503_935" x1="238.179" y1="194.669" x2="216.037" y2="194.644" gradientUnits="userSpaceOnUse">
<stop stop-color="#5B0E9C"/>
<stop offset="0.5" stop-color="#8A17C9"/>
<stop offset="1" stop-color="#C020F0"/>
</linearGradient>
<linearGradient id="paint14_linear_503_935" x1="225.202" y1="184.889" x2="220.004" y2="184.888" gradientUnits="userSpaceOnUse">
<stop stop-color="#5B0E9C"/>
<stop offset="0.5" stop-color="#8A17C9"/>
<stop offset="1" stop-color="#C020F0"/>
</linearGradient>
<linearGradient id="paint15_linear_503_935" x1="212.507" y1="365.54" x2="198.685" y2="365.524" gradientUnits="userSpaceOnUse">
<stop stop-color="#5B0E9C"/>
<stop offset="0.5" stop-color="#8A17C9"/>
<stop offset="1" stop-color="#C020F0"/>
</linearGradient>
<linearGradient id="paint16_linear_503_935" x1="235.109" y1="173.66" x2="229.465" y2="173.65" gradientUnits="userSpaceOnUse">
<stop stop-color="#5B0E9C"/>
<stop offset="0.5" stop-color="#8A17C9"/>
<stop offset="1" stop-color="#C020F0"/>
</linearGradient>
<linearGradient id="paint17_linear_503_935" x1="216.514" y1="175.528" x2="213.242" y2="175.524" gradientUnits="userSpaceOnUse">
<stop stop-color="#5B0E9C"/>
<stop offset="0.5" stop-color="#8A17C9"/>
<stop offset="1" stop-color="#C020F0"/>
</linearGradient>
<linearGradient id="paint18_linear_503_935" x1="255.418" y1="318.98" x2="252.791" y2="318.976" gradientUnits="userSpaceOnUse">
<stop stop-color="#5B0E9C"/>
<stop offset="0.5" stop-color="#8A17C9"/>
<stop offset="1" stop-color="#C020F0"/>
</linearGradient>
<linearGradient id="paint19_linear_503_935" x1="253.652" y1="310.147" x2="251.025" y2="310.143" gradientUnits="userSpaceOnUse">
<stop stop-color="#5B0E9C"/>
<stop offset="0.5" stop-color="#8A17C9"/>
<stop offset="1" stop-color="#C020F0"/>
</linearGradient>
<linearGradient id="paint20_linear_503_935" x1="255.418" y1="326.046" x2="252.791" y2="326.043" gradientUnits="userSpaceOnUse">
<stop stop-color="#5B0E9C"/>
<stop offset="0.5" stop-color="#8A17C9"/>
<stop offset="1" stop-color="#C020F0"/>
</linearGradient>
<linearGradient id="paint21_linear_503_935" x1="239.144" y1="356.044" x2="236.526" y2="356.04" gradientUnits="userSpaceOnUse">
<stop stop-color="#5B0E9C"/>
<stop offset="0.5" stop-color="#8A17C9"/>
<stop offset="1" stop-color="#C020F0"/>
</linearGradient>
<linearGradient id="paint22_linear_503_935" x1="235.618" y1="360.468" x2="232.999" y2="360.463" gradientUnits="userSpaceOnUse">
<stop stop-color="#5B0E9C"/>
<stop offset="0.5" stop-color="#8A17C9"/>
<stop offset="1" stop-color="#C020F0"/>
</linearGradient>
<linearGradient id="paint23_linear_503_935" x1="221.794" y1="273.164" x2="219.535" y2="273.161" gradientUnits="userSpaceOnUse">
<stop stop-color="#5B0E9C"/>
<stop offset="0.5" stop-color="#8A17C9"/>
<stop offset="1" stop-color="#C020F0"/>
</linearGradient>
<linearGradient id="paint24_linear_503_935" x1="240.559" y1="347.95" x2="238.299" y2="347.947" gradientUnits="userSpaceOnUse">
<stop stop-color="#5B0E9C"/>
<stop offset="0.5" stop-color="#8A17C9"/>
<stop offset="1" stop-color="#C020F0"/>
</linearGradient>
<linearGradient id="paint25_linear_503_935" x1="240.559" y1="338.234" x2="238.299" y2="338.23" gradientUnits="userSpaceOnUse">
<stop stop-color="#5B0E9C"/>
<stop offset="0.5" stop-color="#8A17C9"/>
<stop offset="1" stop-color="#C020F0"/>
</linearGradient>
<linearGradient id="paint26_linear_503_935" x1="207.661" y1="262.564" x2="205.401" y2="262.561" gradientUnits="userSpaceOnUse">
<stop stop-color="#5B0E9C"/>
<stop offset="0.5" stop-color="#8A17C9"/>
<stop offset="1" stop-color="#C020F0"/>
</linearGradient>
<linearGradient id="paint27_linear_503_935" x1="195.684" y1="275.516" x2="193.405" y2="275.513" gradientUnits="userSpaceOnUse">
<stop stop-color="#5B0E9C"/>
<stop offset="0.5" stop-color="#8A17C9"/>
<stop offset="1" stop-color="#C020F0"/>
</linearGradient>
<linearGradient id="paint28_linear_503_935" x1="235.271" y1="286.227" x2="232.958" y2="286.223" gradientUnits="userSpaceOnUse">
<stop stop-color="#5B0E9C"/>
<stop offset="0.5" stop-color="#8A17C9"/>
<stop offset="1" stop-color="#C020F0"/>
</linearGradient>
<linearGradient id="paint29_linear_503_935" x1="243.221" y1="295.06" x2="240.908" y2="295.056" gradientUnits="userSpaceOnUse">
<stop stop-color="#5B0E9C"/>
<stop offset="0.5" stop-color="#8A17C9"/>
<stop offset="1" stop-color="#C020F0"/>
</linearGradient>
<linearGradient id="paint30_linear_503_935" x1="229.129" y1="279.077" x2="226.816" y2="279.074" gradientUnits="userSpaceOnUse">
<stop stop-color="#5B0E9C"/>
<stop offset="0.5" stop-color="#8A17C9"/>
<stop offset="1" stop-color="#C020F0"/>
</linearGradient>
<linearGradient id="paint31_linear_503_935" x1="248.521" y1="302.127" x2="246.208" y2="302.123" gradientUnits="userSpaceOnUse">
<stop stop-color="#5B0E9C"/>
<stop offset="0.5" stop-color="#8A17C9"/>
<stop offset="1" stop-color="#C020F0"/>
</linearGradient>
<linearGradient id="paint32_linear_503_935" x1="244.011" y1="351.235" x2="242.091" y2="351.232" gradientUnits="userSpaceOnUse">
<stop stop-color="#5B0E9C"/>
<stop offset="0.5" stop-color="#8A17C9"/>
<stop offset="1" stop-color="#C020F0"/>
</linearGradient>
<linearGradient id="paint33_linear_503_935" x1="248.428" y1="345.051" x2="246.508" y2="345.048" gradientUnits="userSpaceOnUse">
<stop stop-color="#5B0E9C"/>
<stop offset="0.5" stop-color="#8A17C9"/>
<stop offset="1" stop-color="#C020F0"/>
</linearGradient>
<linearGradient id="paint34_linear_503_935" x1="251.078" y1="339.751" x2="249.158" y2="339.749" gradientUnits="userSpaceOnUse">
<stop stop-color="#5B0E9C"/>
<stop offset="0.5" stop-color="#8A17C9"/>
<stop offset="1" stop-color="#C020F0"/>
</linearGradient>
<linearGradient id="paint35_linear_503_935" x1="253.728" y1="333.568" x2="251.808" y2="333.565" gradientUnits="userSpaceOnUse">
<stop stop-color="#5B0E9C"/>
<stop offset="0.5" stop-color="#8A17C9"/>
<stop offset="1" stop-color="#C020F0"/>
</linearGradient>
<linearGradient id="paint36_linear_503_935" x1="232.036" y1="313.28" x2="230.095" y2="313.277" gradientUnits="userSpaceOnUse">
<stop stop-color="#5B0E9C"/>
<stop offset="0.5" stop-color="#8A17C9"/>
<stop offset="1" stop-color="#C020F0"/>
</linearGradient>
<linearGradient id="paint37_linear_503_935" x1="236.452" y1="321.23" x2="234.511" y2="321.227" gradientUnits="userSpaceOnUse">
<stop stop-color="#5B0E9C"/>
<stop offset="0.5" stop-color="#8A17C9"/>
<stop offset="1" stop-color="#C020F0"/>
</linearGradient>
<linearGradient id="paint38_linear_503_935" x1="239.37" y1="329.349" x2="237.161" y2="329.346" gradientUnits="userSpaceOnUse">
<stop stop-color="#5B0E9C"/>
<stop offset="0.5" stop-color="#8A17C9"/>
<stop offset="1" stop-color="#C020F0"/>
</linearGradient>
<linearGradient id="paint39_linear_503_935" x1="226.187" y1="304.792" x2="224.234" y2="304.789" gradientUnits="userSpaceOnUse">
<stop stop-color="#5B0E9C"/>
<stop offset="0.5" stop-color="#8A17C9"/>
<stop offset="1" stop-color="#C020F0"/>
</linearGradient>
<linearGradient id="paint40_linear_503_935" x1="219.121" y1="297.726" x2="217.167" y2="297.723" gradientUnits="userSpaceOnUse">
<stop stop-color="#5B0E9C"/>
<stop offset="0.5" stop-color="#8A17C9"/>
<stop offset="1" stop-color="#C020F0"/>
</linearGradient>
<linearGradient id="paint41_linear_503_935" x1="212.961" y1="290.831" x2="210.701" y2="290.828" gradientUnits="userSpaceOnUse">
<stop stop-color="#5B0E9C"/>
<stop offset="0.5" stop-color="#8A17C9"/>
<stop offset="1" stop-color="#C020F0"/>
</linearGradient>
<linearGradient id="paint42_linear_503_935" x1="248.9" y1="324.755" x2="240.064" y2="324.74" gradientUnits="userSpaceOnUse">
<stop stop-color="#5B0E9C"/>
<stop offset="0.5" stop-color="#8A17C9"/>
<stop offset="1" stop-color="#C020F0"/>
</linearGradient>
<linearGradient id="paint43_linear_503_935" x1="248.017" y1="338.22" x2="241.832" y2="338.209" gradientUnits="userSpaceOnUse">
<stop stop-color="#5B0E9C"/>
<stop offset="0.5" stop-color="#8A17C9"/>
<stop offset="1" stop-color="#C020F0"/>
</linearGradient>
<linearGradient id="paint44_linear_503_935" x1="204.128" y1="282.881" x2="201.868" y2="282.878" gradientUnits="userSpaceOnUse">
<stop stop-color="#5B0E9C"/>
<stop offset="0.5" stop-color="#8A17C9"/>
<stop offset="1" stop-color="#C020F0"/>
</linearGradient>
</defs>
</svg>
