<svg width="26" height="26" viewBox="0 0 26 26" fill="none" xmlns="http://www.w3.org/2000/svg">
<g clip-path="url(#clip0_235_931)">
<path d="M23.6194 1.39758L15.2862 1.44986L15.3385 9.78303L23.6717 9.73075L23.6194 1.39758Z" stroke="#7721AB" stroke-width="2" stroke-linecap="round" stroke-linejoin="round"/>
<path d="M9.81787 15.3734L1.4847 15.4256L1.53698 23.7588L9.87015 23.7065L9.81787 15.3734Z" stroke="#A90ED8" stroke-width="2" stroke-linecap="round" stroke-linejoin="round"/>
<path d="M23.7065 15.2862L15.3734 15.3385L15.4257 23.6716L23.7588 23.6194L23.7065 15.2862Z" stroke="#801DD9" stroke-width="2" stroke-linecap="round" stroke-linejoin="round"/>
<path d="M9.75685 5.65133C9.76202 6.4754 9.52271 7.2825 9.06918 7.97056C8.61565 8.65862 7.96827 9.19675 7.2089 9.51689C6.44954 9.83702 5.61229 9.92479 4.80305 9.76909C3.9938 9.61339 3.2489 9.22122 2.66253 8.64217C2.07617 8.06312 1.67468 7.3232 1.50884 6.51597C1.343 5.70874 1.42026 4.87046 1.73084 4.10713C2.04143 3.34381 2.57139 2.68973 3.2537 2.2276C3.93602 1.76547 4.74006 1.51605 5.56413 1.51088C6.66918 1.50395 7.73172 1.93628 8.51801 2.71276C9.30429 3.48925 9.74992 4.54628 9.75685 5.65133Z" stroke="#C020F0" stroke-width="2" stroke-linecap="round" stroke-linejoin="round"/>
</g>
<defs>
<clipPath id="clip0_235_931">
<rect width="25" height="25" fill="white" transform="matrix(-0.99998 0.00627382 0.00627382 0.99998 24.9995 0)"/>
</clipPath>
</defs>
</svg>
